<svg width="2373" height="46" viewBox="0 0 2373 46" fill="none" xmlns="http://www.w3.org/2000/svg">
<g clip-path="url(#clip0_33_22)">
<path d="M1473 33.3188L1481.3 31.3188C1489.7 29.3188 1506.3 25.3188 1523 24.3188C1539.7 23.3188 1556.3 25.3188 1573 25.5188C1589.7 25.6188 1606.3 24.0188 1623 21.3188C1639.7 18.6188 1656.3 15.0188 1673 19.1188C1689.7 23.3188 1706.3 35.3188 1723 40.5188C1739.7 45.6188 1756.3 44.0188 1773 41.1188C1789.7 38.3188 1806.3 34.3188 1823 35.5188C1839.7 36.6188 1856.3 43.0188 1873 45.1188C1889.7 47.3188 1906.3 45.3188 1923 40.0188C1939.7 34.6188 1956.3 26.0188 1973 21.1188C1989.7 16.3188 2006.3 15.3188 2023 17.6188C2039.7 20.0188 2056.3 25.6188 2073 25.8188C2089.7 26.0188 2106.3 20.6188 2123 23.1188C2139.7 25.6188 2156.3 36.0188 2173 38.6188C2189.7 41.3188 2206.3 36.3188 2223 32.8188C2239.7 29.3188 2256.3 27.3188 2273 28.5188C2289.7 29.6188 2306.3 34.0188 2323 32.3188C2339.7 30.6188 2356.3 23.0188 2364.7 19.1188L2373 15.3188V0.318802H2364.7C2356.3 0.318802 2339.7 0.318802 2323 0.318802C2306.3 0.318802 2289.7 0.318802 2273 0.318802C2256.3 0.318802 2239.7 0.318802 2223 0.318802C2206.3 0.318802 2189.7 0.318802 2173 0.318802C2156.3 0.318802 2139.7 0.318802 2123 0.318802C2106.3 0.318802 2089.7 0.318802 2073 0.318802C2056.3 0.318802 2039.7 0.318802 2023 0.318802C2006.3 0.318802 1989.7 0.318802 1973 0.318802C1956.3 0.318802 1939.7 0.318802 1923 0.318802C1906.3 0.318802 1889.7 0.318802 1873 0.318802C1856.3 0.318802 1839.7 0.318802 1823 0.318802C1806.3 0.318802 1789.7 0.318802 1773 0.318802C1756.3 0.318802 1739.7 0.318802 1723 0.318802C1706.3 0.318802 1689.7 0.318802 1673 0.318802C1656.3 0.318802 1639.7 0.318802 1623 0.318802C1606.3 0.318802 1589.7 0.318802 1573 0.318802C1556.3 0.318802 1539.7 0.318802 1523 0.318802C1506.3 0.318802 1489.7 0.318802 1481.3 0.318802H1473V33.3188Z" fill="#814827"/>
<path d="M726 33.3188L734.3 31.3188C742.7 29.3188 759.3 25.3188 776 24.3188C792.7 23.3188 809.3 25.3188 826 25.5188C842.7 25.6188 859.3 24.0188 876 21.3188C892.7 18.6188 909.3 15.0188 926 19.1188C942.7 23.3188 959.3 35.3188 976 40.5188C992.7 45.6188 1009.3 44.0188 1026 41.1188C1042.7 38.3188 1059.3 34.3188 1076 35.5188C1092.7 36.6188 1109.3 43.0188 1126 45.1188C1142.7 47.3188 1159.3 45.3188 1176 40.0188C1192.7 34.6188 1209.3 26.0188 1226 21.1188C1242.7 16.3188 1259.3 15.3188 1276 17.6188C1292.7 20.0188 1309.3 25.6188 1326 25.8188C1342.7 26.0188 1359.3 20.6188 1376 23.1188C1392.7 25.6188 1409.3 36.0188 1426 38.6188C1442.7 41.3188 1459.3 36.3188 1476 32.8188C1492.7 29.3188 1509.3 27.3188 1526 28.5188C1542.7 29.6188 1559.3 34.0188 1576 32.3188C1592.7 30.6188 1609.3 23.0188 1617.7 19.1188L1626 15.3188V0.318802H1617.7C1609.3 0.318802 1592.7 0.318802 1576 0.318802C1559.3 0.318802 1542.7 0.318802 1526 0.318802C1509.3 0.318802 1492.7 0.318802 1476 0.318802C1459.3 0.318802 1442.7 0.318802 1426 0.318802C1409.3 0.318802 1392.7 0.318802 1376 0.318802C1359.3 0.318802 1342.7 0.318802 1326 0.318802C1309.3 0.318802 1292.7 0.318802 1276 0.318802C1259.3 0.318802 1242.7 0.318802 1226 0.318802C1209.3 0.318802 1192.7 0.318802 1176 0.318802C1159.3 0.318802 1142.7 0.318802 1126 0.318802C1109.3 0.318802 1092.7 0.318802 1076 0.318802C1059.3 0.318802 1042.7 0.318802 1026 0.318802C1009.3 0.318802 992.7 0.318802 976 0.318802C959.3 0.318802 942.7 0.318802 926 0.318802C909.3 0.318802 892.7 0.318802 876 0.318802C859.3 0.318802 842.7 0.318802 826 0.318802C809.3 0.318802 792.7 0.318802 776 0.318802C759.3 0.318802 742.7 0.318802 734.3 0.318802H726V33.3188Z" fill="#814827"/>
<path d="M0 33.3188L8.3 31.3188C16.7 29.3188 33.3 25.3188 50 24.3188C66.7 23.3188 83.3 25.3188 100 25.5188C116.7 25.6188 133.3 24.0188 150 21.3188C166.7 18.6188 183.3 15.0188 200 19.1188C216.7 23.3188 233.3 35.3188 250 40.5188C266.7 45.6188 283.3 44.0188 300 41.1188C316.7 38.3188 333.3 34.3188 350 35.5188C366.7 36.6188 383.3 43.0188 400 45.1188C416.7 47.3188 433.3 45.3188 450 40.0188C466.7 34.6188 483.3 26.0188 500 21.1188C516.7 16.3188 533.3 15.3188 550 17.6188C566.7 20.0188 583.3 25.6188 600 25.8188C616.7 26.0188 633.3 20.6188 650 23.1188C666.7 25.6188 683.3 36.0188 700 38.6188C716.7 41.3188 733.3 36.3188 750 32.8188C766.7 29.3188 783.3 27.3188 800 28.5188C816.7 29.6188 833.3 34.0188 850 32.3188C866.7 30.6188 883.3 23.0188 891.7 19.1188L900 15.3188V0.318802H891.7C883.3 0.318802 866.7 0.318802 850 0.318802C833.3 0.318802 816.7 0.318802 800 0.318802C783.3 0.318802 766.7 0.318802 750 0.318802C733.3 0.318802 716.7 0.318802 700 0.318802C683.3 0.318802 666.7 0.318802 650 0.318802C633.3 0.318802 616.7 0.318802 600 0.318802C583.3 0.318802 566.7 0.318802 550 0.318802C533.3 0.318802 516.7 0.318802 500 0.318802C483.3 0.318802 466.7 0.318802 450 0.318802C433.3 0.318802 416.7 0.318802 400 0.318802C383.3 0.318802 366.7 0.318802 350 0.318802C333.3 0.318802 316.7 0.318802 300 0.318802C283.3 0.318802 266.7 0.318802 250 0.318802C233.3 0.318802 216.7 0.318802 200 0.318802C183.3 0.318802 166.7 0.318802 150 0.318802C133.3 0.318802 116.7 0.318802 100 0.318802C83.3 0.318802 66.7 0.318802 50 0.318802C33.3 0.318802 16.7 0.318802 8.3 0.318802H0V33.3188Z" fill="#814827"/>
</g>
<defs>
<clipPath id="clip0_33_22">
<rect width="2373" height="46" fill="white" transform="matrix(1 0 0 -1 0 46)"/>
</clipPath>
</defs>
</svg>
