<svg width="3591" height="46" viewBox="0 0 3591 46" fill="none" xmlns="http://www.w3.org/2000/svg">
<path d="M897 13L904.8 14.6812C913.2 16.6812 929.8 20.6812 946.5 21.6812C963.2 22.6812 979.8 20.6812 996.5 20.4812C1013.2 20.3812 1029.8 21.9812 1046.5 24.6812C1063.2 27.3812 1079.8 30.9812 1096.5 26.8812C1113.2 22.6812 1129.8 10.6812 1146.5 5.48116C1163.2 0.381156 1179.8 1.98118 1196.5 4.88118C1213.2 7.68118 1229.8 11.6812 1246.5 10.4812C1263.2 9.38116 1279.8 2.98118 1296.5 0.88118C1313.2 -1.31882 1329.8 0.681156 1346.5 5.98116C1363.2 11.3812 1379.8 19.9812 1396.5 24.8812C1413.2 29.6812 1429.8 30.6812 1446.5 28.3812C1463.2 25.9812 1479.8 20.3812 1496.5 20.1812C1513.2 19.9812 1529.8 25.3812 1546.5 22.8812C1563.2 20.3812 1579.8 9.98118 1596.5 7.38118C1613.2 4.68118 1629.8 9.68117 1646.5 13.1812C1663.2 16.6812 1679.8 18.6812 1696.5 17.4812C1713.2 16.3812 1729.8 11.9812 1746.5 13.6812C1763.2 15.3812 1769.5 8.5 1785.5 9.5L1796 13.2033V45.6812H1788.2C1779.8 45.6812 1763.2 45.6812 1746.5 45.6812C1729.8 45.6812 1713.2 45.6812 1696.5 45.6812C1679.8 45.6812 1663.2 45.6812 1646.5 45.6812C1629.8 45.6812 1613.2 45.6812 1596.5 45.6812C1579.8 45.6812 1563.2 45.6812 1546.5 45.6812C1529.8 45.6812 1513.2 45.6812 1496.5 45.6812C1479.8 45.6812 1463.2 45.6812 1446.5 45.6812C1429.8 45.6812 1413.2 45.6812 1396.5 45.6812C1379.8 45.6812 1363.2 45.6812 1346.5 45.6812C1329.8 45.6812 1313.2 45.6812 1296.5 45.6812C1279.8 45.6812 1263.2 45.6812 1246.5 45.6812C1229.8 45.6812 1213.2 45.6812 1196.5 45.6812C1179.8 45.6812 1163.2 45.6812 1146.5 45.6812C1129.8 45.6812 1113.2 45.6812 1096.5 45.6812C1079.8 45.6812 1063.2 45.6812 1046.5 45.6812C1029.8 45.6812 1013.2 45.6812 996.5 45.6812C979.8 45.6812 963.2 45.6812 946.5 45.6812C929.8 45.6812 913.2 45.6812 904.8 45.6812H897L897 13Z" fill="#814827"/>
<path d="M0.000197031 13L7.8002 14.6812C16.2002 16.6812 32.8002 20.6812 49.5002 21.6812C66.2002 22.6812 82.8002 20.6812 99.5002 20.4812C116.2 20.3812 132.8 21.9812 149.5 24.6812C166.2 27.3812 182.8 30.9812 199.5 26.8812C216.2 22.6812 232.8 10.6812 249.5 5.48116C266.2 0.381156 282.8 1.98118 299.5 4.88118C316.2 7.68118 332.8 11.6812 349.5 10.4812C366.2 9.38116 382.8 2.98118 399.5 0.88118C416.2 -1.31882 432.8 0.681156 449.5 5.98116C466.2 11.3812 482.8 19.9812 499.5 24.8812C516.2 29.6812 532.8 30.6812 549.5 28.3812C566.2 25.9812 582.8 20.3812 599.5 20.1812C616.2 19.9812 632.8 25.3812 649.5 22.8812C666.2 20.3812 682.8 9.98118 699.5 7.38118C716.2 4.68118 732.8 9.68117 749.5 13.1812C766.2 16.6812 782.8 18.6812 799.5 17.4812C816.2 16.3812 832.8 11.9812 849.5 13.6812C866.2 15.3812 872.5 8.5 888.5 9.5L899 13.5V45.6812H891.2C882.8 45.6812 866.2 45.6812 849.5 45.6812C832.8 45.6812 816.2 45.6812 799.5 45.6812C782.8 45.6812 766.2 45.6812 749.5 45.6812C732.8 45.6812 716.2 45.6812 699.5 45.6812C682.8 45.6812 666.2 45.6812 649.5 45.6812C632.8 45.6812 616.2 45.6812 599.5 45.6812C582.8 45.6812 566.2 45.6812 549.5 45.6812C532.8 45.6812 516.2 45.6812 499.5 45.6812C482.8 45.6812 466.2 45.6812 449.5 45.6812C432.8 45.6812 416.2 45.6812 399.5 45.6812C382.8 45.6812 366.2 45.6812 349.5 45.6812C332.8 45.6812 316.2 45.6812 299.5 45.6812C282.8 45.6812 266.2 45.6812 249.5 45.6812C232.8 45.6812 216.2 45.6812 199.5 45.6812C182.8 45.6812 166.2 45.6812 149.5 45.6812C132.8 45.6812 116.2 45.6812 99.5002 45.6812C82.8002 45.6812 66.2002 45.6812 49.5002 45.6812C32.8002 45.6812 16.2002 45.6812 7.8002 45.6812H0L0.000197031 13Z" fill="#814827"/>
<path d="M2692 13L2699.8 14.6812C2708.2 16.6812 2724.8 20.6812 2741.5 21.6812C2758.2 22.6812 2774.8 20.6812 2791.5 20.4812C2808.2 20.3812 2824.8 21.9812 2841.5 24.6812C2858.2 27.3812 2874.8 30.9812 2891.5 26.8812C2908.2 22.6812 2924.8 10.6812 2941.5 5.48116C2958.2 0.381156 2974.8 1.98118 2991.5 4.88118C3008.2 7.68118 3024.8 11.6812 3041.5 10.4812C3058.2 9.38116 3074.8 2.98118 3091.5 0.88118C3108.2 -1.31882 3124.8 0.681156 3141.5 5.98116C3158.2 11.3812 3174.8 19.9812 3191.5 24.8812C3208.2 29.6812 3224.8 30.6812 3241.5 28.3812C3258.2 25.9812 3274.8 20.3812 3291.5 20.1812C3308.2 19.9812 3324.8 25.3812 3341.5 22.8812C3358.2 20.3812 3374.8 9.98118 3391.5 7.38118C3408.2 4.68118 3424.8 9.68117 3441.5 13.1812C3458.2 16.6812 3474.8 18.6812 3491.5 17.4812C3508.2 16.3812 3524.8 11.9812 3541.5 13.6812C3558.2 15.3812 3564.5 8.5 3580.5 9.5L3591 13V45.6812H3583.2C3574.8 45.6812 3558.2 45.6812 3541.5 45.6812C3524.8 45.6812 3508.2 45.6812 3491.5 45.6812C3474.8 45.6812 3458.2 45.6812 3441.5 45.6812C3424.8 45.6812 3408.2 45.6812 3391.5 45.6812C3374.8 45.6812 3358.2 45.6812 3341.5 45.6812C3324.8 45.6812 3308.2 45.6812 3291.5 45.6812C3274.8 45.6812 3258.2 45.6812 3241.5 45.6812C3224.8 45.6812 3208.2 45.6812 3191.5 45.6812C3174.8 45.6812 3158.2 45.6812 3141.5 45.6812C3124.8 45.6812 3108.2 45.6812 3091.5 45.6812C3074.8 45.6812 3058.2 45.6812 3041.5 45.6812C3024.8 45.6812 3008.2 45.6812 2991.5 45.6812C2974.8 45.6812 2958.2 45.6812 2941.5 45.6812C2924.8 45.6812 2908.2 45.6812 2891.5 45.6812C2874.8 45.6812 2858.2 45.6812 2841.5 45.6812C2824.8 45.6812 2808.2 45.6812 2791.5 45.6812C2774.8 45.6812 2758.2 45.6812 2741.5 45.6812C2724.8 45.6812 2708.2 45.6812 2699.8 45.6812H2692L2692 13Z" fill="#814827"/>
<path d="M1795 13L1802.8 14.6812C1811.2 16.6812 1827.8 20.6812 1844.5 21.6812C1861.2 22.6812 1877.8 20.6812 1894.5 20.4812C1911.2 20.3812 1927.8 21.9812 1944.5 24.6812C1961.2 27.3812 1977.8 30.9812 1994.5 26.8812C2011.2 22.6812 2027.8 10.6812 2044.5 5.48116C2061.2 0.381156 2077.8 1.98118 2094.5 4.88118C2111.2 7.68118 2127.8 11.6812 2144.5 10.4812C2161.2 9.38116 2177.8 2.98118 2194.5 0.88118C2211.2 -1.31882 2227.8 0.681156 2244.5 5.98116C2261.2 11.3812 2277.8 19.9812 2294.5 24.8812C2311.2 29.6812 2327.8 30.6812 2344.5 28.3812C2361.2 25.9812 2377.8 20.3812 2394.5 20.1812C2411.2 19.9812 2427.8 25.3812 2444.5 22.8812C2461.2 20.3812 2477.8 9.98118 2494.5 7.38118C2511.2 4.68118 2527.8 9.68117 2544.5 13.1812C2561.2 16.6812 2577.8 18.6812 2594.5 17.4812C2611.2 16.3812 2627.8 11.9812 2644.5 13.6812C2661.2 15.3812 2667.5 8.5 2683.5 9.5L2694 13.5V45.6812H2686.2C2677.8 45.6812 2661.2 45.6812 2644.5 45.6812C2627.8 45.6812 2611.2 45.6812 2594.5 45.6812C2577.8 45.6812 2561.2 45.6812 2544.5 45.6812C2527.8 45.6812 2511.2 45.6812 2494.5 45.6812C2477.8 45.6812 2461.2 45.6812 2444.5 45.6812C2427.8 45.6812 2411.2 45.6812 2394.5 45.6812C2377.8 45.6812 2361.2 45.6812 2344.5 45.6812C2327.8 45.6812 2311.2 45.6812 2294.5 45.6812C2277.8 45.6812 2261.2 45.6812 2244.5 45.6812C2227.8 45.6812 2211.2 45.6812 2194.5 45.6812C2177.8 45.6812 2161.2 45.6812 2144.5 45.6812C2127.8 45.6812 2111.2 45.6812 2094.5 45.6812C2077.8 45.6812 2061.2 45.6812 2044.5 45.6812C2027.8 45.6812 2011.2 45.6812 1994.5 45.6812C1977.8 45.6812 1961.2 45.6812 1944.5 45.6812C1927.8 45.6812 1911.2 45.6812 1894.5 45.6812C1877.8 45.6812 1861.2 45.6812 1844.5 45.6812C1827.8 45.6812 1811.2 45.6812 1802.8 45.6812H1795L1795 13Z" fill="#814827"/>
</svg>
