<svg width="79" height="73" viewBox="0 0 79 73" fill="none" xmlns="http://www.w3.org/2000/svg">
<mask id="mask0_12_92" style="mask-type:luminance" maskUnits="userSpaceOnUse" x="0" y="51" width="79" height="15">
<path d="M0.145752 51.6513H79V65.4619H0.145752V51.6513Z" fill="white"/>
</mask>
<g mask="url(#mask0_12_92)">
<path d="M71.8146 65.2697H7.33567C6.95891 65.2697 6.6126 65.0617 6.43335 64.7293L0.319848 53.3124C0.149303 52.9948 0.158874 52.6128 0.345081 52.3039C0.531288 51.995 0.863676 51.8071 1.22217 51.8071H77.9281C78.2883 51.8071 78.6207 51.995 78.8052 52.3039C78.9896 52.6128 78.9983 52.9948 78.8295 53.3124L72.7169 64.7293C72.5368 65.0617 72.1905 65.2697 71.8146 65.2697ZM7.94824 63.2231H71.2003L76.2183 53.8527H2.93022L7.94824 63.2231Z" fill="#814827"/>
</g>
<mask id="mask1_12_92" style="mask-type:luminance" maskUnits="userSpaceOnUse" x="15" y="63" width="49" height="10">
<path d="M15.399 63.0117H63.7363V72.0184H15.399V63.0117Z" fill="white"/>
</mask>
<g mask="url(#mask1_12_92)">
<path d="M62.6129 71.9949H16.5363C15.9716 71.9949 15.5139 71.5373 15.5139 70.9725V64.2465C15.5139 63.6818 15.9716 63.2232 16.5363 63.2232H62.6129C63.1777 63.2232 63.6362 63.6818 63.6362 64.2465V70.9725C63.6362 71.5373 63.1777 71.9949 62.6129 71.9949ZM17.5596 69.9493H61.5906V65.2697H17.5596V69.9493Z" fill="#814827"/>
</g>
<path d="M25.2992 53.8528H10.7803C10.5654 53.8528 10.3557 53.7849 10.1817 53.6587C7.40945 51.6592 6.02334 48.6077 6.27916 45.0663C6.27916 45.061 6.27916 45.0541 6.2809 45.0489C6.65331 40.8836 10.2243 35.3678 13.3759 30.4995C14.8281 28.2563 16.1995 26.1375 17.1331 24.3538C17.3089 24.017 17.6587 23.8056 18.0389 23.8056C18.4183 23.8056 18.7681 24.017 18.9438 24.352C19.8784 26.1341 21.2488 28.2528 22.701 30.496C25.8526 35.3635 29.4236 40.8818 29.7969 45.0471C29.7969 45.0523 29.7987 45.0593 29.7987 45.0645C30.0536 48.6059 28.6675 51.6575 25.8953 53.657C25.7212 53.7849 25.5124 53.8528 25.2992 53.8528ZM11.1205 51.8071H24.9581C26.4287 50.6559 28.0018 48.6172 27.76 45.2229C27.4276 41.5623 24.0045 36.2754 20.986 31.6115C19.9193 29.9626 18.8942 28.3807 18.0406 26.9259C17.1862 28.3807 16.162 29.9626 15.0944 31.6115C12.0742 36.2771 8.65286 41.564 8.32048 45.2229C8.07771 48.6172 9.6509 50.6577 11.1205 51.8071Z" fill="#814827"/>
<path d="M46.8332 53.8528H32.3142C32.0993 53.8528 31.8896 53.7849 31.7165 53.6587C28.9442 51.6592 27.5573 48.6077 27.8131 45.0663C27.8131 45.061 27.8131 45.0541 27.8148 45.0489C28.1881 40.8836 31.7582 35.3678 34.9107 30.4995C36.3629 28.2563 37.7334 26.1375 38.6679 24.3538C38.8437 24.017 39.1935 23.8056 39.5728 23.8056C39.9531 23.8056 40.3029 24.017 40.4786 24.352C41.4123 26.1341 42.7836 28.2528 44.2358 30.496C47.3874 35.3635 50.9584 40.8818 51.3308 45.0471C51.3308 45.0523 51.3326 45.0593 51.3326 45.0645C51.5884 48.6059 50.2014 51.6575 47.4301 53.657C47.2578 53.7849 47.0481 53.8528 46.8332 53.8528ZM32.6571 51.8071H46.4947C47.9643 50.6559 49.5375 48.6172 49.2965 45.2229C48.9641 41.5623 45.541 36.2754 42.5226 31.6115C41.4549 29.9626 40.4308 28.3807 39.5763 26.9259C38.7227 28.3807 37.6977 29.9626 36.6309 31.6115C33.6107 36.2771 30.1894 41.5623 29.857 45.2229C29.6116 48.6172 31.1848 50.6577 32.6571 51.8071Z" fill="#814827"/>
<path d="M68.3697 53.8528H53.8507C53.6358 53.8528 53.4261 53.7849 53.2521 53.6588C50.4807 51.6592 49.0938 48.6077 49.3496 45.0663C49.3496 45.0611 49.3496 45.0541 49.3513 45.0489C49.7237 40.8836 53.2947 35.3661 56.4463 30.4978C57.8994 28.2546 59.2699 26.1358 60.2035 24.3538C60.381 24.0171 60.7291 23.8074 61.1093 23.8074C61.4896 23.8074 61.8394 24.0188 62.0151 24.3556C62.9488 26.1376 64.3192 28.2563 65.7723 30.4995C68.9239 35.3679 72.4941 40.8853 72.8673 45.0489C72.8673 45.0541 72.8691 45.0611 72.8691 45.0663C73.1249 48.6077 71.7379 51.6592 68.9666 53.6588C68.7943 53.7849 68.5846 53.8528 68.3697 53.8528ZM54.1918 51.8071H68.0286C69.4991 50.656 71.0723 48.6173 70.8304 45.2229C70.4989 41.5623 67.0749 36.2754 64.0564 31.6115C62.9897 29.9626 61.9655 28.3808 61.1111 26.9259C60.2566 28.3808 59.2325 29.9626 58.1657 31.6115C55.1455 36.2771 51.7233 41.564 51.3918 45.2229C51.1481 48.6173 52.7213 50.6577 54.1918 51.8071Z" fill="#814827"/>
<path d="M55.7277 34.5342C55.3883 34.5342 55.0585 34.3671 54.8628 34.06C54.3407 33.2377 53.8064 32.412 53.2896 31.6149C52.2228 29.9643 51.196 28.3824 50.3425 26.9276C49.4862 28.3824 48.4621 29.9643 47.3945 31.6149C46.8776 32.412 46.3434 33.2377 45.8213 34.06C45.5176 34.5377 44.8859 34.6786 44.4099 34.375C43.9322 34.0713 43.7921 33.4387 44.0958 32.9627C44.6231 32.1318 45.1591 31.3034 45.6794 30.5012C47.1317 28.2562 48.5047 26.1375 49.4384 24.3555C49.6159 24.0187 49.9639 23.809 50.3442 23.809C50.7236 23.809 51.0734 24.0205 51.2491 24.3572C52.1836 26.141 53.5558 28.2597 55.0081 30.5046C55.5267 31.3052 56.0635 32.1353 56.5908 32.9645C56.8945 33.4422 56.7518 34.073 56.2758 34.3767C56.1053 34.4829 55.9156 34.5342 55.7277 34.5342Z" fill="#814827"/>
<path d="M34.1912 34.5342C33.8518 34.5342 33.522 34.3671 33.3263 34.06C32.8042 33.236 32.2699 32.412 31.7531 31.6132C30.6863 29.9643 29.6622 28.3824 28.806 26.9276C27.9515 28.3824 26.9273 29.9643 25.8606 31.6132C25.3437 32.412 24.8086 33.2377 24.2856 34.06C23.982 34.5359 23.3494 34.6786 22.8734 34.375C22.3957 34.0713 22.2556 33.4404 22.5593 32.9627C23.0866 32.1318 23.6244 31.3017 24.1429 30.4994C25.5952 28.2562 26.9665 26.1375 27.9001 24.3555C28.0759 24.0187 28.4257 23.809 28.806 23.809C29.1862 23.809 29.536 24.0205 29.7118 24.3572C30.6454 26.1392 32.0158 28.258 33.469 30.5029C33.9867 31.3052 34.5253 32.1353 35.0526 32.9645C35.3563 33.4422 35.2144 34.073 34.7385 34.3767C34.5697 34.4829 34.3791 34.5342 34.1912 34.5342Z" fill="#814827"/>
<path d="M25.5778 22.1533C25.2437 22.1533 24.9156 21.9906 24.7198 21.6887C22.6516 18.511 23.4094 15.7614 24.0794 13.3372C24.7146 11.0375 25.2637 9.05183 23.6974 6.6468C23.3886 6.17258 23.5234 5.54 23.9959 5.23111C24.4701 4.92221 25.1018 5.05708 25.4107 5.52956C27.4799 8.70726 26.7211 11.456 26.052 13.881C25.4159 16.1808 24.8678 18.1664 26.434 20.5714C26.7429 21.0456 26.608 21.6773 26.1355 21.9862C25.9633 22.1002 25.7692 22.1533 25.5778 22.1533Z" fill="#814827"/>
<path d="M40.088 17.0882C39.7539 17.0882 39.4259 16.9247 39.2301 16.6227C37.1618 13.4459 37.9197 10.6963 38.5897 8.27213C39.2249 5.97152 39.7739 3.98589 38.2077 1.58174C37.8988 1.10752 38.0337 0.474936 38.5062 0.166042C38.9804 -0.142853 39.6138 -0.00798323 39.921 0.464495C41.9901 3.64132 41.2314 6.39092 40.5623 8.81509C39.9262 11.1157 39.378 13.1013 40.9442 15.5055C41.2531 15.9797 41.1183 16.6123 40.6458 16.9212C40.4718 17.0334 40.2777 17.0882 40.088 17.0882Z" fill="#814827"/>
<path d="M54.5963 22.1533C54.2622 22.1533 53.9342 21.9906 53.7384 21.6887C51.6701 18.511 52.428 15.7614 53.098 13.3372C53.7332 11.0375 54.2822 9.05183 52.716 6.6468C52.4071 6.17258 52.542 5.54 53.0145 5.23111C53.4887 4.92221 54.1204 5.05708 54.4293 5.52956C56.4976 8.70726 55.7397 11.456 55.0706 13.881C54.4345 16.1808 53.8863 18.1664 55.4525 20.5714C55.7614 21.0456 55.6266 21.6773 55.1541 21.9862C54.9818 22.1002 54.7878 22.1533 54.5963 22.1533Z" fill="#814827"/>
<path fill-rule="evenodd" clip-rule="evenodd" d="M39.1203 38.9692C39.6833 38.9692 40.1427 38.509 40.1427 37.946C40.1427 37.383 39.6833 36.9236 39.1203 36.9236C38.5573 36.9236 38.0979 37.383 38.0979 37.946C38.0979 38.509 38.5573 38.9692 39.1203 38.9692Z" fill="#814827"/>
<path fill-rule="evenodd" clip-rule="evenodd" d="M36.9243 47.1606C37.4872 47.1606 37.9467 46.7003 37.9467 46.1373C37.9467 45.5744 37.4872 45.1141 36.9243 45.1141C36.3613 45.1141 35.901 45.5744 35.901 46.1373C35.901 46.7021 36.3596 47.1606 36.9243 47.1606Z" fill="#814827"/>
<path fill-rule="evenodd" clip-rule="evenodd" d="M42.2259 45.0967C42.7889 45.0967 43.2483 44.6364 43.2483 44.0734C43.2483 43.5105 42.7889 43.051 42.2259 43.051C41.6629 43.051 41.2035 43.5105 41.2035 44.0734C41.2035 44.6364 41.6629 45.0967 42.2259 45.0967Z" fill="#814827"/>
<path fill-rule="evenodd" clip-rule="evenodd" d="M60.6568 39.7689C61.2189 39.7689 61.6792 39.3087 61.6792 38.7457C61.6792 38.1827 61.2189 37.7224 60.6568 37.7224C60.0938 37.7224 59.6335 38.1827 59.6335 38.7457C59.6335 39.3087 60.0938 39.7689 60.6568 39.7689Z" fill="#814827"/>
<path fill-rule="evenodd" clip-rule="evenodd" d="M58.4599 47.9594C59.0229 47.9594 59.4832 47.5 59.4832 46.937C59.4832 46.3741 59.0229 45.9138 58.4599 45.9138C57.8969 45.9138 57.4375 46.3741 57.4375 46.937C57.4375 47.5017 57.8952 47.9594 58.4599 47.9594Z" fill="#814827"/>
<path fill-rule="evenodd" clip-rule="evenodd" d="M63.7624 45.8964C64.3254 45.8964 64.7848 45.4361 64.7848 44.8731C64.7848 44.3102 64.3254 43.8499 63.7624 43.8499C63.1994 43.8499 62.7391 44.3102 62.7391 44.8731C62.7391 45.4361 63.1994 45.8964 63.7624 45.8964Z" fill="#814827"/>
<path fill-rule="evenodd" clip-rule="evenodd" d="M17.584 39.9021C18.147 39.9021 18.6073 39.4418 18.6073 38.8788C18.6073 38.3158 18.147 37.8555 17.584 37.8555C17.0211 37.8555 16.5616 38.3158 16.5616 38.8788C16.5616 39.4418 17.0211 39.9021 17.584 39.9021Z" fill="#814827"/>
<path fill-rule="evenodd" clip-rule="evenodd" d="M15.3878 48.0925C15.9507 48.0925 16.4102 47.6331 16.4102 47.0701C16.4102 46.5072 15.9507 46.0469 15.3878 46.0469C14.8248 46.0469 14.3654 46.5072 14.3654 47.0701C14.3654 47.6349 14.8248 48.0925 15.3878 48.0925Z" fill="#814827"/>
<path fill-rule="evenodd" clip-rule="evenodd" d="M20.6894 46.0294C21.2524 46.0294 21.7127 45.5691 21.7127 45.0062C21.7127 44.4432 21.2524 43.9829 20.6894 43.9829C20.1264 43.9829 19.667 44.4432 19.667 45.0062C19.667 45.5691 20.1264 46.0294 20.6894 46.0294Z" fill="#814827"/>
</svg>
