<svg width="62" height="64" viewBox="0 0 62 64" fill="none" xmlns="http://www.w3.org/2000/svg">
<mask id="mask0_11_35" style="mask-type:luminance" maskUnits="userSpaceOnUse" x="0" y="0" width="62" height="64">
<path d="M0 0H62V63.5681H0V0Z" fill="white"/>
</mask>
<g mask="url(#mask0_11_35)">
<path d="M30.9785 0.0819702C15.4424 0.0819702 2.81649 12.7156 2.81649 28.2616C2.81649 28.6509 2.83105 29.0356 2.84638 29.4204C2.04241 29.8381 1.26527 30.3585 0.538703 31.0245C0.432171 31.1226 0.3425 31.2345 0.270457 31.3602C0.198414 31.4859 0.147064 31.62 0.115641 31.761C0.0849845 31.9028 0.0757875 32.0461 0.0888166 32.1902C0.101846 32.3343 0.136334 32.4738 0.192283 32.6071L12.783 62.5679C12.8366 62.6959 12.9079 62.8131 12.996 62.9204C13.0842 63.027 13.1861 63.1189 13.3018 63.1963C13.4168 63.273 13.541 63.3312 13.6743 63.3719C13.8069 63.4117 13.9426 63.4316 14.0813 63.4324H22.1225C22.4207 63.532 22.7188 63.532 23.0169 63.4324H30.5278C30.8282 63.5336 31.1287 63.5336 31.4299 63.4324H39.012C39.3102 63.532 39.6075 63.532 39.9057 63.4324H47.8756C48.0144 63.4324 48.15 63.4125 48.2826 63.3726C48.4152 63.3328 48.5386 63.2745 48.6543 63.1986C48.77 63.122 48.872 63.0308 48.9601 62.9243C49.049 62.8177 49.1203 62.7012 49.1739 62.5733L61.8474 32.6102C61.8796 32.5328 61.9057 32.4523 61.9241 32.3703C61.9424 32.2883 61.9532 32.2055 61.957 32.1212C61.9601 32.0377 61.9562 31.9534 61.9447 31.8706C61.9332 31.7871 61.9149 31.7051 61.8888 31.6254C61.8627 31.5457 61.8298 31.4682 61.7899 31.3939C61.7501 31.3203 61.7041 31.2498 61.6512 31.1847C61.5991 31.1188 61.5416 31.0582 61.478 31.0023C61.4152 30.9471 61.3469 30.8973 61.2749 30.8543L61.2396 30.8321C60.5652 30.242 59.8501 29.766 59.1105 29.3844C59.1251 29.0119 59.1412 28.6386 59.1412 28.2616C59.1412 12.7156 46.5153 0.0819702 30.9785 0.0819702ZM30.9785 2.90008C44.9931 2.90008 56.3246 14.2384 56.3246 28.2616C56.3246 28.3114 56.3223 28.3612 56.3223 28.4102C55.3766 28.2255 54.4208 28.1627 53.4781 28.2179C50.7581 28.3781 48.1309 29.4005 45.8515 30.7854L46.4018 30.4466L45.2852 29.8802C45.2844 29.8802 45.2836 29.8802 45.2829 29.8802C40.7449 27.5787 35.3409 27.7872 30.9869 30.4167L31.0168 30.4359C31.0053 30.429 30.9907 30.4267 30.9785 30.4198C30.9662 30.4267 30.9524 30.4282 30.9401 30.4359L30.97 30.4167C26.616 27.7872 21.2113 27.5802 16.6718 29.8825L15.5497 30.4527L16.1575 30.8183C13.8659 29.4242 11.2241 28.3919 8.48721 28.2347C7.54221 28.1803 6.58496 28.247 5.63767 28.4355C5.63767 28.3773 5.63231 28.3198 5.63231 28.2616C5.63231 14.2384 16.9645 2.90008 30.9785 2.90008ZM36.8255 7.1238C36.7212 7.12763 36.6185 7.14296 36.5181 7.16902C36.417 7.19585 36.3204 7.23263 36.2276 7.28092C36.1349 7.3292 36.0483 7.38668 35.9686 7.45413C35.8889 7.52081 35.8176 7.59592 35.754 7.67945C35.6912 7.76223 35.6375 7.85113 35.5946 7.94617C35.5509 8.0412 35.5187 8.14007 35.4973 8.242C35.4758 8.34394 35.4651 8.4474 35.4666 8.55164C35.4681 8.65587 35.4812 8.75934 35.5057 8.8605L36.3771 12.7493C36.3955 12.8413 36.4231 12.9309 36.4591 13.0175C36.4951 13.1041 36.5396 13.1862 36.5925 13.2643C36.6453 13.3417 36.7051 13.4138 36.7718 13.4797C36.8385 13.5456 36.9121 13.6039 36.9902 13.6552C37.0692 13.7066 37.1519 13.7495 37.2393 13.784C37.3267 13.8184 37.4164 13.8445 37.5091 13.8606C37.6011 13.8775 37.6946 13.8851 37.7881 13.8828C37.8823 13.8805 37.9751 13.8698 38.0663 13.8491C38.1582 13.8284 38.2472 13.7993 38.3322 13.761C38.4181 13.7226 38.4993 13.6759 38.5759 13.6215C38.6526 13.5671 38.7223 13.505 38.7867 13.4368C38.8511 13.3678 38.9078 13.2935 38.9569 13.2137C39.0059 13.134 39.0473 13.0497 39.0795 12.9616C39.1124 12.8735 39.1354 12.783 39.15 12.6903C39.1646 12.5975 39.1692 12.504 39.1653 12.4098C39.1607 12.3163 39.1477 12.2235 39.1247 12.1323L38.2533 8.2443C38.2364 8.16383 38.2127 8.08489 38.182 8.00825C38.1514 7.93161 38.1138 7.8588 38.0709 7.78905C38.0272 7.71854 37.9781 7.6534 37.923 7.59208C37.8678 7.53077 37.808 7.47405 37.7436 7.42347C37.6785 7.37289 37.6103 7.32767 37.5375 7.28935C37.4646 7.25026 37.3895 7.21807 37.3106 7.19278C37.2324 7.16672 37.1527 7.14833 37.0715 7.13683C36.9895 7.12534 36.9082 7.1215 36.8255 7.1238ZM29.5483 7.58365C29.4686 7.58135 29.3889 7.58595 29.3092 7.59745L25.3599 8.12014C25.2664 8.13011 25.1752 8.14927 25.0855 8.17763C24.9958 8.20598 24.91 8.24354 24.828 8.28876C24.746 8.33397 24.6693 8.38762 24.5973 8.44817C24.526 8.50948 24.4616 8.57693 24.4034 8.6505C24.3451 8.72408 24.2953 8.80302 24.2532 8.88733C24.211 8.97087 24.1773 9.05824 24.1528 9.14867C24.1275 9.23988 24.1121 9.33185 24.1052 9.42535C24.0991 9.51885 24.1022 9.61236 24.1144 9.70586C24.1267 9.7986 24.1482 9.8898 24.1788 9.9787C24.2087 10.0676 24.2478 10.1527 24.2953 10.2339C24.3428 10.3144 24.398 10.3903 24.4609 10.46C24.5229 10.5305 24.5919 10.5934 24.667 10.6501C24.7421 10.706 24.8226 10.7543 24.9069 10.7949C24.992 10.8348 25.0801 10.8662 25.1713 10.8892C25.2625 10.9114 25.3545 10.9252 25.4488 10.9291C25.5423 10.9329 25.6358 10.9283 25.7285 10.9137L29.6779 10.3933C29.766 10.3834 29.8526 10.3657 29.9377 10.3397C30.022 10.3136 30.104 10.2799 30.1822 10.2385C30.2611 10.1971 30.3347 10.1488 30.4036 10.0937C30.4734 10.0377 30.537 9.9764 30.5945 9.90896C30.652 9.84151 30.7033 9.76947 30.747 9.69206C30.7915 9.61466 30.8275 9.53418 30.8566 9.45064C30.8857 9.36634 30.9064 9.2805 30.9187 9.19236C30.9309 9.10499 30.9355 9.01685 30.9317 8.92795C30.9271 8.83904 30.9148 8.75167 30.8942 8.66507C30.8735 8.57846 30.8451 8.49492 30.8091 8.41445C30.7723 8.33321 30.7286 8.25657 30.678 8.18376C30.6267 8.11095 30.5692 8.0435 30.5056 7.98142C30.442 7.92011 30.373 7.86416 30.2994 7.81588C30.2251 7.76683 30.1469 7.72544 30.0649 7.69095C29.9829 7.65723 29.8986 7.63117 29.812 7.61278C29.7246 7.59515 29.6372 7.58519 29.5483 7.58365ZM18.2751 12.2427C18.1234 12.2427 17.9754 12.2665 17.8314 12.314C17.6873 12.3623 17.5547 12.4312 17.4328 12.5217C17.311 12.6129 17.2067 12.7202 17.1201 12.8451C17.0327 12.9693 16.9676 13.1041 16.9247 13.2498C16.881 13.3954 16.8618 13.5441 16.8664 13.6958C16.8718 13.8476 16.9002 13.9947 16.9523 14.1373C17.0044 14.2798 17.078 14.4109 17.1722 14.5297C17.2673 14.6485 17.3776 14.7496 17.5049 14.8324L20.8165 17.0474C20.8932 17.1018 20.9744 17.1485 21.0603 17.1868C21.1469 17.2252 21.2358 17.2543 21.3277 17.2742C21.4197 17.2949 21.5125 17.3056 21.6067 17.3072C21.701 17.3095 21.7937 17.3018 21.8865 17.2842C21.9792 17.2673 22.0689 17.2413 22.1562 17.206C22.2436 17.1715 22.3272 17.1278 22.4053 17.0757C22.4843 17.0244 22.5571 16.9654 22.6238 16.8987C22.6904 16.8328 22.7502 16.76 22.8023 16.6818C22.8544 16.6036 22.8989 16.5208 22.9342 16.4335C22.9702 16.3469 22.997 16.2564 23.0146 16.1644C23.0323 16.0717 23.0407 15.9782 23.0399 15.8839C23.0392 15.7904 23.0284 15.6969 23.0093 15.605C22.9893 15.513 22.961 15.4233 22.9234 15.3367C22.8859 15.2509 22.8399 15.1689 22.7862 15.0915C22.7326 15.0141 22.6713 14.9435 22.6031 14.8784C22.5349 14.8133 22.4613 14.7558 22.3816 14.706L19.0699 12.4902C18.8308 12.3255 18.5656 12.2435 18.2751 12.2427ZM27.5051 13.7564C27.3525 13.7556 27.2039 13.7786 27.0598 13.8261C26.9149 13.8736 26.7808 13.9426 26.6589 14.033C26.5363 14.1235 26.4313 14.2315 26.3439 14.3565C26.2566 14.4814 26.1914 14.6163 26.1477 14.7627C26.1041 14.9083 26.0849 15.0577 26.0895 15.2103C26.0941 15.3628 26.1232 15.5099 26.1761 15.6532C26.2282 15.7958 26.3026 15.9269 26.3976 16.0457C26.4926 16.1652 26.6045 16.2656 26.7325 16.3484L30.0465 18.5641C30.1231 18.6185 30.2044 18.6645 30.2902 18.7028C30.3768 18.7411 30.4657 18.7703 30.5577 18.791C30.6489 18.8109 30.7424 18.8224 30.8367 18.8239C30.9302 18.8254 31.0237 18.8178 31.1164 18.8009C31.2092 18.7841 31.2988 18.758 31.3862 18.7227C31.4736 18.6875 31.5563 18.6438 31.6353 18.5925C31.7142 18.5403 31.7863 18.4813 31.8537 18.4154C31.9204 18.3487 31.9802 18.2767 32.0323 18.1985C32.0844 18.1196 32.1289 18.0368 32.1641 17.9502C32.2001 17.8628 32.227 17.7732 32.2446 17.6804C32.2622 17.5885 32.2706 17.4949 32.2699 17.4007C32.2683 17.3064 32.2584 17.2129 32.2384 17.1209C32.2193 17.029 32.1909 16.9401 32.1534 16.8535C32.1158 16.7669 32.0698 16.6848 32.0162 16.6082C31.9618 16.5308 31.9012 16.4595 31.833 16.3944C31.7648 16.33 31.6905 16.2725 31.6108 16.2219L28.2968 14.007C28.0592 13.8414 27.7948 13.7579 27.5051 13.7564ZM43.7753 13.9518C43.4488 13.9457 43.1553 14.0422 42.8955 14.2407L39.6995 16.6182C39.6221 16.6718 39.5508 16.7331 39.4857 16.8013C39.4205 16.8696 39.3631 16.9439 39.3125 17.0236C39.2619 17.1033 39.2205 17.1868 39.1868 17.2758C39.1531 17.3639 39.1293 17.4543 39.114 17.5471C39.0986 17.6406 39.0925 17.7341 39.0963 17.8283C39.0994 17.9226 39.1124 18.0161 39.1347 18.1073C39.1569 18.1993 39.1883 18.2882 39.2282 18.3733C39.268 18.4583 39.3163 18.5396 39.3723 18.6154C39.429 18.6906 39.4918 18.7603 39.5623 18.8231C39.6321 18.8868 39.7079 18.9419 39.7892 18.9895C39.8704 19.0377 39.9555 19.0768 40.0452 19.1075C40.1341 19.1381 40.2253 19.1596 40.3188 19.1726C40.4123 19.1849 40.5058 19.188 40.6001 19.1811C40.6943 19.1749 40.7863 19.1588 40.8775 19.1335C40.9687 19.109 41.0561 19.0745 41.1404 19.0324C41.2239 18.9895 41.3036 18.9389 41.3772 18.8806L44.5755 16.5024C44.6958 16.4158 44.7992 16.3131 44.8866 16.1936C44.974 16.0748 45.0407 15.9445 45.0874 15.8042C45.1342 15.664 45.1579 15.5199 45.1595 15.372C45.1602 15.2241 45.1388 15.08 45.0943 14.9382C45.0499 14.7972 44.9855 14.6669 44.8996 14.5458C44.8146 14.4255 44.7126 14.3205 44.5938 14.2323C44.4758 14.1434 44.3471 14.0752 44.2068 14.0277C44.0673 13.9794 43.9232 13.9541 43.7753 13.9518ZM48.4811 19.1995C48.3547 19.1987 48.2305 19.214 48.1086 19.247C47.9868 19.2792 47.871 19.3267 47.7622 19.3903C47.6534 19.4539 47.5545 19.5305 47.4656 19.6202C47.3775 19.7107 47.3024 19.8103 47.241 19.9207L45.2499 23.3718C45.1985 23.4515 45.1564 23.5366 45.1234 23.6247C45.0897 23.7136 45.0652 23.8049 45.0499 23.8984C45.0345 23.9919 45.0292 24.0861 45.033 24.1812C45.0368 24.2762 45.0499 24.3697 45.0729 24.4617C45.0951 24.5536 45.1273 24.6425 45.1679 24.7284C45.2085 24.8142 45.2568 24.8947 45.3143 24.9706C45.371 25.0464 45.4346 25.1162 45.5059 25.179C45.5764 25.2419 45.653 25.2971 45.735 25.3446C45.8178 25.3921 45.9037 25.4312 45.9933 25.4611C46.083 25.491 46.175 25.5117 46.2692 25.5232C46.3635 25.5347 46.4578 25.537 46.552 25.5293C46.6471 25.5216 46.7398 25.5048 46.831 25.4779C46.9222 25.4519 47.0096 25.4166 47.0931 25.3729C47.1774 25.3285 47.2564 25.2764 47.33 25.2166C47.4035 25.1568 47.4702 25.0901 47.53 25.0166C47.5898 24.943 47.6419 24.8648 47.6863 24.7805L49.6775 21.3293C49.7411 21.2236 49.7894 21.1101 49.8231 20.9913C49.8561 20.8718 49.8737 20.7499 49.8752 20.6265C49.8768 20.5024 49.863 20.3805 49.8323 20.2602C49.8016 20.1406 49.7557 20.0264 49.6951 19.9184C49.6346 19.8103 49.561 19.7122 49.4744 19.6233C49.3878 19.5351 49.2912 19.4593 49.1847 19.3957C49.0781 19.3328 48.9647 19.2845 48.8459 19.2516C48.7264 19.2179 48.6045 19.201 48.4811 19.1995ZM35.0681 19.4171C35.0075 19.4156 34.947 19.4187 34.8864 19.4248C34.8259 19.4317 34.7661 19.4416 34.7071 19.4562C34.6481 19.4708 34.5898 19.4884 34.5331 19.5106C34.4764 19.5321 34.4212 19.5574 34.3676 19.5865C34.3147 19.6156 34.2633 19.6478 34.2135 19.6831C34.1645 19.7191 34.1177 19.7574 34.0732 19.7988C34.0288 19.8409 33.9874 19.8854 33.9491 19.9322C33.91 19.9789 33.8747 20.0287 33.8426 20.0801C33.8104 20.1314 33.782 20.1851 33.7567 20.2403C33.7314 20.2962 33.71 20.3529 33.6916 20.4104C33.6739 20.4686 33.6602 20.5277 33.6494 20.5882C33.6395 20.648 33.6333 20.7085 33.6303 20.7691C33.628 20.8296 33.6295 20.8902 33.6349 20.9507C33.6402 21.0113 33.6494 21.0718 33.6624 21.1308C33.6762 21.1906 33.6931 21.2489 33.7138 21.3056C33.7345 21.3631 33.759 21.419 33.7866 21.4726L35.5685 25.0395C35.6099 25.1223 35.659 25.1997 35.7157 25.2733C35.7724 25.3461 35.836 25.4128 35.9058 25.4733C35.9755 25.5347 36.0506 25.5875 36.1311 25.6335C36.2116 25.6795 36.2951 25.7171 36.3832 25.7462C36.4706 25.7753 36.5603 25.796 36.6522 25.8075C36.7442 25.819 36.8362 25.8213 36.9281 25.8144C37.0201 25.8083 37.1113 25.7929 37.2002 25.7684C37.2891 25.7439 37.3757 25.7109 37.4577 25.6695C37.5405 25.6282 37.6187 25.5791 37.6915 25.5224C37.7651 25.4657 37.8318 25.4021 37.8923 25.3323C37.9528 25.2626 38.0057 25.1875 38.0517 25.107C38.0977 25.0265 38.1353 24.9422 38.1644 24.8548C38.1935 24.7667 38.2142 24.677 38.2257 24.5851C38.2372 24.4939 38.2395 24.4019 38.2334 24.3092C38.2265 24.2172 38.2111 24.126 38.1866 24.0371C38.1621 23.9474 38.1291 23.8616 38.0877 23.7788L36.3058 20.2127C36.2491 20.0954 36.1778 19.9881 36.092 19.8915C36.0062 19.7942 35.908 19.7107 35.7992 19.6401C35.6896 19.5704 35.5731 19.516 35.449 19.4784C35.3248 19.4401 35.1976 19.4202 35.0681 19.4171ZM15.4616 19.7942C15.2792 19.7996 15.1037 19.8394 14.9358 19.913C14.7688 19.9866 14.6208 20.0893 14.4936 20.2203L11.677 23.0384C11.6096 23.1036 11.549 23.1749 11.4962 23.2515C11.4425 23.3289 11.3973 23.4101 11.3597 23.496C11.3229 23.5818 11.2946 23.6707 11.2754 23.7627C11.2555 23.8547 11.2455 23.9474 11.2448 24.0409C11.2432 24.1344 11.2517 24.2271 11.2693 24.3199C11.2869 24.4119 11.3137 24.5008 11.349 24.5881C11.3843 24.6747 11.4279 24.7567 11.4801 24.8349C11.5314 24.9131 11.5904 24.9851 11.6571 25.0518C11.723 25.1177 11.7951 25.1767 11.8732 25.2289C11.9514 25.281 12.0334 25.3247 12.1208 25.3599C12.2074 25.3952 12.2963 25.422 12.3883 25.4396C12.4802 25.4565 12.5737 25.4649 12.6672 25.4641C12.7607 25.4634 12.8535 25.4534 12.9447 25.4335C13.0367 25.4143 13.1256 25.386 13.2114 25.3484C13.2972 25.3116 13.3792 25.2664 13.4559 25.2128C13.5325 25.1591 13.6038 25.0986 13.6689 25.0311L16.4848 22.213C16.5867 22.1141 16.6718 22.0022 16.7392 21.8781C16.8074 21.7532 16.8557 21.6213 16.8833 21.4818C16.9117 21.3431 16.9186 21.2029 16.9048 21.0611C16.8902 20.9201 16.8557 20.7844 16.8005 20.6533C16.7446 20.5231 16.6718 20.4027 16.5798 20.2947C16.4886 20.1858 16.3828 20.0931 16.264 20.0165C16.1445 19.9398 16.0165 19.8823 15.8793 19.8448C15.7429 19.8065 15.6034 19.7896 15.4616 19.7942ZM25.9676 20.953C25.8872 20.9515 25.8074 20.9568 25.7285 20.9691L21.7792 21.4895C21.6857 21.4995 21.5945 21.5186 21.5048 21.547C21.4151 21.5753 21.3293 21.6121 21.2473 21.6581C21.1653 21.7033 21.0886 21.7562 21.0166 21.8175C20.9453 21.8781 20.8809 21.9455 20.8227 22.0199C20.7644 22.0934 20.7146 22.1724 20.6725 22.2559C20.6295 22.3402 20.5966 22.4276 20.5713 22.518C20.5468 22.6085 20.5314 22.7004 20.5245 22.7947C20.5184 22.8882 20.5215 22.9817 20.5337 23.0745C20.546 23.168 20.5675 23.2592 20.5981 23.3481C20.628 23.437 20.6671 23.5213 20.7146 23.6025C20.7621 23.6838 20.8173 23.7596 20.8794 23.8294C20.9422 23.8991 21.0112 23.9627 21.0863 24.0187C21.1614 24.0754 21.2419 24.1237 21.3262 24.1635C21.4113 24.2042 21.4994 24.2356 21.5906 24.2578C21.6818 24.2808 21.7738 24.2938 21.8681 24.2984C21.9616 24.3023 22.0551 24.2969 22.1478 24.2823L26.0972 23.7627C26.1853 23.7527 26.2719 23.7351 26.3562 23.7091C26.4413 23.683 26.5233 23.6493 26.6015 23.6079C26.6796 23.5665 26.754 23.5174 26.823 23.4623C26.8927 23.4071 26.9563 23.3458 27.0138 23.2783C27.0713 23.2109 27.1226 23.1381 27.1663 23.0614C27.2108 22.984 27.2468 22.9035 27.2759 22.8192C27.3043 22.7357 27.325 22.6499 27.338 22.5617C27.3502 22.4736 27.3548 22.3854 27.351 22.2965C27.3464 22.2084 27.3342 22.1203 27.3135 22.0344C27.2928 21.9478 27.2644 21.8643 27.2284 21.783C27.1916 21.7026 27.1479 21.6252 27.0973 21.5524C27.046 21.4803 26.9885 21.4129 26.9249 21.3508C26.8613 21.2887 26.7923 21.2335 26.7187 21.1845C26.6444 21.1362 26.5662 21.094 26.4842 21.0603C26.4022 21.0266 26.3179 21.0005 26.2313 20.9821C26.1439 20.9637 26.0565 20.9538 25.9676 20.953ZM53.6429 31.0306C55.7598 30.9057 57.7241 31.433 59.5014 33.0448C59.5681 33.1061 59.6409 33.1597 59.7183 33.2072L58.7748 32.6378L46.9437 60.6143H41.2538L46.4325 38.4472C46.4532 38.3568 46.4654 38.2656 46.4685 38.1729C46.4716 38.0801 46.4654 37.9882 46.4509 37.8969C46.4355 37.8057 46.4118 37.7161 46.3796 37.6295C46.3474 37.5429 46.3068 37.4601 46.2577 37.3819C46.2087 37.303 46.1527 37.2294 46.0899 37.162C46.0263 37.0945 45.9573 37.0332 45.8822 36.9795C45.8071 36.9251 45.7274 36.8791 45.6431 36.8408C45.5588 36.8025 45.4714 36.7726 45.3817 36.7519C45.2913 36.7305 45.2001 36.7182 45.1073 36.7151C45.0154 36.7121 44.9234 36.7182 44.8322 36.7328C44.7402 36.7481 44.6513 36.7718 44.5647 36.804C44.4781 36.837 44.3953 36.8776 44.3172 36.9259C44.2382 36.9749 44.1654 37.0309 44.0972 37.0945C44.0298 37.1574 43.9692 37.2271 43.9148 37.3022C43.8612 37.3773 43.8152 37.457 43.7768 37.5413C43.7385 37.6256 43.7086 37.713 43.6872 37.8027L38.3598 60.6143H32.3864V38.1246C32.3879 38.0318 32.3802 37.9391 32.3634 37.8471C32.3457 37.7552 32.3197 37.6663 32.2852 37.5797C32.2507 37.493 32.2078 37.4103 32.1564 37.3329C32.1051 37.2547 32.0468 37.1819 31.9817 37.116C31.9158 37.0493 31.8445 36.9895 31.7671 36.9374C31.6897 36.8853 31.6085 36.8408 31.5218 36.8048C31.436 36.7688 31.3471 36.742 31.2559 36.7236C31.1639 36.7052 31.072 36.696 30.9785 36.696C30.885 36.696 30.793 36.7052 30.701 36.7236C30.6098 36.742 30.5209 36.7688 30.4351 36.8048C30.3492 36.8408 30.2672 36.8853 30.1898 36.9374C30.1124 36.9895 30.0411 37.0493 29.976 37.116C29.9101 37.1819 29.8518 37.2547 29.8005 37.3329C29.7499 37.4103 29.707 37.493 29.6717 37.5797C29.6372 37.6663 29.6112 37.7552 29.5943 37.8471C29.5767 37.9391 29.569 38.0318 29.5706 38.1246V60.6143H23.6684L18.2667 37.8004C18.2483 37.7076 18.2207 37.618 18.1831 37.5314C18.1464 37.444 18.1019 37.362 18.0483 37.2838C17.9946 37.2056 17.9341 37.1344 17.8666 37.0685C17.7984 37.0025 17.7248 36.9443 17.6451 36.8937C17.5662 36.8431 17.4819 36.8002 17.3937 36.7665C17.3064 36.7328 17.2159 36.7075 17.1224 36.6921C17.0297 36.676 16.9354 36.6699 16.8411 36.673C16.7469 36.676 16.6541 36.6883 16.5622 36.7098C16.4702 36.732 16.3821 36.7627 16.2962 36.8017C16.2104 36.8416 16.1299 36.8891 16.0533 36.9451C15.9774 37.001 15.9076 37.0639 15.844 37.1336C15.7812 37.2041 15.7252 37.2792 15.677 37.3605C15.6287 37.4417 15.5888 37.5268 15.5574 37.6157C15.5267 37.7053 15.5045 37.7965 15.4915 37.8901C15.4792 37.9836 15.4754 38.0771 15.4815 38.1713C15.4877 38.2656 15.503 38.3583 15.5275 38.4495L20.7752 60.6143H15.0163L3.25105 32.6156C4.8268 31.4744 6.50602 30.9425 8.32473 31.0467C10.4492 31.1693 12.7056 32.017 14.6975 33.2295C14.6982 33.2302 14.699 33.231 14.6998 33.2318L14.7603 33.2678C14.8623 33.3299 14.9711 33.3774 15.0853 33.4119C15.1995 33.4464 15.3167 33.4655 15.4355 33.4701C15.5551 33.4747 15.6731 33.4648 15.7896 33.4387C15.9061 33.4134 16.018 33.3736 16.1245 33.3199L17.9456 32.3956C17.9463 32.3956 17.9471 32.3956 17.9478 32.3956C21.6366 30.524 26.0213 30.6942 29.5537 32.844L30.2473 33.2647C30.3577 33.3322 30.4749 33.3835 30.5991 33.4188C30.724 33.4533 30.8505 33.4709 30.98 33.4709C31.1095 33.4709 31.236 33.4533 31.3609 33.4188C31.4851 33.3835 31.6023 33.3322 31.7127 33.2647L32.4032 32.8409V32.844C35.9349 30.6942 40.3226 30.5263 44.0091 32.3956L45.8301 33.3176C45.9374 33.372 46.05 33.4126 46.1681 33.4387C46.2861 33.464 46.4057 33.4747 46.526 33.4701C46.6463 33.4655 46.7643 33.4448 46.8801 33.4103C46.9958 33.3751 47.1046 33.3253 47.2073 33.2624L47.3093 33.1988C49.2881 31.9963 51.5299 31.1548 53.6429 31.0306Z" fill="#814827"/>
</g>
</svg>
