<svg width="28" height="28" viewBox="0 0 28 28" fill="none" xmlns="http://www.w3.org/2000/svg">
<mask id="mask0_20_2534" style="mask-type:luminance" maskUnits="userSpaceOnUse" x="0" y="0" width="28" height="28">
<path d="M0 0H27.5362V27.509H0V0Z" fill="white"/>
</mask>
<g mask="url(#mask0_20_2534)">
<path d="M27.2552 7.26937L25.0659 6.25855L25.8903 4.56511C25.9077 4.52966 25.9198 4.49225 25.927 4.45352C25.9339 4.41447 25.9356 4.37542 25.932 4.33603C25.9284 4.29632 25.9192 4.25825 25.9051 4.2215C25.8906 4.18441 25.8716 4.15028 25.848 4.11844C25.824 4.08694 25.7964 4.05904 25.7649 4.03509C25.7337 4.01113 25.6996 3.99176 25.6625 3.97732C25.6258 3.96256 25.5877 3.95337 25.5483 3.94943C25.5089 3.94516 25.4699 3.94648 25.4308 3.95337L23.1302 4.35474L23.57 2.10338C23.5776 2.06432 23.5795 2.02494 23.5762 1.98556C23.5726 1.94585 23.5641 1.90745 23.55 1.87036C23.5359 1.83295 23.5168 1.79849 23.4932 1.76666C23.4696 1.73482 23.442 1.7066 23.4105 1.68231C23.379 1.65803 23.3449 1.63866 23.3078 1.62389C23.271 1.60913 23.2326 1.59961 23.1933 1.59567C23.1535 1.5914 23.1145 1.59272 23.0751 1.59961C23.036 1.60617 22.9986 1.61831 22.9625 1.63538L21.2671 2.45979L20.2563 0.270449C20.2379 0.230082 20.2136 0.193325 20.1838 0.160507C20.1539 0.127688 20.1198 0.10012 20.0814 0.0778035C20.043 0.0554868 20.002 0.0394056 19.9586 0.0298882C19.915 0.0203707 19.8713 0.0174171 19.827 0.0216835C19.7834 0.0246372 19.7414 0.0344828 19.701 0.050564C19.6603 0.0666452 19.6232 0.0883055 19.5891 0.115545C19.5553 0.143113 19.5261 0.174947 19.5018 0.211376C19.4778 0.247476 19.4595 0.286531 19.447 0.328539L17.404 7.15352C17.2586 7.15516 17.1192 7.18404 16.9856 7.24049C16.8517 7.29694 16.7335 7.37669 16.6311 7.47974L16.5455 7.5654C16.4503 7.66155 16.3748 7.7715 16.3194 7.8949C16.2639 8.01829 16.2321 8.14727 16.2235 8.28249L13.3519 8.43247C13.1812 8.44166 13.0119 8.46102 12.8435 8.49023C12.6752 8.51944 12.5091 8.55849 12.3454 8.60739C12.1816 8.65629 12.0214 8.71471 11.8646 8.78264C11.7077 8.85058 11.5557 8.9277 11.408 9.01369C11.2604 9.09967 11.1183 9.19419 10.9817 9.29691C10.8455 9.39963 10.7156 9.51023 10.5922 9.62871C10.4688 9.74686 10.3529 9.8719 10.2446 10.0042C10.136 10.1361 10.0356 10.2739 9.94368 10.418L0.0987145 25.8559C0.0727877 25.8969 0.054081 25.9416 0.0429226 25.9892C0.0320925 26.0368 0.029467 26.085 0.034718 26.1336C0.0402971 26.1821 0.0537528 26.2284 0.075085 26.2724C0.096089 26.3164 0.124313 26.3558 0.158773 26.3902L1.13546 27.3666C1.16992 27.4014 1.2093 27.4293 1.25328 27.4506C1.29725 27.4719 1.34353 27.4854 1.3921 27.491C1.44067 27.4962 1.48892 27.4936 1.5365 27.4824C1.58409 27.4716 1.62872 27.4529 1.66975 27.427L17.1077 17.5735C17.2517 17.4812 17.3896 17.3811 17.5215 17.2725C17.6538 17.1642 17.7788 17.0484 17.897 16.925C18.0154 16.8016 18.126 16.6716 18.2288 16.5351C18.3315 16.3989 18.426 16.2568 18.512 16.1091C18.598 15.9614 18.6751 15.8091 18.743 15.6526C18.811 15.4957 18.8694 15.3356 18.9183 15.1718C18.9672 15.008 19.0062 14.842 19.0354 14.6736C19.0647 14.5052 19.084 14.3359 19.0929 14.1652L19.2412 11.3514C19.3846 11.3478 19.5222 11.3176 19.6538 11.2608C19.7854 11.204 19.9019 11.1249 20.0029 11.0232L20.0909 10.9372C20.2028 10.8289 20.2885 10.7025 20.3479 10.5585C20.4073 10.4144 20.4355 10.2647 20.4322 10.1088L27.2057 8.08065C27.2487 8.06818 27.2887 8.04947 27.3258 8.02453C27.3629 7.99959 27.395 7.96972 27.4229 7.93461C27.4505 7.89982 27.4722 7.86142 27.4879 7.81941C27.5037 7.77773 27.5125 7.73474 27.5148 7.69011C27.5174 7.6458 27.5135 7.60248 27.5027 7.55949C27.4918 7.5165 27.4748 7.47613 27.4518 7.43872C27.4285 7.40097 27.4 7.3675 27.3665 7.33862C27.333 7.30974 27.2959 7.28676 27.2552 7.26937ZM1.5004 26.5169L1.00878 26.0253L2.98775 22.9239C3.19516 22.9449 3.39339 22.9987 3.58275 23.086C3.77211 23.173 3.94212 23.2888 4.09308 23.4326C4.2365 23.5839 4.35169 23.7539 4.43899 23.9433C4.52596 24.1326 4.58011 24.3308 4.60177 24.5379L1.5004 26.5169ZM18.2409 14.1222C18.2334 14.2588 18.2179 14.3943 18.1943 14.5292C18.1707 14.6638 18.1392 14.7967 18.0998 14.9276C18.0607 15.0586 18.0138 15.1869 17.9593 15.3123C17.9048 15.4376 17.8431 15.5597 17.7742 15.6779C17.7053 15.796 17.6298 15.9096 17.5474 16.0188C17.4651 16.1278 17.3768 16.2318 17.2819 16.3306C17.1874 16.4294 17.0873 16.5223 16.9817 16.6089C16.876 16.6959 16.7657 16.7763 16.6505 16.8501L5.38286 24.0401C5.35529 23.9252 5.32017 23.813 5.27718 23.703C5.23419 23.5931 5.18365 23.4864 5.12589 23.3837C5.06813 23.2806 5.00347 23.1822 4.93193 23.0883C4.86038 22.9941 4.78293 22.9059 4.69924 22.8225C4.61556 22.7395 4.52629 22.6623 4.43177 22.5914C4.33725 22.5206 4.23847 22.4566 4.13509 22.3995C4.03171 22.3424 3.92505 22.2928 3.81478 22.2505C3.70451 22.2081 3.59194 22.1737 3.47707 22.1471L10.667 10.8794C10.7408 10.7642 10.8212 10.6536 10.9079 10.548C10.9949 10.4423 11.0877 10.3419 11.1865 10.2473C11.2853 10.1525 11.3893 10.0639 11.4986 9.98184C11.6079 9.89946 11.7218 9.82365 11.8399 9.75473C11.9584 9.68581 12.0802 9.62411 12.2059 9.56964C12.3312 9.51548 12.4596 9.46855 12.5908 9.42917C12.7218 9.39012 12.8547 9.35861 12.9896 9.33531C13.1245 9.31168 13.2603 9.29626 13.3969 9.28903L16.449 9.13019L16.4831 9.16235L14.1481 9.93064C14.0995 9.94672 14.0552 9.97035 14.0152 10.0022C13.9751 10.034 13.942 10.0718 13.9154 10.1154C13.8888 10.1591 13.8708 10.206 13.8609 10.2562C13.8511 10.3061 13.8501 10.3566 13.8583 10.4068C13.8665 10.4574 13.8832 10.505 13.9082 10.5493C13.9334 10.5939 13.9653 10.6326 14.0043 10.6658C14.0434 10.6989 14.0867 10.7242 14.1346 10.7416C14.1825 10.7593 14.2321 10.7678 14.2833 10.7678C14.3306 10.7705 14.3772 10.7655 14.4228 10.7528L16.9511 9.91554L15.7106 11.1518C15.6906 11.1718 15.6728 11.1935 15.6571 11.2171C15.6413 11.2404 15.6282 11.265 15.6174 11.2913C15.6065 11.3172 15.5983 11.3441 15.5928 11.3717C15.5875 11.3996 15.5846 11.4275 15.5846 11.4557C15.5846 11.484 15.5875 11.5118 15.5928 11.5394C15.5983 11.567 15.6065 11.5939 15.6174 11.6198C15.6282 11.6461 15.6413 11.6707 15.6571 11.6943C15.6728 11.7176 15.6906 11.7393 15.7106 11.7593C15.7306 11.7793 15.7523 11.797 15.7756 11.8128C15.7992 11.8285 15.8238 11.8417 15.8497 11.8525C15.876 11.8633 15.9029 11.8715 15.9305 11.8768C15.958 11.8824 15.9859 11.8853 16.0142 11.8853C16.0424 11.8853 16.0703 11.8824 16.0982 11.8768C16.1257 11.8715 16.1527 11.8633 16.1786 11.8525C16.2048 11.8417 16.2294 11.8285 16.2527 11.8128C16.2764 11.797 16.298 11.7793 16.3181 11.7593L17.6551 10.42L16.7838 13.1137C16.7749 13.1403 16.7687 13.1679 16.7654 13.1958C16.7618 13.2237 16.7611 13.2516 16.7634 13.2798C16.7654 13.308 16.7703 13.3356 16.7778 13.3628C16.7854 13.3897 16.7956 13.416 16.8084 13.4413C16.8208 13.4662 16.8359 13.4902 16.8533 13.5121C16.8707 13.5345 16.8901 13.5548 16.9114 13.5732C16.9328 13.5916 16.9557 13.6077 16.9803 13.6214C17.005 13.6352 17.0306 13.6467 17.0575 13.6556C17.084 13.6644 17.1116 13.6703 17.1395 13.6739C17.1674 13.6772 17.1956 13.6779 17.2235 13.6759C17.2517 13.6736 17.2793 13.6687 17.3066 13.6611C17.3338 13.6536 17.3597 13.6438 17.385 13.631C17.4103 13.6182 17.4339 13.6031 17.4559 13.5857C17.4782 13.5683 17.4985 13.5489 17.5169 13.5276C17.5353 13.5062 17.5514 13.4833 17.5652 13.459C17.579 13.4344 17.5904 13.4088 17.5993 13.3819L18.3653 11.0383L18.3997 11.0724L18.2409 14.1222ZM19.4923 10.3235L19.4043 10.4114C19.3794 10.4364 19.3508 10.4554 19.3187 10.4689C19.2862 10.482 19.2524 10.4889 19.2176 10.4889C19.1825 10.4889 19.1487 10.482 19.1165 10.4689C19.084 10.4554 19.0555 10.4364 19.0309 10.4114L17.1615 8.53978C17.1369 8.51517 17.1182 8.48629 17.1047 8.45413C17.0916 8.42164 17.085 8.38816 17.085 8.35337C17.085 8.31826 17.0916 8.28478 17.1047 8.25229C17.1182 8.22013 17.1369 8.19125 17.1615 8.16663L17.2495 8.07835C17.2744 8.05374 17.3029 8.03438 17.3358 8.02125C17.3683 8.00779 17.4021 8.0009 17.4372 8.0009C17.4723 8.0009 17.5064 8.00779 17.5389 8.02125C17.5714 8.03438 17.6 8.05374 17.6249 8.07835L18.9836 9.43935L19.4943 9.95C19.5189 9.97495 19.5379 10.0035 19.551 10.036C19.5645 10.0685 19.5707 10.1023 19.5707 10.1371C19.5704 10.1722 19.5635 10.206 19.55 10.2382C19.5363 10.2703 19.5172 10.2989 19.4923 10.3235ZM20.061 9.30413L19.9622 9.20732L21.7092 8.13414C21.7345 8.12003 21.7581 8.10362 21.7801 8.08459C21.8021 8.06588 21.8218 8.04488 21.8395 8.0219C21.8572 7.99893 21.8726 7.97465 21.8851 7.94839C21.8979 7.92246 21.9081 7.89555 21.9153 7.86733C21.9225 7.83943 21.9268 7.81088 21.9284 7.782C21.9301 7.75312 21.9284 7.72424 21.9242 7.69569C21.9199 7.66713 21.9127 7.63891 21.9028 7.612C21.8926 7.58476 21.8802 7.55883 21.8651 7.53422C21.8497 7.5096 21.8323 7.48663 21.8122 7.46563C21.7925 7.44429 21.7709 7.42559 21.7469 7.40885C21.7233 7.39211 21.6984 7.378 21.6718 7.36651C21.6452 7.3547 21.6176 7.34584 21.5894 7.33993C21.5612 7.3337 21.5323 7.33074 21.5034 7.33041C21.4745 7.33009 21.4457 7.33271 21.4174 7.33829C21.3889 7.34387 21.3613 7.3524 21.3347 7.36356C21.3078 7.37472 21.2825 7.38817 21.2586 7.40458L19.34 8.59131L18.9298 8.17714L20.1168 6.25855C20.1329 6.2346 20.1467 6.20933 20.1578 6.18241C20.169 6.15583 20.1775 6.12826 20.1831 6.09971C20.1884 6.07116 20.1913 6.04261 20.191 6.01373C20.1907 5.98452 20.1874 5.95597 20.1815 5.92774C20.1756 5.89919 20.1667 5.87195 20.1549 5.84537C20.1434 5.81878 20.1293 5.79384 20.1126 5.76988C20.0958 5.74625 20.0771 5.72459 20.0558 5.70457C20.0348 5.68488 20.0118 5.66749 19.9872 5.65206C19.9626 5.63697 19.9366 5.62417 19.9094 5.61432C19.8822 5.60448 19.8543 5.59726 19.8257 5.59299C19.7972 5.5884 19.7683 5.58708 19.7394 5.58872C19.7105 5.59004 19.682 5.59463 19.6541 5.60185C19.6259 5.60907 19.5989 5.61925 19.5727 5.63172C19.5468 5.64452 19.5225 5.65994 19.4995 5.67766C19.4765 5.69506 19.4555 5.71508 19.4365 5.73706C19.4178 5.75873 19.401 5.78235 19.3869 5.80762L18.3141 7.55489L18.2301 7.47121L18.2173 7.45808L19.9557 1.66328L20.6747 3.21954C20.6862 3.2458 20.7003 3.27041 20.7171 3.29404C20.7335 3.31734 20.7522 3.339 20.7732 3.35869C20.7942 3.37838 20.8168 3.39578 20.8411 3.4112C20.8654 3.4263 20.891 3.43877 20.9179 3.44894C20.9452 3.45879 20.9727 3.46601 21.001 3.4706C21.0295 3.47487 21.0581 3.47651 21.0866 3.4752C21.1152 3.47389 21.1437 3.46995 21.1713 3.46306C21.1992 3.45616 21.2261 3.44632 21.252 3.43417L22.5658 2.79027L22.1686 4.80994C22.1677 4.82044 22.1677 4.83127 22.1686 4.8421C22.1677 4.85687 22.1677 4.87196 22.1686 4.88706C22.1677 4.90413 22.1677 4.92152 22.1686 4.93858C22.1677 4.94712 22.1677 4.95565 22.1686 4.96418C22.1726 4.98191 22.1775 4.99897 22.1837 5.01571V5.04787C22.1883 5.061 22.1949 5.07314 22.2028 5.08463C22.208 5.09743 22.2146 5.10957 22.2221 5.12106L22.2415 5.14666C22.2415 5.15945 22.2632 5.17455 22.2737 5.18538C22.2806 5.19293 22.2884 5.19949 22.2973 5.20474L22.338 5.23888L22.3616 5.252C22.3774 5.26251 22.3938 5.2717 22.4112 5.2799H22.4348L22.4926 5.29697H22.5228C22.5405 5.29926 22.5585 5.29926 22.5763 5.29697H22.6537L24.742 4.93202L24.0981 6.26479C24.0725 6.31664 24.058 6.37145 24.0547 6.42921C24.0515 6.48697 24.0593 6.54309 24.0787 6.59757C24.0971 6.65074 24.1246 6.69865 24.1621 6.74099C24.1991 6.78333 24.2428 6.81713 24.2933 6.8424L25.8516 7.56113L20.061 9.30413Z" fill="#FA7F7F"/>
</g>
</svg>
