<svg width="2373" height="46" viewBox="0 0 2373 46" fill="none" xmlns="http://www.w3.org/2000/svg">
<path d="M1473 12.6812L1481.3 14.6812C1489.7 16.6812 1506.3 20.6812 1523 21.6812C1539.7 22.6812 1556.3 20.6812 1573 20.4812C1589.7 20.3812 1606.3 21.9812 1623 24.6812C1639.7 27.3812 1656.3 30.9812 1673 26.8812C1689.7 22.6812 1706.3 10.6812 1723 5.48116C1739.7 0.381156 1756.3 1.98118 1773 4.88118C1789.7 7.68118 1806.3 11.6812 1823 10.4812C1839.7 9.38116 1856.3 2.98118 1873 0.88118C1889.7 -1.31882 1906.3 0.681156 1923 5.98116C1939.7 11.3812 1956.3 19.9812 1973 24.8812C1989.7 29.6812 2006.3 30.6812 2023 28.3812C2039.7 25.9812 2056.3 20.3812 2073 20.1812C2089.7 19.9812 2106.3 25.3812 2123 22.8812C2139.7 20.3812 2156.3 9.98118 2173 7.38118C2189.7 4.68118 2206.3 9.68117 2223 13.1812C2239.7 16.6812 2256.3 18.6812 2273 17.4812C2289.7 16.3812 2306.3 11.9812 2323 13.6812C2339.7 15.3812 2356.3 22.9812 2364.7 26.8812L2373 30.6812V45.6812H2364.7C2356.3 45.6812 2339.7 45.6812 2323 45.6812C2306.3 45.6812 2289.7 45.6812 2273 45.6812C2256.3 45.6812 2239.7 45.6812 2223 45.6812C2206.3 45.6812 2189.7 45.6812 2173 45.6812C2156.3 45.6812 2139.7 45.6812 2123 45.6812C2106.3 45.6812 2089.7 45.6812 2073 45.6812C2056.3 45.6812 2039.7 45.6812 2023 45.6812C2006.3 45.6812 1989.7 45.6812 1973 45.6812C1956.3 45.6812 1939.7 45.6812 1923 45.6812C1906.3 45.6812 1889.7 45.6812 1873 45.6812C1856.3 45.6812 1839.7 45.6812 1823 45.6812C1806.3 45.6812 1789.7 45.6812 1773 45.6812C1756.3 45.6812 1739.7 45.6812 1723 45.6812C1706.3 45.6812 1689.7 45.6812 1673 45.6812C1656.3 45.6812 1639.7 45.6812 1623 45.6812C1606.3 45.6812 1589.7 45.6812 1573 45.6812C1556.3 45.6812 1539.7 45.6812 1523 45.6812C1506.3 45.6812 1489.7 45.6812 1481.3 45.6812H1473V12.6812Z" fill="#814827"/>
<path d="M726 12.6812L734.3 14.6812C742.7 16.6812 759.3 20.6812 776 21.6812C792.7 22.6812 809.3 20.6812 826 20.4812C842.7 20.3812 859.3 21.9812 876 24.6812C892.7 27.3812 909.3 30.9812 926 26.8812C942.7 22.6812 959.3 10.6812 976 5.48116C992.7 0.381156 1009.3 1.98118 1026 4.88118C1042.7 7.68118 1059.3 11.6812 1076 10.4812C1092.7 9.38116 1109.3 2.98118 1126 0.88118C1142.7 -1.31882 1159.3 0.681156 1176 5.98116C1192.7 11.3812 1209.3 19.9812 1226 24.8812C1242.7 29.6812 1259.3 30.6812 1276 28.3812C1292.7 25.9812 1309.3 20.3812 1326 20.1812C1342.7 19.9812 1359.3 25.3812 1376 22.8812C1392.7 20.3812 1409.3 9.98118 1426 7.38118C1442.7 4.68118 1459.3 9.68117 1476 13.1812C1492.7 16.6812 1509.3 18.6812 1526 17.4812C1542.7 16.3812 1559.3 11.9812 1576 13.6812C1592.7 15.3812 1609.3 22.9812 1617.7 26.8812L1626 30.6812V45.6812H1617.7C1609.3 45.6812 1592.7 45.6812 1576 45.6812C1559.3 45.6812 1542.7 45.6812 1526 45.6812C1509.3 45.6812 1492.7 45.6812 1476 45.6812C1459.3 45.6812 1442.7 45.6812 1426 45.6812C1409.3 45.6812 1392.7 45.6812 1376 45.6812C1359.3 45.6812 1342.7 45.6812 1326 45.6812C1309.3 45.6812 1292.7 45.6812 1276 45.6812C1259.3 45.6812 1242.7 45.6812 1226 45.6812C1209.3 45.6812 1192.7 45.6812 1176 45.6812C1159.3 45.6812 1142.7 45.6812 1126 45.6812C1109.3 45.6812 1092.7 45.6812 1076 45.6812C1059.3 45.6812 1042.7 45.6812 1026 45.6812C1009.3 45.6812 992.7 45.6812 976 45.6812C959.3 45.6812 942.7 45.6812 926 45.6812C909.3 45.6812 892.7 45.6812 876 45.6812C859.3 45.6812 842.7 45.6812 826 45.6812C809.3 45.6812 792.7 45.6812 776 45.6812C759.3 45.6812 742.7 45.6812 734.3 45.6812H726V12.6812Z" fill="#814827"/>
<path d="M0 12.6812L8.3 14.6812C16.7 16.6812 33.3 20.6812 50 21.6812C66.7 22.6812 83.3 20.6812 100 20.4812C116.7 20.3812 133.3 21.9812 150 24.6812C166.7 27.3812 183.3 30.9812 200 26.8812C216.7 22.6812 233.3 10.6812 250 5.48116C266.7 0.381156 283.3 1.98118 300 4.88118C316.7 7.68118 333.3 11.6812 350 10.4812C366.7 9.38116 383.3 2.98118 400 0.88118C416.7 -1.31882 433.3 0.681156 450 5.98116C466.7 11.3812 483.3 19.9812 500 24.8812C516.7 29.6812 533.3 30.6812 550 28.3812C566.7 25.9812 583.3 20.3812 600 20.1812C616.7 19.9812 633.3 25.3812 650 22.8812C666.7 20.3812 683.3 9.98118 700 7.38118C716.7 4.68118 733.3 9.68117 750 13.1812C766.7 16.6812 783.3 18.6812 800 17.4812C816.7 16.3812 833.3 11.9812 850 13.6812C866.7 15.3812 883.3 22.9812 891.7 26.8812L900 30.6812V45.6812H891.7C883.3 45.6812 866.7 45.6812 850 45.6812C833.3 45.6812 816.7 45.6812 800 45.6812C783.3 45.6812 766.7 45.6812 750 45.6812C733.3 45.6812 716.7 45.6812 700 45.6812C683.3 45.6812 666.7 45.6812 650 45.6812C633.3 45.6812 616.7 45.6812 600 45.6812C583.3 45.6812 566.7 45.6812 550 45.6812C533.3 45.6812 516.7 45.6812 500 45.6812C483.3 45.6812 466.7 45.6812 450 45.6812C433.3 45.6812 416.7 45.6812 400 45.6812C383.3 45.6812 366.7 45.6812 350 45.6812C333.3 45.6812 316.7 45.6812 300 45.6812C283.3 45.6812 266.7 45.6812 250 45.6812C233.3 45.6812 216.7 45.6812 200 45.6812C183.3 45.6812 166.7 45.6812 150 45.6812C133.3 45.6812 116.7 45.6812 100 45.6812C83.3 45.6812 66.7 45.6812 50 45.6812C33.3 45.6812 16.7 45.6812 8.3 45.6812H0V12.6812Z" fill="#814827"/>
</svg>
