<svg width="292" height="258" viewBox="0 0 292 258" fill="none" xmlns="http://www.w3.org/2000/svg">
<mask id="mask0_14_682" style="mask-type:luminance" maskUnits="userSpaceOnUse" x="22" y="0" width="247" height="85">
<path d="M22.0138 0H268.245V84.237H22.0138V0Z" fill="white"/>
</mask>
<g mask="url(#mask0_14_682)">
<path d="M266.62 84.2286C246.776 33.9911 199.05 1.5248 145.019 1.5248C90.9915 1.5248 43.2563 33.9911 23.4168 84.2286L22.0138 83.6742C31.6467 59.2883 48.1739 38.4653 69.8166 23.4712C91.9654 8.1251 117.971 0.0157471 145.019 0.0157471C172.071 0.0157471 198.072 8.1251 220.22 23.4712C241.863 38.4653 258.39 59.2835 268.028 83.6742L266.625 84.2286H266.62Z" fill="white"/>
</g>
<mask id="mask1_14_682" style="mask-type:luminance" maskUnits="userSpaceOnUse" x="22" y="173" width="247" height="85">
<path d="M22.0138 173.777H268.245V258H22.0138V173.777Z" fill="white"/>
</mask>
<g mask="url(#mask1_14_682)">
<path d="M266.62 173.784C246.776 224.026 199.05 256.488 145.019 256.488C90.9915 256.488 43.2563 224.026 23.4168 173.784L22.0138 174.338C31.6467 198.729 48.1739 219.552 69.8166 234.541C91.9654 249.887 117.971 257.997 145.019 257.997C172.071 257.997 198.072 249.887 220.22 234.541C241.863 219.552 258.39 198.734 268.028 174.338L266.625 173.784H266.62Z" fill="white"/>
</g>
<mask id="mask2_14_682" style="mask-type:luminance" maskUnits="userSpaceOnUse" x="0" y="72" width="35" height="41">
<path d="M0 72.8539H34.5588V112.35H0V72.8539Z" fill="white"/>
</mask>
<g mask="url(#mask2_14_682)">
<mask id="mask3_14_682" style="mask-type:luminance" maskUnits="userSpaceOnUse" x="-2" y="73" width="37" height="41">
<path d="M-1.89001 77.0533L30.2726 73.1481L34.7371 109.905L2.57447 113.811L-1.89001 77.0533Z" fill="white"/>
</mask>
<g mask="url(#mask3_14_682)">
<mask id="mask4_14_682" style="mask-type:luminance" maskUnits="userSpaceOnUse" x="-2" y="73" width="37" height="41">
<path d="M-1.89001 77.0533L30.2726 73.1481L34.7371 109.905L2.57447 113.811L-1.89001 77.0533Z" fill="white"/>
</mask>
<g mask="url(#mask4_14_682)">
<mask id="mask5_14_682" style="mask-type:luminance" maskUnits="userSpaceOnUse" x="-2" y="73" width="38" height="41">
<path d="M-1.89001 77.0624L30.7162 73.1041L35.1565 109.664L2.55036 113.622L-1.89001 77.0624Z" fill="white"/>
</mask>
<g mask="url(#mask5_14_682)">
<path fill-rule="evenodd" clip-rule="evenodd" d="M18.986 94.3475C19.0535 96.2085 20.0322 97.5633 20.5384 98.9084C20.0611 98.4745 19.7815 97.8526 19.4826 97.2596C19.1885 96.6617 18.9812 95.9964 18.7835 95.3118C18.2869 98.4745 18.5232 102.327 19.3283 104.569C18.8221 103.826 18.6726 102.785 18.3544 101.878C18.2869 103.137 17.8482 104.371 17.6843 105.557C17.6312 105.957 17.7759 106.656 17.3853 106.907C16.9852 105.538 17.5927 104.197 17.7662 102.751C17.9687 101.03 18.0651 99.2411 18.0218 97.6067C17.8723 98.2817 17.53 98.865 17.2311 99.4436C16.9418 99.998 16.7393 100.683 16.1945 101.001C17.0045 99.2363 17.9832 97.2692 18.3544 94.8875C18.7257 92.5444 19.4633 90.2687 20.0901 88.3499C18.7449 89.9023 17.3902 91.638 16.2234 93.6822C15.0904 95.6782 13.8948 97.7995 13.5573 100.475C12.8293 106.251 15.7943 107.919 17.9012 111.386C19.902 108.908 22.2693 106.782 22.8575 102.809C23.8121 96.3532 19.8008 93.7593 20.8518 87.8195C20.3215 89.7577 18.8992 91.9706 18.986 94.3475ZM8.06586 90.9775C10.1101 90.9726 12.4098 90.8907 13.4367 89.9409C12.2604 90.0614 9.90276 89.9361 9.37242 89.2466C10.5681 89.3286 11.8988 89.6709 13.1282 89.6564C15.047 89.6371 16.5995 88.2342 17.6891 87.2554C17.8 87.159 18.1616 87.0578 18.0507 86.8263C14.9458 87.8629 11.0599 87.5495 8.11407 88.562C6.60501 89.0779 5.28399 89.7239 4.17028 90.6159C3.3121 91.3053 2.50695 92.1104 1.72108 92.7854C1.46073 93.0072 0.978609 93.2145 1.07985 93.4556C2.64194 93.3109 4.10278 93.4941 5.71308 93.5424C12.6364 93.7497 16.4066 91.4933 18.904 86.7589C16.2572 88.9863 12.5834 92.1394 8.06586 90.9775ZM26.6856 94.468C25.6201 91.2957 23.9664 88.6247 23.6916 84.7677C23.6385 85.1196 23.5324 85.4523 23.4842 85.7994C22.5634 92.5588 25.9672 98.325 32.905 97.814C31.1115 96.0012 29.8917 93.4315 28.7973 90.775C27.7269 88.1763 26.9073 85.2112 24.2074 84.0204C24.0628 86.566 24.8053 87.9352 25.972 89.2514C26.2468 89.5648 26.5843 89.8686 26.8784 90.1723C27.158 90.4519 27.6257 90.7123 27.6594 91.1414C26.4686 90.4037 25.6634 89.3334 24.8004 88.3161C25.3645 90.2109 26.1166 92.0188 27.3605 93.3447C27.8668 93.8799 28.6189 94.2752 28.9419 94.902C27.751 94.468 27.0616 93.2772 26.2999 92.6745C26.4445 93.2242 26.8639 93.8461 26.6856 94.468ZM24.1689 83.625C29.0721 86.1417 28.9708 93.2483 32.5193 96.869C32.8809 97.2354 33.5896 97.5392 33.7391 98.0068C33.2521 98.3202 32.5048 98.1418 31.8395 98.1226C28.6382 98.0454 26.5843 97.2933 25.0656 95.1961C23.2914 92.7469 22.4284 88.7693 23.2769 85.1293C23.3637 84.7291 23.6048 84.3386 23.6916 83.9191C23.8748 83.0272 23.7253 82.0967 23.9615 81.1951C22.5682 83.9288 21.0158 86.4358 21.0013 90.1193C20.9965 92.1779 21.8402 93.8798 22.4814 95.6541C23.0985 97.3704 23.571 99.3423 23.4023 101.671C23.1371 105.297 21.4352 107.751 19.6513 109.819C19.068 110.494 18.5232 111.246 17.8048 111.772C17.4095 111.506 17.2841 111.034 17.0382 110.667C15.0036 107.693 12.2411 106 12.9739 100.432C13.3789 97.3367 14.859 94.8152 16.2379 92.636C17.6794 90.3603 19.7044 88.6825 20.9483 86.5226C21.6714 85.2594 22.0909 83.7359 22.8093 82.6078C22.0909 83.7745 20.7217 84.7339 19.8876 85.8525C19.1499 86.8456 18.798 87.9593 18.1567 88.8609C16.2234 91.5705 13.133 93.605 9.14582 93.9329C7.73801 94.0486 6.20003 93.9281 4.58009 93.8509C3.12889 93.7834 1.61501 93.8798 0.139709 93.7786C0.221672 93.3206 0.698974 93.1277 0.993072 92.8626C3.19639 90.8858 4.95132 88.9091 8.16228 87.9111C11.6818 86.8215 16.2813 87.4435 19.3717 85.7512C20.0997 85.351 20.7313 84.4688 21.3532 83.7407C22.6019 82.2751 23.6626 80.8287 24.5256 78.9484C24.9499 78.0227 25.2392 76.9958 25.7165 76.0991C26.1841 75.2216 27.158 73.7993 27.8764 73.4522C27.9343 73.4425 27.9391 73.4811 27.9391 73.5197C27.9825 73.5245 28.0259 73.5245 28.0693 73.5293C25.9672 75.9641 24.463 79.0931 24.1689 83.625Z" fill="white"/>
</g>
</g>
</g>
</g>
<mask id="mask6_14_682" style="mask-type:luminance" maskUnits="userSpaceOnUse" x="259" y="141" width="33" height="45">
<path d="M259.191 141.972H291.281V185.17H259.191V141.972Z" fill="white"/>
</mask>
<g mask="url(#mask6_14_682)">
<mask id="mask7_14_682" style="mask-type:luminance" maskUnits="userSpaceOnUse" x="242" y="129" width="60" height="59">
<path d="M265.454 187.403L242.721 154.724L279.199 129.355L301.926 162.033L265.454 187.403Z" fill="white"/>
</mask>
<g mask="url(#mask7_14_682)">
<mask id="mask8_14_682" style="mask-type:luminance" maskUnits="userSpaceOnUse" x="242" y="129" width="60" height="59">
<path d="M242.639 154.608L265.367 187.282L301.844 161.912L279.117 129.234L242.639 154.608Z" fill="white"/>
</mask>
<g mask="url(#mask8_14_682)">
<mask id="mask9_14_682" style="mask-type:luminance" maskUnits="userSpaceOnUse" x="242" y="129" width="61" height="59">
<path d="M242.654 154.599L265.463 187.393L302.235 161.816L279.426 129.022L242.654 154.599Z" fill="white"/>
</mask>
<g mask="url(#mask9_14_682)">
<path fill-rule="evenodd" clip-rule="evenodd" d="M275.241 159.546C276.986 158.099 279.006 157.897 280.636 157.26C279.855 157.178 279.064 157.424 278.288 157.641C277.502 157.858 276.73 158.21 275.949 158.581C278.418 155.563 282.106 152.666 284.792 151.581C283.712 151.721 282.641 152.43 281.561 152.873C282.656 151.793 283.413 150.395 284.358 149.291C284.681 148.91 285.428 148.481 285.341 147.926C283.774 148.669 283.051 150.303 281.879 151.634C280.481 153.215 278.934 154.749 277.42 156.031C277.907 155.346 278.162 154.565 278.442 153.828C278.712 153.114 279.17 152.376 279.02 151.629C278.071 153.789 277.082 156.267 275.221 158.538C273.389 160.77 271.928 163.282 270.694 165.404C271.012 162.93 271.49 160.288 272.401 157.579C273.293 154.932 274.252 152.131 276.403 149.657C281.06 144.32 284.97 145.66 289.825 144.764C289.193 148.592 289.184 152.458 286.055 156.209C280.968 162.299 275.366 160.765 270.829 166.522C272.155 164.473 273.013 161.392 275.241 159.546ZM263.337 152.362C264.991 154.223 266.779 156.373 266.75 158.075C265.902 156.913 263.882 154.874 262.821 154.951C263.867 155.968 265.261 156.899 266.244 158.027C267.772 159.787 267.763 162.328 267.753 164.111C267.753 164.29 267.956 164.7 267.657 164.786C266.085 161.132 262.657 157.858 261.187 154.363C260.435 152.574 259.952 150.853 259.856 149.122C259.788 147.782 259.866 146.403 259.842 145.14C259.837 144.73 259.634 144.122 259.933 144.016C261.066 145.554 262.416 146.731 263.766 148.153C269.556 154.266 270.559 159.517 268.288 165.616C268.168 161.412 268.052 155.52 263.337 152.362ZM281.585 166.435C277.844 168.041 274.079 168.701 270.357 171.575C270.631 171.242 270.848 170.876 271.123 170.553C276.509 164.242 284.502 162.66 289.656 169.371C286.556 169.212 283.239 170.186 279.937 171.343C276.716 172.476 273.36 174.135 270.096 172.645C272.29 170.456 274.132 170.017 276.272 170.008C276.779 170.008 277.328 170.066 277.844 170.09C278.326 170.114 278.939 170.326 279.353 170.008C277.719 169.526 276.099 169.666 274.474 169.704C276.653 168.682 278.9 167.901 281.108 167.959C282.01 167.983 282.979 168.344 283.803 168.132C282.444 167.404 280.809 167.742 279.642 167.535C280.26 167.226 281.161 167.101 281.585 166.435ZM269.711 172.929C275.959 175.345 282.328 169.497 288.485 169.786C289.111 169.815 289.96 170.215 290.51 169.974C290.399 169.275 289.627 168.74 289.073 168.152C286.416 165.312 284.064 164.054 280.935 164.377C277.275 164.748 272.965 167.187 270.347 170.905C270.058 171.305 269.899 171.84 269.585 172.259C268.93 173.151 267.961 173.768 267.334 174.713C268.689 171.237 269.706 167.795 273.037 164.801C274.898 163.128 277.126 162.516 279.257 161.657C281.315 160.828 283.485 159.661 285.462 157.622C288.538 154.445 289.386 150.916 289.82 147.618C289.96 146.548 290.201 145.444 290.095 144.364C289.536 144.219 289.005 144.494 288.475 144.561C284.126 145.125 280.351 143.992 275.891 149.166C273.413 152.034 272.324 155.424 271.466 158.437C270.564 161.585 270.68 164.782 269.725 167.66C269.171 169.342 268.124 170.953 267.686 172.52C268.163 170.924 267.917 168.909 268.259 167.24C268.563 165.77 269.291 164.55 269.59 163.234C270.487 159.285 269.826 154.835 266.9 150.954C265.863 149.58 264.504 148.283 263.125 146.875C261.886 145.612 260.753 144.161 259.465 142.903C259.118 143.351 259.326 143.934 259.326 144.421C259.311 148.018 258.94 151.215 260.637 154.937C262.493 159.011 266.784 162.684 267.748 166.86C267.975 167.838 267.691 169.126 267.531 170.278C267.213 172.602 266.755 174.737 265.748 177.042C265.251 178.175 264.557 179.265 264.128 180.431C263.713 181.564 263.212 183.599 263.477 184.534C263.515 184.592 263.549 184.568 263.588 184.534C263.626 184.573 263.665 184.607 263.703 184.645C264.214 180.764 265.83 176.868 269.711 172.929Z" fill="white"/>
</g>
</g>
</g>
</g>
<path d="M59.4826 71.4916C58.9281 72.3016 58.258 72.9718 57.4769 73.4973C56.7055 74.0276 55.8618 74.3844 54.9506 74.5772C54.0394 74.7701 53.133 74.7894 52.2314 74.6351C51.3202 74.4808 50.4524 74.124 49.6279 73.5551C48.8083 72.9766 48.1526 72.2727 47.6608 71.4338C47.1594 70.5852 46.8412 69.6885 46.6966 68.7339C46.5423 67.7696 46.5761 66.7957 46.793 65.8025C47.0148 64.8142 47.4246 63.8837 48.0273 63.0062C48.196 62.7652 48.4419 62.4614 48.7601 62.0998C49.0831 61.7286 49.4254 61.367 49.7822 61.0199C50.1293 60.6631 50.4379 60.3738 50.7079 60.152C50.9779 59.9206 51.1418 59.8242 51.19 59.8628C51.6818 60.1086 52.0771 60.316 52.3857 60.4799C52.6846 60.6342 52.8967 60.7595 53.0221 60.8463C53.4223 61.1163 53.5621 61.3381 53.4464 61.502C53.3306 61.6563 53.0703 61.6852 52.6557 61.5791C52.2314 61.4634 51.8409 61.4248 51.4793 61.4634C51.108 61.502 50.65 61.69 50.11 62.0227C49.5701 62.3698 49.059 62.8905 48.5672 63.5848C47.979 64.4622 47.6801 65.4072 47.6801 66.4197C47.6705 67.4225 47.9405 68.406 48.4901 69.3703C49.0301 70.3249 49.7967 71.1397 50.785 71.8195C51.7878 72.5137 52.8196 72.9187 53.8706 73.0344C54.9217 73.1405 55.9052 72.9959 56.8212 72.6102C57.7325 72.2148 58.4701 71.6073 59.039 70.7974C59.7043 69.809 59.984 68.9846 59.8683 68.3289C59.7526 67.6732 59.4247 67.1621 58.8847 66.7861L57.9012 66.0725C57.6167 65.8797 57.3853 65.7929 57.2069 65.8025C57.0237 65.8025 56.7537 65.9568 56.397 66.2654C56.2282 66.4341 56.0884 66.5739 55.9727 66.6897C55.857 66.8054 55.7654 66.9018 55.7027 66.9789C55.5966 67.1332 55.4906 67.2296 55.3749 67.2682C55.2591 67.3068 55.1627 67.302 55.0856 67.2489C54.994 67.2007 54.9506 67.1139 54.9506 66.9982C54.9506 66.8729 54.9699 66.7764 55.0084 66.7089L56.5898 64.5683L57.5926 62.9869C57.7566 62.7459 57.9398 62.688 58.1326 62.8134C58.1953 62.8519 58.229 62.9435 58.229 63.0834C58.229 63.2135 58.1905 63.3678 58.1133 63.5462C58.0362 63.7921 58.0748 64.0428 58.229 64.2983C58.3833 64.5587 58.6003 64.7997 58.8847 65.0311C59.1788 65.2626 59.4826 65.4843 59.7911 65.6868L60.2347 66.0147C60.36 66.0918 60.524 66.1111 60.7168 66.0725C60.8952 66.0484 60.9964 66.0484 61.0254 66.0725C61.2279 66.2172 61.2857 66.3715 61.1989 66.5354C61.17 66.6029 61.1218 66.9018 61.0447 67.4418C60.9675 67.9818 60.7988 68.6326 60.5432 69.3896C60.2974 70.1369 59.9454 70.8359 59.4826 71.4916Z" fill="white"/>
<path d="M68.7512 59.6245C68.4812 59.8945 68.2883 59.9668 68.1726 59.8367C68.0665 59.7354 68.1003 59.5426 68.269 59.2581C68.5872 58.7953 68.7704 58.3855 68.809 58.0239C68.8572 57.6671 68.7319 57.3248 68.4233 57.0018L61.635 49.9627C61.2879 49.6156 61.013 49.4517 60.8057 49.4613C60.6032 49.4613 60.2802 49.5963 59.8415 49.8663C59.4172 50.1749 59.1376 50.252 58.9929 50.0977C58.8917 49.9965 58.9881 49.8036 59.2822 49.5192L61.0371 47.9378L62.8885 46.0286C63.1874 45.7489 63.3851 45.6573 63.4863 45.7586C63.6406 45.9273 63.5972 46.1587 63.3513 46.4528C63.1199 46.7903 62.956 47.0314 62.8499 47.1857C62.7487 47.34 62.6523 47.5232 62.5607 47.7257C62.4064 48.0872 62.4642 48.4006 62.7342 48.6706L69.6383 55.8254C69.9565 56.1484 70.2602 56.3171 70.5447 56.3268C70.8388 56.3268 71.2293 56.0954 71.7211 55.6325L73.9195 53.4919C73.9678 53.4533 74.0545 53.2894 74.1703 52.9905C74.4788 52.2721 74.4643 51.4187 74.1317 50.4256C73.9485 50.0302 73.9195 49.7699 74.0353 49.6542C74.151 49.5529 74.2956 49.5915 74.4788 49.7699C74.4788 49.7843 74.4836 49.7988 74.4981 49.8084L74.5174 49.847C75.1345 50.927 75.6214 51.6984 75.983 52.1612C76.1229 52.3541 76.1277 52.5083 76.0023 52.6241L70.7568 57.561L68.7512 59.6245Z" fill="white"/>
<path d="M82.3939 47.3593C82.0468 47.581 81.825 47.61 81.719 47.4557C81.6177 47.3159 81.7286 47.0507 82.0468 46.665C82.6109 46.0093 82.823 45.2331 82.6832 44.3315C82.1432 41.0434 81.4441 37.5576 80.5811 33.879C80.4944 33.4162 80.3979 33.1028 80.2919 32.9341C80.2051 32.7942 80.1713 32.7171 80.1954 32.7026C80.504 32.2928 80.6727 32.018 80.6969 31.8734C80.6969 31.7962 80.6969 31.7384 80.6969 31.6998C80.6969 31.6516 80.6969 31.613 80.6969 31.5841C80.6969 31.4298 80.7113 31.3479 80.7354 31.3334C80.7885 31.2948 80.8993 31.343 81.0633 31.4684C82.3843 32.5484 83.821 33.7055 85.3638 34.9397C86.9163 36.1739 88.5748 37.4853 90.3394 38.8738C90.9661 39.3753 91.4965 39.6549 91.9207 39.7031C92.3547 39.7561 92.7982 39.679 93.2514 39.4717C93.6998 39.2933 93.9891 39.3078 94.1192 39.5103C94.1964 39.6163 94.0614 39.7802 93.7142 40.0117L91.1879 41.4966L89.3365 42.7309C88.9991 42.9526 88.7869 42.9912 88.7001 42.8466C88.5844 42.6682 88.705 42.4223 89.0666 42.1137C89.6933 41.5352 89.8813 41.0434 89.6258 40.6288C89.404 40.2961 88.5844 39.5199 87.1573 38.2953C87.0416 38.1796 86.8343 38.2182 86.5402 38.411L83.1846 40.5902C83.0544 40.6818 83.0207 40.8554 83.0882 41.1109C83.4835 42.7694 83.7728 43.7337 83.956 44.0037C84.1199 44.2737 84.3514 44.4376 84.6503 44.4858C84.9588 44.5244 85.3156 44.4761 85.7302 44.3315C86.1256 44.2158 86.3715 44.2254 86.4631 44.3508C86.5499 44.481 86.4245 44.6545 86.0774 44.8715L84.4381 45.8743L82.3939 47.3593ZM83.1846 39.5103L85.9231 37.736C86.087 37.6348 86.1545 37.5528 86.1159 37.4853L85.9617 37.331L81.8347 33.9947C81.6177 33.8405 81.502 33.773 81.4875 33.7826C81.449 33.8115 81.4634 33.9465 81.5261 34.1876L82.6832 39.4524L82.7411 39.6452C82.7893 39.7224 82.9387 39.679 83.1846 39.5103Z" fill="white"/>
<path d="M101.103 36.4661C100.727 36.6348 100.51 36.6396 100.448 36.4854C100.38 36.3456 100.568 36.1286 101.007 35.8297C101.455 35.55 101.749 35.2511 101.894 34.9426C102.034 34.6244 102.015 34.2435 101.836 33.8048L98.0563 25.0493C97.8635 24.601 97.6321 24.3165 97.3621 24.2008C97.0921 24.0851 96.716 24.0803 96.2243 24.1815C95.7373 24.3117 95.448 24.2779 95.3564 24.0851C95.3082 23.9453 95.4673 23.7958 95.8385 23.6415L98.1142 22.7351L100.236 21.7516C100.592 21.5877 100.8 21.5732 100.853 21.713C100.939 21.9059 100.766 22.1373 100.332 22.4073C99.9077 22.7062 99.6377 23.0003 99.522 23.2944C99.4063 23.5789 99.44 23.9405 99.6184 24.3744L103.398 33.1298C103.577 33.5685 103.842 33.8385 104.189 33.9397C104.536 34.0458 104.96 34.0313 105.462 33.9012C105.963 33.7999 106.243 33.8192 106.31 33.959C106.373 34.1133 106.219 34.2676 105.847 34.4219L103.533 35.309L101.103 36.4661Z" fill="white"/>
<path d="M117.622 30.7534C116.489 31.0523 115.54 31.1343 114.768 31.0041C114.537 30.98 114.363 30.9077 114.247 30.7919C113.862 30.3195 113.534 29.5577 113.264 28.5163C113.225 28.4006 113.23 28.2656 113.283 28.1113C113.346 27.9474 113.442 27.8413 113.572 27.8028C113.674 27.7787 113.987 28.1788 114.517 28.9984C115.212 30.0688 116.277 30.4062 117.719 30.0205C118.413 29.8422 118.905 29.4902 119.204 28.9599C119.498 28.4343 119.551 27.8124 119.358 27.0892C119.049 25.9466 117.68 24.9582 115.25 24.1193C114.272 23.7867 113.486 23.3961 112.897 22.9429C112.295 22.4946 111.885 21.8533 111.663 21.0144C111.509 20.4648 111.548 19.8959 111.779 19.3173C112.001 18.7292 112.377 18.1892 112.917 17.6974C113.457 17.2105 114.117 16.8633 114.903 16.656C115.607 16.4776 116.186 16.4005 116.639 16.4246C117.087 16.4535 117.343 16.4583 117.41 16.4439C117.55 16.4053 117.69 16.5114 117.834 16.7524C117.974 16.9839 118.109 17.2635 118.239 17.5817C118.365 17.8903 118.461 18.1747 118.529 18.4302C118.615 18.7918 118.611 18.9847 118.509 19.0088C118.124 19.1245 117.844 19.004 117.68 18.6424C117.42 18.0783 117.034 17.6926 116.523 17.4853C116.007 17.2683 115.448 17.2346 114.845 17.3888C114.228 17.5576 113.746 17.9047 113.399 18.4302C113.052 18.9606 112.965 19.5488 113.129 20.2045C113.245 20.6191 113.495 20.971 113.881 21.2651C114.276 21.5496 114.73 21.7858 115.231 21.9787C115.742 22.1715 116.215 22.3547 116.639 22.5187C119.078 23.3045 120.505 24.4857 120.92 26.0671C121.084 26.6842 121.084 27.311 120.92 27.9378C120.751 28.5693 120.399 29.1334 119.859 29.6348C119.319 30.1362 118.572 30.5123 117.622 30.7534Z" fill="white"/>
<path d="M130.505 27.827C130.091 27.8655 129.879 27.8029 129.869 27.6341C129.855 27.4798 130.1 27.3352 130.602 27.1906C131.103 27.0507 131.46 26.8579 131.682 26.612C131.899 26.3565 131.981 25.9852 131.933 25.4935L131.065 16.0631C131.012 15.5762 130.877 15.2338 130.66 15.041C130.438 14.8385 130.081 14.7035 129.58 14.636C129.078 14.6119 128.818 14.4962 128.789 14.2889C128.779 14.1346 128.972 14.0382 129.368 13.9996L133.09 13.7296L137.757 13.2282C137.988 13.2041 138.113 13.2571 138.142 13.3825C138.46 14.501 138.634 15.1856 138.663 15.4267C138.687 15.687 138.595 15.8269 138.393 15.851C138.287 15.8654 138.205 15.8076 138.142 15.6774C137.959 15.2435 137.795 14.906 137.641 14.6746C137.487 14.4432 137.294 14.2889 137.062 14.2117C136.841 14.125 136.527 14.096 136.117 14.1346L133.379 14.3853C133.234 14.3998 133.075 14.4817 132.897 14.636C132.728 14.7806 132.656 14.9446 132.685 15.1374L133.09 19.573C133.099 19.7032 133.147 19.814 133.225 19.9008C133.311 19.978 133.403 20.0117 133.495 19.9972L135.5 19.8044C136.127 19.7562 136.542 19.4476 136.734 18.8787C136.744 18.816 136.792 18.7389 136.869 18.6473C136.956 18.546 137.033 18.4882 137.101 18.4737C137.139 18.4737 137.188 18.5075 137.255 18.5702C137.332 18.6232 137.371 18.7003 137.371 18.8016L137.409 19.9587L137.602 21.3665C137.626 21.6124 137.573 21.7425 137.448 21.7522C137.226 21.7811 137.048 21.6268 136.908 21.2893C136.638 20.7012 136.281 20.4215 135.847 20.4601L133.919 20.6337C133.649 20.6626 133.461 20.7108 133.36 20.7879C133.268 20.8651 133.229 21.0194 133.244 21.2508L133.63 25.2813C133.668 25.7972 133.803 26.1492 134.035 26.342C134.266 26.5349 134.632 26.6072 135.134 26.5542L137.294 26.3613C137.805 26.3131 138.2 26.2215 138.47 26.0913C138.74 25.966 138.957 25.7731 139.126 25.5128C139.304 25.2428 139.473 24.886 139.627 24.4328C139.704 24.2785 139.806 24.1966 139.936 24.1821C140.1 24.1725 140.191 24.24 140.206 24.3942C140.23 24.6642 140.23 24.9872 140.206 25.3585C140.177 25.7201 140.129 26.1299 140.051 26.5927C139.998 26.8241 139.907 26.9495 139.782 26.9591L132.916 27.4798L130.505 27.827Z" fill="white"/>
<path d="M160.381 28.021C159.996 27.9439 159.822 27.8185 159.861 27.6546C159.885 27.5003 160.155 27.4376 160.671 27.4617C161.196 27.4762 161.606 27.3942 161.905 27.211C162.213 27.0182 162.411 26.6903 162.503 26.2275L164.393 16.9321C164.494 16.4452 164.47 16.0643 164.315 15.7943C164.161 15.5147 163.843 15.3025 163.37 15.1579C162.893 15.0325 162.681 14.8445 162.734 14.5986C162.758 14.4443 162.97 14.4058 163.37 14.4829L165.511 14.9265L167.825 15.2929C169.392 15.6159 170.496 16.0932 171.142 16.72C171.798 17.3516 172.01 18.2194 171.779 19.3234C171.663 19.8924 171.461 20.3407 171.181 20.6734C170.911 21.0109 170.588 21.2616 170.217 21.4255C169.855 21.5798 169.489 21.6955 169.117 21.7726C169.05 21.7726 169.011 21.8016 169.002 21.8498C168.987 21.9173 169.011 21.9607 169.079 21.9848C170.414 22.708 171.181 23.5276 171.374 24.4533C171.451 24.892 171.432 25.3934 171.316 25.9575C171.094 27.0375 170.684 27.7944 170.082 28.2331C169.744 28.4356 169.489 28.5803 169.31 28.6574C168.062 29.1829 166.634 29.2793 165.029 28.9467L163.1 28.4838C163.1 28.4838 162.874 28.4453 162.426 28.3681C161.972 28.3006 161.293 28.1849 160.381 28.021ZM166.225 21.117C167.073 21.3002 167.874 21.2616 168.635 21.0012C168.876 20.9241 169.127 20.7409 169.387 20.442C169.657 20.1479 169.855 19.685 169.985 19.0535C170.072 18.6292 170.067 18.2146 169.966 17.7999C169.874 17.3757 169.648 16.9996 169.291 16.6621C168.929 16.3294 168.394 16.0836 167.69 15.9293C167.16 15.828 166.789 15.828 166.572 15.9293C166.35 16.0354 166.21 16.2523 166.148 16.585L165.415 20.172C165.309 20.6734 165.579 20.9916 166.225 21.117ZM165.511 28.1753C166.051 28.291 166.591 28.2572 167.131 28.0789C167.681 27.8956 168.158 27.5967 168.558 27.1725C168.968 26.7482 169.233 26.2468 169.349 25.6682C169.513 24.8583 169.45 24.1929 169.156 23.6626C168.872 23.1226 168.467 22.6983 167.941 22.3898C167.411 22.0812 166.88 21.8787 166.34 21.7726C165.94 21.6859 165.627 21.6955 165.395 21.8112C165.164 21.9269 165.029 22.0764 164.99 22.2548L164.142 26.3625C164.036 26.9169 164.094 27.3364 164.315 27.616C164.547 27.886 164.942 28.0692 165.511 28.1753Z" fill="white"/>
<path d="M185.267 35.4111C184.39 35.0351 183.628 34.5144 182.972 33.849C182.326 33.1934 181.825 32.4412 181.468 31.5927C181.106 30.7345 180.918 29.8378 180.909 28.9121C180.894 27.9864 181.082 27.0704 181.468 26.1543C181.969 24.9587 182.673 23.9703 183.589 23.1844C184.515 22.4034 185.624 21.9116 186.926 21.7188C188.237 21.5259 189.592 21.7284 190.995 22.3166C191.867 22.6927 192.62 23.1989 193.251 23.8401C193.892 24.4717 194.379 25.1997 194.717 26.0193C195.049 26.8438 195.223 27.7164 195.238 28.6421C195.247 29.5581 195.054 30.4838 194.659 31.4191C193.888 33.2416 192.663 34.5674 190.995 35.3919C190.194 35.8017 189.298 36.0138 188.295 36.0283C187.292 36.0524 186.28 35.845 185.267 35.4111ZM185.865 34.7747C187.263 35.3774 188.546 35.3533 189.703 34.6976C190.86 34.0515 191.824 32.8318 192.595 31.0334C193.097 29.8378 193.348 28.7096 193.348 27.6393C193.357 26.5593 193.126 25.624 192.653 24.8237C192.176 24.0281 191.458 23.4158 190.493 22.9916C189.539 22.5962 188.613 22.4902 187.716 22.683C186.815 22.8759 186 23.3146 185.267 23.9944C184.544 24.679 183.961 25.5372 183.512 26.5786C183.175 27.3645 182.977 28.1744 182.914 29.0085C182.847 29.8474 182.914 30.6477 183.107 31.4191C183.31 32.1761 183.647 32.851 184.11 33.4441C184.573 34.0323 185.156 34.4758 185.865 34.7747Z" fill="white"/>
<path d="M199.56 42.4788C199.252 42.257 199.145 42.0786 199.252 41.9388C199.329 41.8231 199.522 41.8231 199.83 41.9388C200.356 42.1413 200.799 42.2329 201.161 42.2088C201.518 42.1799 201.821 41.9822 202.067 41.611L207.621 33.5691C207.891 33.1593 207.997 32.8556 207.949 32.6627C207.896 32.4602 207.698 32.171 207.351 31.7949C206.966 31.4478 206.831 31.1874 206.946 31.0042C207.033 30.8789 207.255 30.9271 207.602 31.1585L209.492 32.5663L211.729 33.9934C212.062 34.2393 212.182 34.4273 212.095 34.5527C211.98 34.7359 211.748 34.7359 211.401 34.5527C211.025 34.3984 210.755 34.2923 210.591 34.2248C210.422 34.1477 210.23 34.085 210.013 34.032C209.627 33.9548 209.323 34.0802 209.106 34.3984L203.475 42.5752C203.215 42.9609 203.113 43.2936 203.166 43.5781C203.229 43.8577 203.538 44.1952 204.092 44.5809L206.618 46.3165C206.667 46.3551 206.85 46.4033 207.158 46.4708C207.915 46.6106 208.745 46.4226 209.646 45.9115C210.003 45.6416 210.254 45.5548 210.398 45.6608C210.524 45.7476 210.519 45.9019 210.379 46.1237C210.35 46.1092 210.331 46.114 210.321 46.143L210.302 46.1815C209.362 46.977 208.701 47.6086 208.316 48.0715C208.161 48.2354 208.017 48.274 207.891 48.1872L201.971 44.0216L199.56 42.4788Z" fill="white"/>
<path d="M219.386 58.8663C218.73 58.172 218.233 57.391 217.901 56.5328C217.563 55.6842 217.399 54.7971 217.399 53.8715C217.399 52.9458 217.573 52.0538 217.92 51.1908C218.267 50.3182 218.798 49.542 219.521 48.8573C220.446 47.9606 221.478 47.329 222.626 46.9674C223.783 46.6106 225.002 46.5962 226.29 46.9288C227.548 47.2374 228.71 47.9413 229.78 49.0309C230.436 49.7252 230.928 50.4918 231.265 51.3258C231.612 52.1647 231.776 53.0229 231.767 53.91C231.752 54.7971 231.574 55.665 231.227 56.5135C230.88 57.362 230.34 58.1383 229.607 58.847C228.18 60.2211 226.531 60.9683 224.67 61.0841C223.783 61.1612 222.867 61.0069 221.931 60.6212C221.006 60.2355 220.157 59.6473 219.386 58.8663ZM220.176 58.4999C221.242 59.6039 222.438 60.0861 223.763 59.9462C225.084 59.8016 226.449 59.0495 227.852 57.6899C228.787 56.7883 229.462 55.8434 229.877 54.855C230.301 53.8763 230.446 52.9265 230.32 52.0008C230.205 51.0751 229.78 50.2362 229.048 49.4745C228.339 48.7416 227.529 48.2884 226.618 48.1052C225.702 47.9268 224.786 48.004 223.86 48.3367C222.934 48.6741 222.057 49.2334 221.237 50.0145C220.62 50.6219 220.119 51.3017 219.733 52.0587C219.347 52.806 219.096 53.5677 218.981 54.3536C218.865 55.1346 218.904 55.8867 219.096 56.6099C219.289 57.3283 219.646 57.9599 220.176 58.4999Z" fill="white"/>
<path d="M231.42 73.9297C230.774 72.951 230.403 72.0687 230.301 71.2877C230.234 71.0563 230.248 70.8682 230.34 70.7284C230.658 70.227 231.27 69.6822 232.172 69.0892C232.273 69.0265 232.408 68.9928 232.577 68.9928C232.741 68.9831 232.866 69.0313 232.943 69.1471C233.006 69.2387 232.731 69.6629 232.114 70.4199C231.314 71.4227 231.328 72.546 232.153 73.7948C232.538 74.3974 233.025 74.7494 233.618 74.8554C234.207 74.9711 234.819 74.8217 235.45 74.4119C236.439 73.7658 236.945 72.1603 236.974 69.5906C236.984 68.5782 237.109 67.7103 237.34 66.9871C237.581 66.2688 238.064 65.6758 238.787 65.2129C239.274 64.8947 239.828 64.7453 240.445 64.7694C241.072 64.7983 241.704 64.9911 242.335 65.3479C242.962 65.7095 243.497 66.2302 243.936 66.91C244.331 67.5175 244.596 68.043 244.727 68.4914C244.842 68.9301 244.91 69.1808 244.939 69.2435C245.016 69.3592 244.963 69.5279 244.784 69.7449C244.601 69.9522 244.379 70.1595 244.109 70.3813C243.849 70.5983 243.613 70.7766 243.396 70.9213C243.087 71.1238 242.904 71.1816 242.856 71.0948C242.625 70.7477 242.649 70.4295 242.933 70.1499C243.381 69.7545 243.632 69.2772 243.685 68.7228C243.733 68.1732 243.589 67.6332 243.242 67.1028C242.88 66.5629 242.393 66.2109 241.776 66.0422C241.168 65.8782 240.585 65.9795 240.021 66.3507C239.659 66.5822 239.404 66.9389 239.25 67.4114C239.105 67.8742 239.023 68.3757 238.999 68.9156C238.97 69.4556 238.951 69.9522 238.941 70.4006C238.951 72.9559 238.276 74.6819 236.916 75.569C236.376 75.9257 235.778 76.1282 235.123 76.1668C234.477 76.2054 233.835 76.0415 233.194 75.6847C232.548 75.3376 231.96 74.7494 231.42 73.9297Z" fill="white"/>
<path d="M58.0163 207.669C57.4088 206.945 56.9798 206.15 56.7242 205.277C56.4783 204.4 56.406 203.513 56.5121 202.616C56.6133 201.729 56.8833 200.871 57.3221 200.032C57.756 199.198 58.349 198.465 59.0963 197.833C59.8388 197.192 60.6777 196.753 61.6033 196.522C62.529 196.281 63.4643 196.213 64.419 196.329C65.3832 196.445 66.2944 196.744 67.1574 197.216C68.0301 197.679 68.8015 198.31 69.4716 199.106C70.1129 199.868 70.5323 200.485 70.7252 200.957C70.9277 201.459 71.1784 201.951 71.4773 202.442C71.5544 202.529 71.5014 202.683 71.323 202.905C71.1542 203.137 70.9373 203.378 70.6673 203.638C70.3973 203.908 70.1466 204.139 69.9152 204.332L69.6452 204.564C69.5536 204.641 69.4765 204.703 69.4138 204.756C69.3463 204.805 69.2884 204.853 69.2402 204.891C69.1341 204.916 69.057 204.882 69.0088 204.795C68.8545 204.564 68.9365 204.26 69.2595 203.889C69.6838 203.426 69.9152 202.905 69.9538 202.327C70.0309 201.324 69.6114 200.278 68.7002 199.183C68.2229 198.643 67.6588 198.238 67.0031 197.968C66.3571 197.698 65.6773 197.573 64.9589 197.582C64.2357 197.582 63.5174 197.717 62.799 197.987C62.0758 198.248 61.4105 198.638 60.7934 199.164C59.9159 199.911 59.212 200.784 58.672 201.787C58.132 202.789 57.8717 203.836 57.9006 204.93C57.9006 205.996 58.2381 206.941 58.9227 207.765C60.0654 209.1 61.5648 209.539 63.4161 209.076C63.5415 209.076 63.6765 209.1 63.8211 209.153C63.9368 209.202 64.0236 209.235 64.0911 209.25C64.0911 209.25 64.0959 209.25 64.1104 209.25C64.1731 209.327 64.1007 209.448 63.8983 209.616C63.0208 210.204 62.2638 210.532 61.6226 210.6C61.4924 210.624 61.1067 210.426 60.4655 210.002C59.7713 209.539 58.9516 208.758 58.0163 207.669Z" fill="white"/>
<path d="M73.1331 222.205C72.3858 221.612 71.788 220.913 71.3396 220.103C70.9009 219.293 70.6261 218.425 70.5104 217.499C70.3947 216.588 70.4525 215.682 70.6839 214.78C70.925 213.883 71.3589 213.044 71.976 212.273C72.786 211.261 73.7358 210.499 74.8302 209.997C75.9343 209.486 77.1348 209.318 78.4365 209.496C79.7479 209.641 80.9918 210.185 82.1778 211.135C82.9203 211.743 83.5133 212.442 83.952 213.237C84.4004 214.023 84.6704 214.852 84.762 215.725C84.8633 216.602 84.7909 217.48 84.5499 218.367C84.3185 219.264 83.8845 220.108 83.2578 220.893C82.0235 222.446 80.4856 223.391 78.6487 223.728C77.7615 223.921 76.8359 223.887 75.8716 223.632C74.9074 223.372 73.9913 222.899 73.1331 222.205ZM73.866 221.761C75.0616 222.711 76.3007 223.034 77.588 222.725C78.8849 222.427 80.1432 221.515 81.3678 219.987C82.1778 218.97 82.7274 217.948 83.0264 216.921C83.3205 215.894 83.3446 214.93 83.1035 214.028C82.8721 213.117 82.3417 212.331 81.5221 211.675C80.7122 211.034 79.8443 210.682 78.9186 210.614C78.0026 210.552 77.1059 210.749 76.2187 211.212C75.3413 211.666 74.5506 212.331 73.8467 213.218C73.3067 213.888 72.8872 214.621 72.5932 215.416C72.3087 216.202 72.1592 216.983 72.1496 217.769C72.1351 218.55 72.2701 219.293 72.5546 219.987C72.8342 220.691 73.273 221.284 73.866 221.761Z" fill="white"/>
<path d="M97.5082 237.378C97.378 237.311 97.2093 237.089 97.0068 236.703C96.814 236.327 96.679 235.864 96.6018 235.315C96.5343 235.016 96.2933 233.907 95.869 231.978C95.4544 230.064 94.8662 227.326 94.0948 223.763C94.0273 223.483 93.9453 223.315 93.8441 223.262C93.7284 223.199 93.603 223.3 93.4777 223.57C92.6677 225.113 91.9541 226.473 91.337 227.639C90.7199 228.796 90.2088 229.775 89.8135 230.571C89.3748 231.429 89.5146 232.142 90.2378 232.711C90.609 232.981 90.7633 233.184 90.7006 233.328C90.6235 233.468 90.4017 233.444 90.0449 233.251L88.3093 232.287L86.5736 231.496C86.1976 231.303 86.0529 231.135 86.1301 230.995C86.1927 230.855 86.4242 230.855 86.8243 230.995C87.104 231.043 87.3691 231.019 87.615 230.918C87.8561 230.831 88.0875 230.686 88.3093 230.493C88.5262 230.301 88.6853 230.142 88.7914 230.011C89.9581 228.237 91.3418 225.783 92.9377 222.644C93.2559 222.027 93.3427 221.502 93.1884 221.063C93.0437 220.615 92.7641 220.171 92.3398 219.732C91.9156 219.299 91.742 219 91.8191 218.845C91.9059 218.667 92.094 218.648 92.3784 218.787L95.2519 220.369C95.3772 220.436 95.4688 220.62 95.5219 220.928C95.5315 220.996 95.5845 221.266 95.6761 221.738C95.7629 222.215 95.8786 222.813 96.0233 223.532C96.1776 224.255 96.3367 225.036 96.5054 225.884C96.6838 226.723 96.8574 227.572 97.0261 228.43C97.2045 229.279 97.3636 230.069 97.5082 230.802C97.6625 231.535 97.7879 232.142 97.8939 232.634C97.9952 233.121 98.0578 233.415 98.0868 233.521C98.188 233.907 98.2989 234.124 98.4146 234.177C98.5014 234.225 98.6171 234.129 98.7618 233.888C98.9787 233.473 99.3451 232.774 99.861 231.786C100.372 230.797 101.037 229.505 101.847 227.909L102.677 226.27C102.778 226.029 102.763 225.74 102.638 225.402C102.522 225.055 102.315 224.78 102.021 224.573C101.712 224.332 101.597 224.129 101.674 223.975C101.751 223.835 101.973 223.859 102.349 224.052L103.409 224.592L105.608 225.634C105.979 225.826 106.129 225.99 106.051 226.116C105.96 226.309 105.671 226.323 105.184 226.154C104.706 226.029 104.359 225.995 104.142 226.058C103.92 226.111 103.684 226.357 103.429 226.791C103.299 227.037 102.792 228.015 101.905 229.722C101.028 231.419 99.7742 233.873 98.1446 237.089C97.9759 237.407 97.7638 237.504 97.5082 237.378Z" fill="white"/>
<path d="M108.011 241.148C107.634 241.033 107.471 240.888 107.509 240.724C107.557 240.584 107.837 240.546 108.338 240.608C108.825 240.647 109.197 240.589 109.457 240.435C109.727 240.271 109.929 239.948 110.074 239.471L112.62 230.927C112.812 230.286 112.87 229.79 112.793 229.442C112.726 229.086 112.475 228.787 112.041 228.555C111.564 228.338 111.356 228.131 111.424 227.938C111.463 227.798 111.679 227.784 112.08 227.9L115.532 228.999L119.022 229.982L119.813 230.214L120.102 230.291C120.334 230.358 120.44 230.455 120.43 230.58C120.392 230.773 120.324 231.043 120.237 231.39C120.16 231.737 120.054 232.152 119.929 232.624C119.837 232.909 119.726 233.029 119.601 232.991C119.447 232.943 119.374 232.832 119.389 232.663C119.374 232.137 119.283 231.708 119.119 231.371C118.964 231.024 118.598 230.768 118.019 230.599L115.455 229.828C115.247 229.765 115.078 229.78 114.953 229.867C114.823 229.944 114.727 230.04 114.664 230.156C114.625 230.262 114.553 230.445 114.452 230.715C114.384 230.845 114.307 231.062 114.22 231.371C114.129 231.67 114.013 232.056 113.873 232.528C113.743 232.991 113.627 233.386 113.526 233.704C113.434 234.013 113.377 234.244 113.352 234.399C113.261 234.707 113.28 234.876 113.41 234.9L115.782 235.556C116.385 235.739 116.872 235.594 117.248 235.131C117.287 235.083 117.354 235.03 117.46 234.977C117.576 234.915 117.663 234.895 117.73 234.919C117.769 234.934 117.812 234.972 117.865 235.035C117.889 235.103 117.875 235.223 117.827 235.401C117.774 235.57 117.716 235.739 117.653 235.903C117.6 236.057 117.542 236.231 117.479 236.424C117.388 236.722 117.277 237.171 117.152 237.774C117.074 238.005 116.968 238.111 116.843 238.082C116.65 238.019 116.544 237.812 116.534 237.465C116.52 236.886 116.274 236.534 115.802 236.404C115.802 236.404 115.715 236.38 115.551 236.327C115.382 236.279 115.132 236.187 114.799 236.057C114.654 236.019 114.471 235.975 114.24 235.922C114.018 235.859 113.762 235.797 113.468 235.729C113.145 235.652 112.938 235.778 112.851 236.096C112.35 237.769 111.983 239.056 111.752 239.953C111.646 240.416 111.655 240.792 111.771 241.091C111.896 241.399 112.176 241.669 112.6 241.901C113.049 242.103 113.246 242.277 113.198 242.421C113.16 242.585 112.938 242.614 112.542 242.498C112.359 242.445 112.176 242.383 111.983 242.306C111.79 242.238 111.617 242.171 111.463 242.093C111.14 241.949 110.855 241.847 110.614 241.785L108.011 241.148Z" fill="white"/>
<path d="M125.268 245.516C124.854 245.463 124.661 245.352 124.69 245.188C124.714 245.034 124.969 244.947 125.461 244.918C125.987 244.894 126.387 244.783 126.657 244.59C126.937 244.397 127.11 244.06 127.178 243.568L128.393 234.157C128.455 233.67 128.397 233.308 128.219 233.077C128.05 232.836 127.727 232.628 127.255 232.46C126.763 232.32 126.541 232.146 126.58 231.939C126.589 231.785 126.792 231.737 127.178 231.785L130.9 232.344L135.547 232.884C135.779 232.913 135.894 232.99 135.894 233.115C135.957 234.273 135.976 234.976 135.952 235.218C135.914 235.488 135.788 235.613 135.586 235.584C135.48 235.574 135.417 235.497 135.393 235.353C135.301 234.88 135.205 234.518 135.104 234.273C135.012 234.017 134.863 233.824 134.66 233.694C134.453 233.554 134.149 233.458 133.754 233.405L131.015 233.058C130.871 233.033 130.697 233.072 130.495 233.173C130.302 233.279 130.196 233.424 130.186 233.617L129.608 238.033C129.579 238.163 129.598 238.279 129.665 238.38C129.743 238.472 129.824 238.525 129.916 238.535L131.922 238.805C132.548 238.882 133.007 238.67 133.291 238.168C133.33 238.12 133.397 238.052 133.503 237.975C133.604 237.888 133.686 237.85 133.754 237.86C133.792 237.86 133.836 237.898 133.889 237.975C133.937 238.052 133.956 238.144 133.947 238.245L133.715 239.364L133.6 240.791C133.561 241.037 133.474 241.148 133.349 241.119C133.127 241.095 132.992 240.916 132.944 240.579C132.814 239.923 132.529 239.566 132.095 239.499L130.167 239.248C129.897 239.224 129.704 239.243 129.588 239.306C129.482 239.359 129.415 239.499 129.376 239.73L128.855 243.741C128.788 244.257 128.846 244.629 129.029 244.86C129.222 245.091 129.559 245.241 130.051 245.304L132.23 245.593C132.732 245.656 133.122 245.651 133.407 245.574C133.701 245.506 133.956 245.371 134.178 245.169C134.409 244.952 134.646 244.629 134.892 244.204C135.007 244.079 135.128 244.021 135.258 244.031C135.422 244.06 135.494 244.146 135.47 244.301C135.432 244.585 135.354 244.899 135.239 245.246C135.133 245.593 134.998 245.983 134.834 246.422C134.728 246.639 134.612 246.74 134.487 246.731L127.679 245.728L125.268 245.516Z" fill="white"/>
<path d="M143.5 247.079C143.1 247.089 142.902 247.012 142.902 246.848C142.902 246.694 143.158 246.568 143.674 246.462C144.185 246.375 144.57 246.211 144.831 245.98C145.086 245.739 145.207 245.377 145.197 244.9L145.062 235.373C145.062 234.886 144.951 234.539 144.734 234.332C144.527 234.115 144.18 233.961 143.693 233.869C143.191 233.806 142.941 233.671 142.941 233.464C142.941 233.31 143.138 233.228 143.539 233.213L146.007 233.252L148.321 233.155C148.717 233.146 148.919 233.213 148.919 233.368C148.919 233.575 148.668 233.724 148.167 233.811C147.666 233.917 147.304 234.081 147.087 234.313C146.865 234.534 146.759 234.881 146.759 235.354L146.894 244.881C146.904 245.358 147.048 245.71 147.318 245.941C147.598 246.163 148.003 246.317 148.533 246.404C149.035 246.481 149.285 246.597 149.285 246.751C149.285 246.92 149.078 247.002 148.668 247.002L146.2 246.944L143.5 247.079Z" fill="white"/>
<path d="M161.28 245.836C160.865 245.913 160.648 245.87 160.624 245.701C160.595 245.547 160.827 245.387 161.318 245.219C162.321 244.847 162.745 244.226 162.591 243.348L160.971 233.879C160.894 233.431 160.759 233.175 160.566 233.108C160.383 233.045 160.065 233.05 159.602 233.127L158.888 233.243L157.924 233.416C157.548 233.484 157.215 233.609 156.921 233.802C156.642 233.985 156.454 234.188 156.362 234.419C156.299 234.665 156.198 234.892 156.054 235.094C155.899 235.301 155.755 235.417 155.61 235.441C155.533 235.456 155.485 235.383 155.456 235.229C155.432 235.104 155.432 234.949 155.456 234.766C155.663 234.101 155.755 233.296 155.726 232.356C155.702 232.023 155.784 231.835 155.976 231.796C156.092 231.787 156.304 231.97 156.613 232.356C156.815 232.616 157.326 232.679 158.136 232.548L166.062 231.179C166.588 231.092 166.969 230.924 167.2 230.678C167.316 230.601 167.432 230.485 167.547 230.331C167.673 230.167 167.779 230.037 167.856 229.945C167.943 229.844 168.034 229.786 168.126 229.771C168.213 229.762 168.285 229.916 168.338 230.234L168.357 230.408C168.343 230.885 168.338 231.295 168.338 231.642C168.338 231.989 168.357 232.288 168.396 232.529L168.435 232.78C168.459 232.925 168.454 233.069 168.415 233.223C168.377 233.378 168.304 233.469 168.203 233.493C168.049 233.522 167.875 233.257 167.682 232.703C167.461 232.1 166.718 231.907 165.445 232.124C164.799 232.23 164.259 232.327 163.825 232.413C163.387 232.505 163.044 232.582 162.803 232.645C162.582 232.683 162.524 233.002 162.63 233.59L164.25 243.059C164.404 243.96 165.045 244.404 166.178 244.389C166.641 244.389 166.882 244.467 166.911 244.621C166.935 244.79 166.757 244.905 166.371 244.968L163.922 245.296L161.28 245.836Z" fill="white"/>
<path d="M178.244 242.132C177.859 242.286 177.637 242.277 177.569 242.113C177.507 241.935 177.666 241.698 178.052 241.399C178.746 240.859 179.122 240.146 179.189 239.259C179.353 235.918 179.421 232.355 179.382 228.575C179.392 228.102 179.368 227.774 179.305 227.591C179.238 227.437 179.218 227.355 179.247 227.341C179.633 227.008 179.85 226.776 179.903 226.646C179.942 226.584 179.961 226.526 179.961 226.473C179.97 226.425 179.98 226.386 179.98 226.357C180.019 226.217 180.048 226.14 180.077 226.126C180.139 226.102 180.236 226.164 180.366 226.318C181.417 227.668 182.569 229.115 183.818 230.658C185.062 232.191 186.402 233.82 187.829 235.556C188.355 236.188 188.817 236.573 189.218 236.713C189.613 236.858 190.057 236.877 190.548 236.771C191.021 236.694 191.3 236.766 191.378 236.983C191.426 237.113 191.267 237.253 190.895 237.407L188.099 238.314L186.036 239.104C185.65 239.249 185.423 239.239 185.361 239.085C185.283 238.883 185.457 238.675 185.881 238.468C186.624 238.044 186.913 237.6 186.749 237.137C186.605 236.766 185.968 235.821 184.84 234.302C184.748 234.177 184.541 234.167 184.223 234.283L180.462 235.691C180.318 235.758 180.25 235.922 180.25 236.192C180.289 237.904 180.366 238.912 180.482 239.22C180.597 239.519 180.795 239.722 181.079 239.837C181.359 239.943 181.716 239.967 182.14 239.914C182.564 239.866 182.801 239.914 182.854 240.069C182.902 240.213 182.738 240.358 182.352 240.512L180.578 241.129L178.244 242.132ZM180.713 234.65L183.779 233.492C183.958 233.43 184.035 233.367 184.011 233.3L183.895 233.107L180.597 228.999C180.404 228.782 180.293 228.681 180.269 228.691C180.231 228.705 180.216 228.84 180.231 229.096V234.669C180.269 234.76 180.428 234.756 180.713 234.65Z" fill="white"/>
<path d="M209.319 227.426C208.75 227.773 208.162 227.961 207.545 227.985C206.938 228 206.34 227.937 205.752 227.792C205.159 227.638 204.614 227.455 204.112 227.233C203.621 227.016 203.225 226.838 202.917 226.693C202.579 226.553 202.28 226.418 202.01 226.288C201.74 226.148 201.509 226.018 201.316 225.902C200.492 225.531 199.508 225.608 198.365 226.134L198.327 226.153C198.173 226.245 198.163 226.414 198.308 226.655L200.198 229.759C200.747 230.647 201.47 230.917 202.357 230.569C202.791 230.391 203.052 230.367 203.129 230.492C203.216 230.637 203.09 230.815 202.743 231.032C202.574 231.138 202.401 231.24 202.222 231.341C202.054 231.432 201.885 231.51 201.721 231.572C201.398 231.717 201.128 231.857 200.911 231.997L198.635 233.539C198.288 233.747 198.067 233.78 197.98 233.636C197.903 233.51 198.057 233.279 198.443 232.942C198.828 232.594 199.06 232.262 199.137 231.939C199.214 231.62 199.122 231.244 198.867 230.82L194.219 223.222C193.872 222.643 193.544 222.267 193.236 222.084C192.927 221.891 192.541 221.886 192.079 222.065C191.606 222.272 191.317 222.287 191.211 222.103C191.134 221.978 191.278 221.804 191.635 221.583L193.39 220.522L195.396 219.153C198.095 217.509 200.048 217.668 201.258 219.635C202.039 220.937 201.952 222.373 200.988 223.955C200.95 224.022 200.935 224.066 200.95 224.09C200.959 224.104 200.988 224.123 201.027 224.148C201.065 224.162 201.094 224.176 201.123 224.186C201.649 224.432 202.073 224.63 202.396 224.784C202.729 224.938 203.023 225.073 203.283 225.189C203.539 225.295 203.804 225.396 204.074 225.497C204.344 225.604 204.691 225.719 205.115 225.845C205.54 226.013 205.949 226.148 206.349 226.25C206.759 226.356 207.169 226.452 207.584 226.539C208.018 226.616 208.413 226.597 208.76 226.481C209.107 226.365 209.517 226.163 209.994 225.864C210.187 225.763 210.322 225.777 210.399 225.902C210.539 226.124 210.476 226.38 210.206 226.674C209.946 226.973 209.652 227.223 209.319 227.426ZM198.732 225.227C199.282 224.895 199.686 224.49 199.947 224.013C200.202 223.526 200.313 223.005 200.275 222.45C200.246 221.886 200.072 221.346 199.754 220.831C199.277 220.059 198.722 219.538 198.095 219.268C197.469 218.998 196.683 219.148 195.743 219.712C195.294 219.996 195.044 220.266 194.991 220.522C194.928 220.768 194.991 221.057 195.183 221.39C195.521 221.983 195.873 222.595 196.244 223.222C196.62 223.853 197.006 224.504 197.401 225.17C197.57 225.454 197.739 225.589 197.922 225.575C198.115 225.551 198.385 225.435 198.732 225.227Z" fill="white"/>
<path d="M216.465 221.452C216.156 221.713 215.949 221.775 215.847 221.645C215.741 221.529 215.852 221.269 216.175 220.854C216.522 220.459 216.72 220.093 216.773 219.755C216.821 219.408 216.696 219.056 216.387 218.695L210.197 211.443C209.879 211.072 209.575 210.874 209.29 210.846C208.996 210.821 208.625 210.923 208.172 211.154C207.748 211.424 207.468 211.482 207.323 211.328C207.222 211.212 207.323 211.019 207.632 210.749L209.56 209.206L211.258 207.644C211.566 207.389 211.773 207.316 211.875 207.432C212.019 207.586 211.913 207.866 211.566 208.261C211.272 208.662 211.113 209.023 211.084 209.341C211.045 209.65 211.18 209.987 211.489 210.344L217.679 217.595C217.988 217.957 218.316 218.135 218.663 218.135C219.02 218.126 219.425 217.981 219.878 217.711C220.326 217.455 220.601 217.383 220.707 217.499C220.808 217.629 220.698 217.827 220.379 218.097L218.451 219.62L216.465 221.452Z" fill="white"/>
<path d="M226.786 212.137C226.525 212.46 226.332 212.561 226.188 212.446C226.062 212.33 226.087 212.05 226.265 211.597C226.612 210.802 226.593 209.992 226.207 209.167C224.741 206.159 223.083 203.015 221.232 199.737C221.015 199.312 220.827 199.038 220.672 198.907C220.547 198.806 220.489 198.744 220.499 198.715C220.706 198.228 220.788 197.919 220.749 197.789C220.749 197.712 220.745 197.654 220.73 197.615C220.706 197.567 220.692 197.529 220.692 197.5C220.643 197.36 220.624 197.278 220.634 197.249C220.672 197.201 220.788 197.21 220.981 197.288C222.562 197.943 224.274 198.647 226.111 199.39C227.948 200.137 229.91 200.923 231.993 201.742C232.75 202.041 233.343 202.157 233.767 202.089C234.191 202.012 234.586 201.82 234.962 201.511C235.348 201.193 235.628 201.116 235.811 201.28C235.912 201.357 235.83 201.559 235.56 201.877L233.555 204.018L232.147 205.734C231.877 206.033 231.674 206.13 231.549 206.024C231.38 205.884 231.433 205.619 231.703 205.233C232.152 204.5 232.19 203.975 231.819 203.652C231.51 203.396 230.493 202.875 228.772 202.089C228.627 202.027 228.449 202.128 228.232 202.398L225.629 205.445C225.527 205.561 225.542 205.744 225.667 205.985C226.525 207.451 227.085 208.294 227.345 208.511C227.576 208.704 227.846 208.781 228.155 208.743C228.463 208.704 228.791 208.56 229.138 208.299C229.495 208.068 229.736 208.005 229.852 208.106C229.968 208.212 229.891 208.415 229.621 208.724L228.348 210.151L226.786 212.137ZM225.32 204.384L227.441 201.897C227.567 201.757 227.605 201.665 227.557 201.627L227.364 201.511L222.485 199.505C222.215 199.404 222.075 199.365 222.061 199.39C222.037 199.419 222.09 199.544 222.215 199.775L224.838 204.5L224.934 204.654C225.002 204.707 225.127 204.616 225.32 204.384Z" fill="white"/>
<path d="M84.4863 98.786C81.1018 106.105 79.4143 112.642 79.4143 118.399C79.4143 130.278 83.4931 137.559 91.6603 140.23C94.0372 140.861 96.4719 141.174 98.9694 141.174C101.476 141.174 103.988 140.861 106.51 140.23C111.572 138.894 116.104 136.888 120.106 134.213C124.117 131.542 126.648 128.977 127.704 126.518C130.52 119.99 133.538 116.721 136.768 116.721C138.388 116.721 139.478 117.637 140.046 119.46C140.326 120.154 140.398 120.925 140.259 121.774C139.55 127.251 138.031 132.684 135.707 138.07C133.393 143.445 130.124 149.607 125.911 156.564C134.343 156.641 142.042 157.552 149.014 159.302C150.48 159.659 151.213 160.156 151.213 160.787C151.213 161.559 150.195 161.699 148.165 161.212C143.315 159.939 136.324 159.302 127.183 159.302C126.335 159.302 125.419 159.302 124.445 159.302C120.149 165.483 114.436 170.951 107.3 175.695C100.165 180.439 93.2272 183.688 86.4919 185.453C82.7603 186.441 79.5927 186.938 76.9844 186.938C74.3858 186.938 72.2114 186.615 70.4661 185.974C65.3363 184.084 62.7714 181.586 62.7714 178.491C62.7714 177.575 63.0172 176.591 63.5042 175.54C65.3941 171.322 70.3793 167.421 78.4694 163.834C84.5876 161.096 91.0336 159.23 97.8123 158.242C104.601 157.263 112.209 156.704 120.646 156.564C125.853 147.78 129.401 139.14 131.291 130.626L131.715 128.832C128.345 132.072 124.532 134.941 120.279 137.433C116.022 139.931 112.315 141.671 109.152 142.659C104.085 144.27 99.9191 145.07 96.6552 145.07C93.3863 145.07 90.5273 144.617 88.0733 143.701C83.5703 142.158 79.9158 139.068 77.1001 134.425C74.0772 129.502 72.5682 123.635 72.5682 116.817C72.5682 110.005 74.3617 102.696 77.9487 94.8904C73.3058 90.1077 70.9868 85.0309 70.9868 79.6552C70.9868 74.2844 73.166 69.1738 77.5244 64.3236C78.373 63.398 78.9901 63.0653 79.3758 63.3208C79.7615 63.5667 79.5976 64.179 78.8936 65.1529C75.7309 69.3715 74.1495 73.6287 74.1495 77.9196C74.1495 82.8325 75.972 87.4368 79.6265 91.7277C80.0507 90.8165 80.827 89.4472 81.96 87.62C87.4369 78.6235 94.8858 71.7291 104.311 66.9464C111.688 63.1569 118.818 61.2573 125.698 61.2573C127.598 61.2573 129.502 61.402 131.407 61.6816C140.471 63.0846 146.584 66.8066 149.747 72.8476C151.005 75.239 151.637 77.8232 151.637 80.6002C151.637 83.3773 150.759 86.3471 149.014 89.5099C145.065 96.3271 138.176 101.11 128.34 103.858C123.134 105.324 117.83 106.056 112.43 106.056C101.038 106.056 91.723 103.636 84.4863 98.786ZM128.128 64.5165C122.082 64.5165 115.689 66.5607 108.94 70.6491C99.0272 76.5504 91.3325 85.0165 85.8555 96.0475C89.1581 98.5835 92.9717 100.377 97.2916 101.428C101.611 102.484 105.073 103.009 107.686 103.009C122.507 103.009 133.711 99.0367 141.3 91.0913C145.104 87.0173 147.008 82.9433 147.008 78.8646C147.008 72.3993 143.388 68.0408 136.151 65.7893C133.475 64.9408 130.799 64.5165 128.128 64.5165ZM68.1326 179.243C68.1326 181.21 69.82 182.541 73.2046 183.235C74.3231 183.515 75.5477 183.659 76.888 183.659C81.8732 183.659 88.1987 181.866 95.8645 178.279C105.57 173.853 113.264 167.566 118.949 159.418C111.567 159.621 105.107 160.18 99.5672 161.096C91.5446 162.292 83.9126 165.208 76.6759 169.851C70.9771 173.501 68.1326 176.63 68.1326 179.243Z" fill="white"/>
<path d="M242.291 156.178C242.291 160.18 240.855 163.892 237.991 167.325C233.927 172.223 228.503 175.762 221.714 177.932C216.662 179.537 211.754 180.342 207 180.342C205.25 180.342 203.533 180.236 201.851 180.034C190.858 178.631 181.548 176.215 173.926 172.783C166.983 177.884 159.66 180.439 151.96 180.439C142.858 180.439 137.227 177.917 135.067 172.879C134.565 171.698 134.315 170.305 134.315 168.694C134.315 167.074 135.124 165.358 136.744 163.545C139.261 160.744 142.761 159.341 147.235 159.341C150.176 159.341 152.838 159.76 155.219 160.594C157.596 161.433 160.533 162.803 164.033 164.702C167.543 166.592 170.136 167.957 171.824 168.791C174.895 165.782 178.077 161.597 181.37 156.236C184.658 150.875 187.546 145.624 190.029 140.48C192.522 135.341 195.689 129.618 199.536 123.317C203.393 117.02 207.313 111.664 211.3 107.252L217.298 100.425C211.768 99.4368 205.674 98.9403 199.016 98.9403C192.367 98.9403 185.053 99.8177 177.069 101.563C166.14 103.877 157.736 108.573 151.864 115.641C148.287 119.913 146.503 123.972 146.503 127.829C146.503 132.949 148.99 136.271 153.966 137.8C155.711 138.291 157.249 138.532 158.575 138.532C159.911 138.532 161.453 138.291 163.203 137.8C164.949 137.313 166.646 136.286 168.295 134.714C169.939 133.133 171.13 131.609 171.862 130.143C172.605 128.668 172.981 127.559 172.981 126.826C172.981 126.094 173.328 125.727 174.022 125.727C174.726 125.795 175.112 126.282 175.179 127.193V127.309C174.408 132.414 171.674 136.295 166.983 138.957C164.115 140.499 161.246 141.271 158.382 141.271L152.905 140.326C145.485 137.742 141.778 132.911 141.778 125.824C141.778 121.002 143.909 116.249 148.18 111.553C155.046 103.853 165.132 99.056 178.439 97.166C184.88 96.2548 191.581 95.7968 198.553 95.7968C205.52 95.7968 212.612 96.5682 219.824 98.111C221.777 96.4284 223.488 95.3098 224.954 94.7554C226.429 94.1913 227.292 93.9069 227.538 93.9069C227.779 93.9069 227.934 93.9406 228.001 94.0033C228.425 94.0033 228.512 94.2347 228.271 94.6975C228.025 95.1507 227.254 95.7968 225.957 96.6453C224.655 97.4842 223.874 98.246 223.604 98.9403C233.117 101.399 239.977 104.899 244.181 109.451C246.418 111.972 247.537 114.542 247.537 117.165C247.537 119.787 246.766 122.429 245.223 125.091C243.203 128.601 239.919 131.252 235.368 133.036C230.817 134.81 226.227 135.808 221.599 136.025C226.082 137.428 230.248 139.391 234.095 141.907C239.558 145.47 242.291 150.229 242.291 156.178ZM205.534 177.392C213.373 177.392 220.027 175.155 225.494 170.681C231.434 165.927 234.404 160.778 234.404 155.233C234.404 149.501 231.362 145.162 225.282 142.216C223.03 141.165 220.278 140.128 217.028 139.111C213.774 138.099 211.151 137.24 209.16 136.546C207.164 135.852 206.026 135.186 205.746 134.54C205.746 133.219 206.759 132.525 208.793 132.458C210.114 132.458 212.139 132.564 214.868 132.766C217.607 132.974 219.95 133.065 221.907 133.036C223.874 132.998 226.237 132.299 229.004 130.934C231.767 129.56 234.134 127.791 236.101 125.631C239.249 122.121 240.826 118.833 240.826 115.757C240.826 109.176 234.659 104.446 222.331 101.563C218.629 106.683 211.975 117.488 202.371 133.981C192.777 150.465 185.391 161.511 180.213 167.113L176.221 170.893C184.137 174.186 192.652 176.288 201.754 177.199C203.075 177.324 204.338 177.392 205.534 177.392ZM169.51 170.777C161.318 166.857 156.136 164.519 153.966 163.757C151.792 162.986 149.636 162.6 147.505 162.6C145.37 162.6 143.673 163.352 142.414 164.856C141.151 166.361 140.524 167.725 140.524 168.945C140.524 170.17 140.799 171.336 141.354 172.455C142.896 175.618 146.117 177.199 151.015 177.199C157.674 177.199 163.84 175.058 169.51 170.777Z" fill="white"/>
</svg>
