<svg width="86" height="72" viewBox="0 0 86 72" fill="none" xmlns="http://www.w3.org/2000/svg">
<mask id="mask0_11_67" style="mask-type:luminance" maskUnits="userSpaceOnUse" x="0" y="0" width="86" height="72">
<path d="M0 0H85.8247V72H0V0Z" fill="white"/>
</mask>
<g mask="url(#mask0_11_67)">
<path d="M84.4149 63.6918H77.4974V38.0764C77.4965 37.9184 77.4887 37.7595 77.4731 37.6016C77.4574 37.4444 77.434 37.2873 77.4028 37.1319C77.3724 36.9757 77.3333 36.822 77.2873 36.671C77.2413 36.5191 77.1875 36.3698 77.1267 36.2231C77.0659 36.0764 76.9982 35.9332 76.9236 35.7934C76.8489 35.6536 76.7673 35.5174 76.6797 35.3854C76.5911 35.2535 76.4965 35.1267 76.3967 35.0035C76.296 34.8811 76.1892 34.7639 76.0772 34.6519C75.9653 34.5391 75.8481 34.4332 75.7248 34.3325C75.6024 34.2318 75.4757 34.1372 75.3437 34.0486C75.2118 33.9609 75.0764 33.8793 74.9366 33.8047C74.7968 33.7292 74.6536 33.6615 74.5069 33.6007C74.3602 33.5399 74.2118 33.487 74.0599 33.4401C73.908 33.3941 73.7543 33.3559 73.5989 33.3247C73.4435 33.2934 73.2864 33.27 73.1293 33.2543C72.9713 33.2387 72.8133 33.2309 72.6545 33.2309H48.4418V23.5382C48.4418 23.447 48.4331 23.3576 48.4158 23.2682C48.3975 23.1788 48.3715 23.092 48.3368 23.0087C48.3021 22.9245 48.2595 22.8446 48.2092 22.7691C48.1588 22.6936 48.1015 22.6233 48.0373 22.559C47.9731 22.4948 47.9028 22.4375 47.8272 22.3872C47.7517 22.3368 47.6718 22.2943 47.5885 22.2587C47.5043 22.224 47.4175 22.1979 47.329 22.1806C47.2396 22.1623 47.1493 22.1536 47.059 22.1536H44.2916V19.2457C44.4852 19.2066 44.6762 19.158 44.8654 19.1024C45.0547 19.046 45.2413 18.9818 45.4253 18.9097C45.6093 18.8377 45.7899 18.7578 45.9661 18.6701C46.1432 18.5825 46.3168 18.4878 46.4852 18.3854C46.6545 18.283 46.8185 18.1736 46.9783 18.0573C47.138 17.941 47.2916 17.8177 47.4409 17.6884C47.5903 17.5582 47.7335 17.4227 47.8706 17.2813C48.0078 17.1389 48.1397 16.9913 48.2639 16.8385C48.3889 16.6858 48.5069 16.5278 48.6189 16.3646C48.73 16.2014 48.8342 16.033 48.9314 15.8611C49.0278 15.6892 49.118 15.513 49.1996 15.3333C49.2821 15.1536 49.3559 14.9705 49.4227 14.7847C49.4887 14.599 49.5468 14.4097 49.5972 14.2188C49.6475 14.0278 49.6892 13.8351 49.7231 13.6406C49.7569 13.4453 49.783 13.25 49.7995 13.053C49.8168 12.8559 49.8255 12.6589 49.8255 12.4618C49.8255 9.13802 45.0113 1.99566 44.046 0.597222C44.0139 0.551215 43.98 0.506944 43.9427 0.465278C43.9062 0.423611 43.8663 0.384549 43.8246 0.347222C43.783 0.310764 43.7396 0.276041 43.6935 0.244792C43.6475 0.212673 43.5998 0.184028 43.5503 0.157986C43.5008 0.131945 43.4505 0.109375 43.3984 0.0894097C43.3463 0.0703124 43.2925 0.0529514 43.2387 0.0399306C43.1849 0.0269099 43.1302 0.0164931 43.0746 0.00954861C43.0191 0.00347217 42.9635 0 42.908 0C42.8524 0 42.7968 0.00347217 42.7413 0.00954861C42.6857 0.0164931 42.631 0.0269099 42.5772 0.0399306C42.5234 0.0529514 42.4696 0.0703124 42.4175 0.0894097C42.3654 0.109375 42.3151 0.131945 42.2656 0.157986C42.2161 0.184028 42.1684 0.212673 42.1224 0.244792C42.0764 0.276041 42.033 0.310764 41.9913 0.347222C41.9496 0.384549 41.9097 0.423611 41.8732 0.465278C41.8359 0.506944 41.8021 0.551215 41.7699 0.597222C40.8047 1.99566 35.9904 9.13802 35.9904 12.4618C35.9904 12.6589 35.9991 12.8559 36.0165 13.053C36.033 13.25 36.059 13.4453 36.092 13.6406C36.1258 13.8351 36.1684 14.0278 36.2187 14.2188C36.2691 14.4097 36.3272 14.599 36.3932 14.7847C36.46 14.9705 36.5338 15.1536 36.6163 15.3333C36.6979 15.513 36.7873 15.6892 36.8845 15.8611C36.9817 16.033 37.0859 16.2014 37.197 16.3646C37.309 16.5278 37.4271 16.6858 37.5521 16.8385C37.6762 16.9913 37.8073 17.1389 37.9453 17.2813C38.0824 17.4227 38.2257 17.5582 38.375 17.6884C38.5243 17.8177 38.6779 17.941 38.8376 18.0573C38.9974 18.1736 39.1614 18.283 39.3307 18.3854C39.4991 18.4878 39.6727 18.5825 39.8489 18.6701C40.026 18.7578 40.2066 18.8377 40.3906 18.9097C40.5746 18.9818 40.7613 19.046 40.9505 19.1024C41.1397 19.158 41.3307 19.2066 41.5243 19.2457V22.1536H38.7569C38.6666 22.1536 38.5764 22.1623 38.487 22.1806C38.3984 22.1979 38.3116 22.224 38.2274 22.2587C38.1441 22.2943 38.0642 22.3368 37.9887 22.3872C37.9132 22.4375 37.8429 22.4948 37.7786 22.559C37.7144 22.6233 37.6571 22.6936 37.6067 22.7691C37.5564 22.8446 37.5139 22.9245 37.4791 23.0087C37.4444 23.092 37.4184 23.1788 37.4001 23.2682C37.3828 23.3576 37.3732 23.447 37.3741 23.5382V33.2309H13.1614C13.0026 33.2309 12.8446 33.2387 12.6866 33.2543C12.5286 33.27 12.3724 33.2934 12.217 33.3247C12.0616 33.3559 11.908 33.3941 11.756 33.4401C11.6041 33.487 11.4557 33.5399 11.309 33.6007C11.1623 33.6615 11.0191 33.7292 10.8793 33.8047C10.7396 33.8793 10.6041 33.9609 10.4722 34.0486C10.3403 34.1372 10.2135 34.2318 10.0903 34.3325C9.96785 34.4332 9.85067 34.5391 9.73869 34.6519C9.62671 34.7639 9.51994 34.8811 9.41924 35.0035C9.31942 35.1267 9.2248 35.2535 9.13626 35.3854C9.04858 35.5174 8.96699 35.6536 8.89233 35.7934C8.81768 35.9332 8.74997 36.0764 8.68921 36.2231C8.62845 36.3698 8.57463 36.5191 8.52862 36.671C8.48261 36.822 8.44355 36.9757 8.4123 37.1319C8.38192 37.2873 8.35848 37.4444 8.34285 37.6016C8.32723 37.7595 8.31855 37.9184 8.31855 38.0764V63.6918H1.40101C1.30987 63.6918 1.22046 63.7014 1.13105 63.7188C1.04164 63.7361 0.955702 63.763 0.871501 63.7977C0.787299 63.8325 0.707438 63.875 0.631917 63.9253C0.556396 63.9757 0.486952 64.033 0.422716 64.0981C0.35848 64.1623 0.301188 64.2318 0.250841 64.3073C0.200494 64.3828 0.157091 64.4627 0.122369 64.5469C0.0876465 64.6311 0.0616048 64.7179 0.0442437 64.8064C0.0260146 64.8958 0.017334 64.9861 0.017334 65.0764V70.6155C0.017334 70.7057 0.0260146 70.796 0.0442437 70.8854C0.0616048 70.9748 0.0876465 71.0608 0.122369 71.145C0.157091 71.2292 0.200494 71.309 0.250841 71.3845C0.301188 71.4601 0.35848 71.5304 0.422716 71.5946C0.486952 71.6589 0.556396 71.7161 0.631917 71.7665C0.707438 71.8168 0.787299 71.8594 0.871501 71.8941C0.955702 71.9288 1.04164 71.9557 1.13105 71.9731C1.22046 71.9913 1.30987 72 1.40101 72H84.4149C84.506 72 84.5955 71.9913 84.6849 71.9731C84.7743 71.9557 84.8602 71.9288 84.9444 71.8941C85.0286 71.8594 85.1076 71.8168 85.184 71.7665C85.2595 71.7161 85.329 71.6589 85.3932 71.5946C85.4574 71.5304 85.5147 71.4601 85.5651 71.3845C85.6154 71.309 85.658 71.2292 85.6935 71.145C85.7283 71.0608 85.7543 70.9748 85.7717 70.8854C85.7899 70.796 85.7986 70.7057 85.7986 70.6155V65.0764C85.7986 64.9861 85.7899 64.8958 85.7717 64.8064C85.7543 64.7179 85.7283 64.6311 85.6935 64.5469C85.658 64.4627 85.6154 64.3828 85.5651 64.3073C85.5147 64.2318 85.4574 64.1623 85.3932 64.0981C85.329 64.033 85.2595 63.9757 85.184 63.9253C85.1076 63.875 85.0286 63.8325 84.9444 63.7977C84.8602 63.763 84.7743 63.7361 84.6849 63.7188C84.5955 63.7014 84.506 63.6918 84.4149 63.6918ZM38.7569 12.4618C38.7569 10.9488 40.9175 7.0026 42.908 3.88889C44.8984 7.0026 47.059 10.9488 47.059 12.4618C47.059 12.5972 47.0521 12.7335 47.039 12.8689C47.0251 13.0043 47.0052 13.138 46.9791 13.2717C46.9522 13.4054 46.9192 13.5373 46.8802 13.6675C46.8403 13.7977 46.7951 13.9253 46.743 14.0512C46.6909 14.1771 46.6328 14.2995 46.5685 14.4193C46.5043 14.5391 46.4349 14.6563 46.3593 14.7691C46.2838 14.8819 46.2031 14.9913 46.1163 15.0964C46.0304 15.2014 45.9392 15.3021 45.8429 15.3984C45.7465 15.4948 45.6458 15.5859 45.5408 15.6727C45.4357 15.7587 45.3272 15.8394 45.2135 15.9149C45.1007 15.9905 44.9843 16.0608 44.8646 16.125C44.7448 16.1892 44.6215 16.2474 44.4965 16.2986C44.3706 16.3507 44.243 16.3967 44.1128 16.4366C43.9826 16.4757 43.8507 16.5087 43.7179 16.5356C43.5842 16.5616 43.4496 16.5816 43.3151 16.5955C43.1797 16.6085 43.0442 16.6155 42.908 16.6155C42.7717 16.6155 42.6363 16.6085 42.5008 16.5955C42.3654 16.5816 42.2317 16.5616 42.0981 16.5356C41.9653 16.5087 41.8333 16.4757 41.7031 16.4366C41.5729 16.3967 41.4453 16.3507 41.3194 16.2986C41.1935 16.2474 41.0712 16.1892 40.9514 16.125C40.8316 16.0608 40.7153 15.9905 40.6015 15.9149C40.4887 15.8394 40.3802 15.7587 40.2751 15.6727C40.1692 15.5859 40.0694 15.4948 39.9731 15.3984C39.8767 15.3021 39.7856 15.2014 39.6996 15.0964C39.6128 14.9913 39.5321 14.8819 39.4566 14.7691C39.381 14.6563 39.3116 14.5391 39.2474 14.4193C39.1831 14.2995 39.125 14.1771 39.0729 14.0512C39.0208 13.9253 38.9757 13.7977 38.9357 13.6675C38.8967 13.5373 38.8637 13.4054 38.8368 13.2717C38.8107 13.138 38.7908 13.0043 38.7769 12.8689C38.7639 12.7335 38.7569 12.5972 38.7569 12.4618ZM40.1406 24.9227H45.6753V33.2309H40.1406V24.9227ZM11.0859 38.0764C11.0859 37.9401 11.0998 37.8056 11.1258 37.6719C11.1528 37.5382 11.1918 37.408 11.2448 37.2821C11.2968 37.1563 11.3602 37.0365 11.4366 36.9236C11.5121 36.8099 11.5981 36.7049 11.6944 36.6085C11.7908 36.5122 11.8958 36.4262 12.0087 36.3507C12.1224 36.2743 12.2413 36.2109 12.3672 36.158C12.493 36.1059 12.6232 36.0668 12.7569 36.0399C12.8897 36.013 13.0251 36 13.1614 36H72.6545C72.7908 36 72.9253 36.013 73.059 36.0399C73.1927 36.0668 73.3229 36.1059 73.4488 36.158C73.5746 36.2109 73.6935 36.2743 73.8073 36.3507C73.9201 36.4262 74.0251 36.5122 74.1215 36.6085C74.2179 36.7049 74.3038 36.8099 74.3793 36.9236C74.4557 37.0365 74.5191 37.1563 74.5712 37.2821C74.6241 37.408 74.6632 37.5382 74.6901 37.6719C74.7161 37.8056 74.73 37.9401 74.73 38.0764V44.3351C71.2465 44.4722 69.2804 45.1276 67.375 45.763C65.3498 46.4384 63.4366 47.0764 59.5104 47.0764C55.585 47.0764 53.6701 46.4384 51.6467 45.763C49.5008 45.0486 47.2821 44.3073 42.9062 44.3073C38.5304 44.3073 36.3133 45.0486 34.1692 45.763C32.1441 46.4384 30.2309 47.0764 26.3055 47.0764C22.3793 47.0764 20.4661 46.4384 18.4409 45.763C16.5356 45.1276 14.5694 44.4722 11.0859 44.3351V38.0764ZM11.0859 47.1059C14.1093 47.2378 15.7951 47.8003 17.5659 48.3906C19.7109 49.105 21.9297 49.8464 26.3055 49.8464C30.6805 49.8464 32.8975 49.105 35.0425 48.3906C37.0677 47.7153 38.98 47.0764 42.9062 47.0764C46.8324 47.0764 48.7465 47.7153 50.7717 48.3906C52.9166 49.105 55.1354 49.8464 59.5104 49.8464C63.8863 49.8464 66.1033 49.105 68.25 48.3906C70.0208 47.7986 71.7066 47.2378 74.73 47.1059V63.6918H11.0859V47.1059ZM83.0312 69.2309H2.7847V66.4618H83.0312V69.2309Z" fill="#814827"/>
</g>
</svg>
