<svg width="77" height="69" viewBox="0 0 77 69" fill="none" xmlns="http://www.w3.org/2000/svg">
<mask id="mask0_14_625" style="mask-type:luminance" maskUnits="userSpaceOnUse" x="5" y="0" width="66" height="23">
<path d="M5.81937 0H70.9105V22.268H5.81937V0Z" fill="white"/>
</mask>
<g mask="url(#mask0_14_625)">
<path d="M70.481 22.2657C65.2352 8.98547 52.6189 0.403007 38.3356 0.403007C24.0536 0.403007 11.4348 8.98547 6.19028 22.2657L5.8194 22.1192C8.36584 15.6728 12.7348 10.1682 18.456 6.20452C24.3111 2.14779 31.1857 0.00408936 38.3356 0.00408936C45.4868 0.00408936 52.3602 2.14779 58.2152 6.20452C63.9365 10.1682 68.3054 15.6715 70.8532 22.1192L70.4823 22.2657H70.481Z" fill="#814827"/>
</g>
<mask id="mask1_14_625" style="mask-type:luminance" maskUnits="userSpaceOnUse" x="5" y="45" width="66" height="24">
<path d="M5.81937 45.938H70.9105V68.2021H5.81937V45.938Z" fill="white"/>
</mask>
<g mask="url(#mask1_14_625)">
<path d="M70.481 45.9397C65.2351 59.2212 52.6189 67.8024 38.3356 67.8024C24.0536 67.8024 11.4348 59.2212 6.19025 45.9397L5.81937 46.0862C8.36581 52.5339 12.7348 58.0385 18.456 62.0009C24.311 66.0576 31.1857 68.2013 38.3356 68.2013C45.4868 68.2013 52.3602 66.0576 58.2152 62.0009C63.9364 58.0385 68.3054 52.5352 70.8531 46.0862L70.4822 45.9397H70.481Z" fill="#814827"/>
</g>
<mask id="mask2_14_625" style="mask-type:luminance" maskUnits="userSpaceOnUse" x="0" y="19" width="10" height="11">
<path d="M0 19.2589H9.13559V29.6996H0V19.2589Z" fill="white"/>
</mask>
<g mask="url(#mask2_14_625)">
<mask id="mask3_14_625" style="mask-type:luminance" maskUnits="userSpaceOnUse" x="-1" y="19" width="11" height="12">
<path d="M-0.499603 20.369L8.00257 19.3367L9.18275 29.0534L0.680581 30.0858L-0.499603 20.369Z" fill="white"/>
</mask>
<g mask="url(#mask3_14_625)">
<mask id="mask4_14_625" style="mask-type:luminance" maskUnits="userSpaceOnUse" x="-1" y="19" width="11" height="12">
<path d="M-0.499603 20.369L8.00257 19.3367L9.18275 29.0534L0.680581 30.0858L-0.499603 20.369Z" fill="white"/>
</mask>
<g mask="url(#mask4_14_625)">
<mask id="mask5_14_625" style="mask-type:luminance" maskUnits="userSpaceOnUse" x="-1" y="19" width="11" height="12">
<path d="M-0.499603 20.3714L8.11982 19.3251L9.29363 28.9896L0.674208 30.0359L-0.499603 20.3714Z" fill="white"/>
</mask>
<g mask="url(#mask5_14_625)">
<path fill-rule="evenodd" clip-rule="evenodd" d="M5.019 24.9406C5.03684 25.4326 5.29556 25.7907 5.42938 26.1463C5.30321 26.0316 5.22929 25.8672 5.15027 25.7104C5.07253 25.5524 5.01772 25.3765 4.96547 25.1955C4.83419 26.0316 4.89664 27.0499 5.10949 27.6426C4.97566 27.4463 4.93615 27.171 4.85204 26.9314C4.83419 27.264 4.71822 27.5903 4.67488 27.9038C4.66086 28.0096 4.6991 28.1944 4.59586 28.2607C4.49008 27.8987 4.65067 27.5444 4.69655 27.1621C4.75008 26.7071 4.77557 26.2342 4.7641 25.8022C4.72459 25.9806 4.6341 26.1348 4.55508 26.2878C4.47861 26.4343 4.42508 26.6153 4.28106 26.6994C4.49518 26.233 4.7539 25.713 4.85204 25.0834C4.95017 24.464 5.14517 23.8624 5.31086 23.3552C4.95527 23.7655 4.59714 24.2244 4.28871 24.7648C3.9892 25.2924 3.67313 25.8532 3.58391 26.5605C3.39146 28.0874 4.17528 28.5283 4.73223 29.4447C5.26115 28.7896 5.88693 28.2276 6.04242 27.1774C6.29477 25.4708 5.23439 24.7851 5.51223 23.215C5.37203 23.7273 4.99606 24.3123 5.019 24.9406ZM2.13226 24.0498C2.67265 24.0485 3.28058 24.0268 3.55205 23.7757C3.24107 23.8076 2.61784 23.7745 2.47765 23.5922C2.79372 23.6139 3.14549 23.7044 3.47048 23.7005C3.97773 23.6954 4.38812 23.3246 4.67616 23.0658C4.70547 23.0404 4.80106 23.0136 4.77174 22.9524C3.95097 23.2264 2.92372 23.1436 2.14501 23.4112C1.74609 23.5476 1.39688 23.7184 1.10247 23.9542C0.875606 24.1364 0.662765 24.3493 0.455022 24.5277C0.3862 24.5863 0.25875 24.6411 0.285514 24.7048C0.698451 24.6666 1.08462 24.715 1.51031 24.7278C3.34048 24.7826 4.33714 24.1861 4.99733 22.9346C4.29763 23.5234 3.32646 24.3569 2.13226 24.0498ZM7.05437 24.9725C6.7727 24.1339 6.33555 23.4278 6.26291 22.4082C6.24889 22.5012 6.22085 22.5892 6.2081 22.6809C5.96467 24.4678 6.86447 25.9921 8.69847 25.857C8.22436 25.3778 7.90191 24.6985 7.6126 23.9962C7.32966 23.3093 7.11299 22.5255 6.39928 22.2107C6.36104 22.8836 6.55731 23.2456 6.86574 23.5935C6.93839 23.6763 7.0276 23.7566 7.10535 23.8369C7.17927 23.9108 7.30289 23.9797 7.31182 24.0931C6.99702 23.8981 6.78417 23.6152 6.55604 23.3462C6.70516 23.8471 6.90398 24.325 7.2328 24.6755C7.36662 24.817 7.56544 24.9215 7.65083 25.0872C7.33603 24.9725 7.15378 24.6577 6.95241 24.4984C6.99064 24.6437 7.10152 24.8081 7.05437 24.9725ZM6.38908 22.1061C7.68524 22.7714 7.65848 24.65 8.59651 25.6072C8.6921 25.7041 8.87945 25.7843 8.91896 25.908C8.79023 25.9908 8.59269 25.9437 8.41681 25.9386C7.57054 25.9182 7.0276 25.7193 6.62614 25.1649C6.15712 24.5175 5.92899 23.466 6.1533 22.5038C6.17624 22.398 6.23996 22.2948 6.26291 22.1839C6.31134 21.9481 6.27183 21.7021 6.33428 21.4638C5.96595 22.1864 5.55556 22.8492 5.55174 23.8229C5.55046 24.3671 5.7735 24.817 5.94301 25.286C6.10614 25.7397 6.23104 26.261 6.18644 26.8766C6.11634 27.835 5.66644 28.4837 5.19488 29.0305C5.04066 29.2089 4.89664 29.4077 4.70674 29.5467C4.60224 29.4766 4.5691 29.3517 4.5041 29.2548C3.96626 28.4684 3.23597 28.0211 3.4297 26.549C3.53676 25.7308 3.92803 25.0643 4.29253 24.4882C4.67361 23.8866 5.2089 23.4431 5.53772 22.8721C5.72889 22.5382 5.83977 22.1355 6.02967 21.8372C5.83977 22.1457 5.47781 22.3993 5.25733 22.695C5.06233 22.9575 4.96929 23.2519 4.79978 23.4903C4.28871 24.2065 3.47176 24.7444 2.41775 24.831C2.04559 24.8616 1.63903 24.8298 1.2108 24.8094C0.827175 24.7915 0.426984 24.817 0.0369873 24.7902C0.058654 24.6692 0.184829 24.6182 0.262573 24.5481C0.845018 24.0255 1.30894 23.503 2.15775 23.2392C3.08813 22.9511 4.304 23.1156 5.12096 22.6682C5.31341 22.5624 5.48036 22.3292 5.64477 22.1367C5.97487 21.7493 6.25526 21.3669 6.48339 20.8699C6.59555 20.6252 6.67202 20.3537 6.79819 20.1167C6.92182 19.8847 7.17927 19.5087 7.36917 19.417C7.38446 19.4144 7.38574 19.4246 7.38574 19.4348C7.39721 19.4361 7.40868 19.4361 7.42015 19.4374C6.86447 20.081 6.46682 20.9081 6.38908 22.1061Z" fill="#814827"/>
</g>
</g>
</g>
</g>
<mask id="mask6_14_625" style="mask-type:luminance" maskUnits="userSpaceOnUse" x="68" y="37" width="9" height="12">
<path d="M68.517 37.5301H77V48.9496H68.517V37.5301Z" fill="white"/>
</mask>
<g mask="url(#mask6_14_625)">
<mask id="mask7_14_625" style="mask-type:luminance" maskUnits="userSpaceOnUse" x="64" y="34" width="16" height="16">
<path d="M70.1725 49.5397L64.1633 40.9012L73.8061 34.1947L79.8141 42.8333L70.1725 49.5397Z" fill="white"/>
</mask>
<g mask="url(#mask7_14_625)">
<mask id="mask8_14_625" style="mask-type:luminance" maskUnits="userSpaceOnUse" x="64" y="34" width="16" height="16">
<path d="M64.1416 40.8706L70.1496 49.5078L79.7924 42.8014L73.7844 34.1629L64.1416 40.8706Z" fill="white"/>
</mask>
<g mask="url(#mask8_14_625)">
<mask id="mask9_14_625" style="mask-type:luminance" maskUnits="userSpaceOnUse" x="64" y="34" width="16" height="16">
<path d="M64.1454 40.868L70.1751 49.5371L79.8957 42.7759L73.866 34.1068L64.1454 40.868Z" fill="white"/>
</mask>
<g mask="url(#mask9_14_625)">
<path fill-rule="evenodd" clip-rule="evenodd" d="M72.7597 42.1757C73.2211 41.7933 73.7551 41.7398 74.1859 41.5715C73.9794 41.5499 73.7704 41.6149 73.5652 41.6722C73.3575 41.7296 73.1535 41.8226 72.9471 41.9208C73.5996 41.1229 74.5746 40.3569 75.2845 40.0702C74.999 40.1071 74.7161 40.2945 74.4306 40.4118C74.7199 40.1263 74.92 39.7567 75.1698 39.4648C75.2552 39.3641 75.4527 39.2507 75.4298 39.1041C75.0156 39.3004 74.8244 39.7324 74.5147 40.0842C74.1451 40.5022 73.736 40.9075 73.3358 41.2465C73.4645 41.0656 73.5321 40.8591 73.606 40.6641C73.6774 40.4755 73.7984 40.2805 73.7589 40.0829C73.5079 40.6539 73.2466 41.309 72.7546 41.9093C72.2703 42.4994 71.8841 43.1634 71.5579 43.7242C71.642 43.0704 71.7682 42.3719 72.009 41.6557C72.2448 40.956 72.4985 40.2155 73.0669 39.5617C74.298 38.1508 75.3317 38.5051 76.6151 38.268C76.4481 39.28 76.4456 40.3021 75.6184 41.2937C74.2738 42.9034 72.7929 42.4981 71.5936 44.0199C71.9441 43.4782 72.1709 42.6638 72.7597 42.1757ZM69.613 40.2767C70.0501 40.7686 70.523 41.337 70.5153 41.7869C70.291 41.4798 69.757 40.9407 69.4766 40.9611C69.7532 41.23 70.1215 41.476 70.3815 41.7742C70.7855 42.2394 70.783 42.911 70.7804 43.3826C70.7804 43.4298 70.834 43.5381 70.7549 43.561C70.3395 42.595 69.4333 41.7296 69.0446 40.8056C68.8457 40.3327 68.7183 39.8777 68.6928 39.4202C68.675 39.0659 68.6954 38.7014 68.689 38.3675C68.6877 38.2591 68.6342 38.0985 68.7132 38.0705C69.0127 38.4771 69.3696 38.788 69.7264 39.164C71.2571 40.7801 71.5222 42.168 70.9219 43.7802C70.89 42.6689 70.8595 41.1115 69.613 40.2767ZM74.437 43.9969C73.448 44.4213 72.4526 44.5959 71.4687 45.3555C71.5413 45.2676 71.5987 45.1707 71.6713 45.0853C73.0949 43.417 75.208 42.999 76.5705 44.7731C75.751 44.731 74.8741 44.9885 74.0011 45.2943C73.1497 45.5939 72.2627 46.0323 71.3998 45.6385C71.9797 45.0598 72.4666 44.9439 73.0325 44.9413C73.1663 44.9413 73.3116 44.9566 73.448 44.963C73.5754 44.9694 73.7373 45.0254 73.8469 44.9413C73.4148 44.8139 72.9866 44.8508 72.5571 44.861C73.1332 44.5908 73.7271 44.3844 74.3108 44.3997C74.5491 44.406 74.8053 44.5016 75.0232 44.4455C74.6638 44.2531 74.2318 44.3423 73.9233 44.2875C74.0865 44.2059 74.3248 44.1728 74.437 43.9969ZM71.2979 45.7137C72.9496 46.3522 74.6332 44.8062 76.2608 44.8827C76.4265 44.8903 76.6508 44.9961 76.7961 44.9324C76.7667 44.7476 76.5628 44.6061 76.4163 44.4506C75.714 43.7 75.0921 43.3673 74.2649 43.4527C73.2976 43.5508 72.1582 44.1957 71.4661 45.1784C71.3896 45.2842 71.3476 45.4256 71.2647 45.5365C71.0914 45.7723 70.8352 45.9354 70.6696 46.1852C71.0277 45.2663 71.2966 44.3563 72.1773 43.5649C72.6692 43.1226 73.2581 42.9607 73.8214 42.7339C74.3656 42.5147 74.9391 42.2062 75.4617 41.6671C76.2748 40.8272 76.4991 39.8943 76.6138 39.0226C76.6508 38.7396 76.7145 38.4478 76.6865 38.1623C76.5386 38.124 76.3984 38.1967 76.2582 38.2145C75.1086 38.3636 74.1107 38.0641 72.9318 39.4317C72.2767 40.19 71.9887 41.086 71.7618 41.8825C71.5235 42.7148 71.5541 43.5598 71.3017 44.3206C71.1551 44.7654 70.8786 45.1911 70.7626 45.6053C70.8888 45.1835 70.8238 44.6507 70.9143 44.2098C70.9945 43.821 71.187 43.4986 71.266 43.1506C71.5031 42.1068 71.3285 40.9305 70.5548 39.9045C70.2808 39.5413 69.9214 39.1984 69.5569 38.8263C69.2294 38.4924 68.9299 38.1087 68.5896 37.7761C68.4978 37.8946 68.5526 38.0488 68.5526 38.1776C68.5488 39.1283 68.4507 39.9733 68.8993 40.9572C69.39 42.0342 70.5243 43.0054 70.7792 44.1091C70.8391 44.3678 70.7639 44.7081 70.7218 45.0127C70.6377 45.627 70.5166 46.1916 70.2502 46.8008C70.119 47.1003 69.9354 47.3883 69.822 47.6968C69.7124 47.9963 69.5799 48.5341 69.65 48.7814C69.6602 48.7967 69.6691 48.7903 69.6793 48.7814C69.6895 48.7916 69.6997 48.8005 69.7099 48.8107C69.845 47.7847 70.2719 46.7549 71.2979 45.7137Z" fill="#814827"/>
</g>
</g>
</g>
</g>
<path d="M15.7242 18.8988C15.5776 19.1129 15.4005 19.2901 15.194 19.429C14.9901 19.5692 14.767 19.6635 14.5262 19.7145C14.2853 19.7655 14.0457 19.7706 13.8073 19.7298C13.5665 19.689 13.3371 19.5947 13.1191 19.4443C12.9024 19.2914 12.7291 19.1053 12.5991 18.8835C12.4666 18.6592 12.3825 18.4222 12.3442 18.1698C12.3034 17.9149 12.3124 17.6575 12.3697 17.3949C12.4283 17.1336 12.5367 16.8877 12.696 16.6557C12.7406 16.592 12.8056 16.5117 12.8897 16.4161C12.9751 16.318 13.0656 16.2224 13.1599 16.1306C13.2517 16.0363 13.3332 15.9598 13.4046 15.9012C13.476 15.84 13.5193 15.8145 13.532 15.8247C13.662 15.8897 13.7666 15.9445 13.8481 15.9879C13.9271 16.0287 13.9832 16.0618 14.0164 16.0847C14.1221 16.1561 14.1591 16.2147 14.1285 16.2581C14.0979 16.2989 14.0291 16.3065 13.9195 16.2785C13.8073 16.2479 13.7041 16.2377 13.6085 16.2479C13.5104 16.2581 13.3893 16.3078 13.2466 16.3957C13.1038 16.4875 12.9687 16.6251 12.8387 16.8087C12.6832 17.0406 12.6042 17.2904 12.6042 17.5581C12.6017 17.8232 12.673 18.0831 12.8183 18.338C12.9611 18.5904 13.1637 18.8058 13.425 18.9855C13.6901 19.169 13.9628 19.2761 14.2407 19.3067C14.5185 19.3347 14.7785 19.2965 15.0207 19.1945C15.2615 19.09 15.4565 18.9294 15.6069 18.7153C15.7828 18.454 15.8567 18.2361 15.8261 18.0628C15.7956 17.8894 15.7089 17.7543 15.5661 17.6549L15.3061 17.4663C15.231 17.4153 15.1698 17.3924 15.1226 17.3949C15.0742 17.3949 15.0028 17.4357 14.9085 17.5173C14.8639 17.5619 14.8269 17.5988 14.7963 17.6294C14.7658 17.66 14.7415 17.6855 14.725 17.7059C14.6969 17.7467 14.6689 17.7722 14.6383 17.7824C14.6077 17.7926 14.5822 17.7913 14.5618 17.7773C14.5376 17.7645 14.5262 17.7416 14.5262 17.711C14.5262 17.6779 14.5313 17.6524 14.5415 17.6345L14.9595 17.0686L15.2246 16.6506C15.2679 16.5869 15.3163 16.5716 15.3673 16.6047C15.3839 16.6149 15.3928 16.6391 15.3928 16.6761C15.3928 16.7105 15.3826 16.7513 15.3622 16.7985C15.3418 16.8635 15.352 16.9297 15.3928 16.9973C15.4336 17.0661 15.491 17.1298 15.5661 17.191C15.6439 17.2522 15.7242 17.3108 15.8058 17.3643L15.923 17.451C15.9561 17.4714 15.9995 17.4765 16.0505 17.4663C16.0976 17.4599 16.1244 17.4599 16.132 17.4663C16.1856 17.5045 16.2008 17.5453 16.1779 17.5886C16.1703 17.6065 16.1575 17.6855 16.1371 17.8282C16.1167 17.971 16.0721 18.1431 16.0046 18.3431C15.9396 18.5407 15.8465 18.7255 15.7242 18.8988Z" fill="#814827"/>
<path d="M18.1743 15.7617C18.103 15.8331 18.052 15.8522 18.0214 15.8178C17.9934 15.791 18.0023 15.7401 18.0469 15.6649C18.131 15.5425 18.1794 15.4342 18.1896 15.3386C18.2024 15.2443 18.1692 15.1538 18.0877 15.0684L16.2932 13.2076C16.2014 13.1159 16.1288 13.0725 16.074 13.0751C16.0204 13.0751 15.935 13.1108 15.8191 13.1821C15.7069 13.2637 15.633 13.2841 15.5948 13.2433C15.568 13.2166 15.5935 13.1656 15.6712 13.0904L16.1351 12.6723L16.6245 12.1676C16.7036 12.0937 16.7558 12.0695 16.7826 12.0963C16.8234 12.1409 16.8119 12.2021 16.7469 12.2798C16.6857 12.369 16.6424 12.4327 16.6144 12.4735C16.5876 12.5143 16.5621 12.5627 16.5379 12.6163C16.4971 12.7119 16.5124 12.7947 16.5838 12.8661L18.4088 14.7574C18.493 14.8428 18.5733 14.8874 18.6484 14.89C18.7262 14.89 18.8294 14.8288 18.9594 14.7064L19.5406 14.1406C19.5533 14.1304 19.5763 14.087 19.6069 14.008C19.6884 13.8181 19.6846 13.5925 19.5967 13.33C19.5482 13.2255 19.5406 13.1567 19.5712 13.1261C19.6018 13.0993 19.64 13.1095 19.6884 13.1567C19.6884 13.1605 19.6897 13.1643 19.6935 13.1668L19.6986 13.177C19.8618 13.4625 19.9905 13.6665 20.0861 13.7888C20.123 13.8398 20.1243 13.8806 20.0912 13.9112L18.7045 15.2162L18.1743 15.7617Z" fill="#814827"/>
<path d="M21.7808 12.5193C21.689 12.578 21.6304 12.5856 21.6024 12.5448C21.5756 12.5079 21.6049 12.4378 21.689 12.3358C21.8382 12.1625 21.8942 11.9573 21.8573 11.719C21.7145 10.8497 21.5297 9.92828 21.3016 8.95584C21.2787 8.83349 21.2532 8.75065 21.2251 8.70604C21.2022 8.66908 21.1933 8.64869 21.1996 8.64486C21.2812 8.53653 21.3258 8.46389 21.3322 8.42565C21.3322 8.40526 21.3322 8.38996 21.3322 8.37977C21.3322 8.36702 21.3322 8.35683 21.3322 8.34918C21.3322 8.3084 21.336 8.28673 21.3424 8.28291C21.3564 8.27271 21.3857 8.28546 21.429 8.31859C21.7783 8.60408 22.1581 8.90996 22.5659 9.23623C22.9763 9.5625 23.4147 9.90917 23.8812 10.2762C24.0469 10.4088 24.1871 10.4827 24.2992 10.4954C24.4139 10.5095 24.5312 10.4891 24.651 10.4343C24.7695 10.3871 24.846 10.3909 24.8804 10.4445C24.9008 10.4725 24.8651 10.5158 24.7733 10.577L24.1055 10.9695L23.6161 11.2958C23.5269 11.3544 23.4708 11.3646 23.4478 11.3264C23.4173 11.2792 23.4491 11.2143 23.5447 11.1327C23.7104 10.9797 23.7601 10.8497 23.6926 10.7401C23.6339 10.6522 23.4173 10.447 23.04 10.1233C23.0094 10.0927 22.9546 10.1029 22.8769 10.1539L21.9898 10.7299C21.9554 10.7542 21.9465 10.8 21.9643 10.8676C22.0688 11.306 22.1453 11.5609 22.1937 11.6323C22.2371 11.7037 22.2983 11.747 22.3773 11.7597C22.4588 11.7699 22.5532 11.7572 22.6628 11.719C22.7673 11.6884 22.8323 11.6909 22.8565 11.724C22.8794 11.7585 22.8463 11.8043 22.7545 11.8617L22.3212 12.1268L21.7808 12.5193ZM21.9898 10.4445L22.7137 9.97544C22.7571 9.94867 22.7749 9.92701 22.7647 9.90917L22.7239 9.86838L21.633 8.98643C21.5756 8.94565 21.545 8.9278 21.5412 8.93035C21.531 8.938 21.5348 8.97368 21.5514 9.03741L21.8573 10.4292L21.8726 10.4801C21.8853 10.5005 21.9248 10.4891 21.9898 10.4445Z" fill="#814827"/>
<path d="M26.7266 9.63983C26.6272 9.68444 26.5699 9.68571 26.5533 9.64493C26.5354 9.60797 26.5852 9.55062 26.7011 9.4716C26.8197 9.39768 26.8974 9.31866 26.9356 9.23709C26.9726 9.15297 26.9675 9.05229 26.9203 8.93631L25.9211 6.62182C25.8702 6.5033 25.809 6.4281 25.7376 6.39751C25.6662 6.36692 25.5668 6.36565 25.4368 6.39241C25.3081 6.42683 25.2316 6.4179 25.2074 6.36692C25.1947 6.32996 25.2367 6.29045 25.3349 6.24967L25.9364 6.01006L26.4972 5.75007C26.5915 5.70673 26.6463 5.70291 26.6603 5.73987C26.6833 5.79085 26.6374 5.85203 26.5227 5.9234C26.4105 6.00242 26.3392 6.08016 26.3086 6.15791C26.278 6.2331 26.2869 6.32869 26.3341 6.44339L27.3333 8.75788C27.3804 8.87386 27.4505 8.94523 27.5423 8.972C27.6341 9.00003 27.7462 8.99621 27.8788 8.9618C28.0113 8.93504 28.0852 8.94013 28.1031 8.97709C28.1196 9.01788 28.0789 9.05866 27.9807 9.09945L27.369 9.33395L26.7266 9.63983Z" fill="#814827"/>
<path d="M31.0934 8.12964C30.7939 8.20866 30.5428 8.23033 30.3389 8.19592C30.2777 8.18954 30.2318 8.17043 30.2013 8.13984C30.0993 8.01494 30.0126 7.81357 29.9413 7.53827C29.9311 7.50769 29.9323 7.472 29.9464 7.43122C29.9629 7.38788 29.9884 7.35985 30.0228 7.34965C30.0496 7.34328 30.1324 7.44906 30.2726 7.66572C30.4562 7.94866 30.7378 8.03788 31.1189 7.93592C31.3024 7.88876 31.4324 7.79572 31.5114 7.65553C31.5892 7.51661 31.6032 7.3522 31.5522 7.16102C31.4707 6.85897 31.1087 6.5977 30.4663 6.37593C30.2076 6.28799 29.9999 6.18476 29.8444 6.06496C29.6851 5.94643 29.5767 5.77692 29.5181 5.55516C29.4773 5.40986 29.4875 5.25947 29.5487 5.10653C29.6073 4.95105 29.7067 4.8083 29.8495 4.6783C29.9922 4.54958 30.1668 4.45782 30.3746 4.40301C30.5607 4.35586 30.7136 4.33546 30.8334 4.34184C30.9519 4.34948 31.0195 4.35076 31.0373 4.34693C31.0743 4.33674 31.1112 4.36478 31.1495 4.4285C31.1864 4.48968 31.2221 4.5636 31.2565 4.64772C31.2897 4.72928 31.3152 4.80448 31.333 4.87203C31.3559 4.96761 31.3547 5.01859 31.3279 5.02497C31.2259 5.05555 31.152 5.02369 31.1087 4.9281C31.0399 4.77899 30.9379 4.67703 30.8028 4.62223C30.6664 4.56487 30.5186 4.55595 30.3593 4.59674C30.1962 4.64134 30.0687 4.73311 29.9769 4.87203C29.8852 5.01222 29.8622 5.16771 29.9056 5.34104C29.9362 5.45065 30.0024 5.54369 30.1044 5.62143C30.2089 5.69663 30.3287 5.75908 30.4613 5.81006C30.5963 5.86104 30.7212 5.90947 30.8334 5.9528C31.4783 6.16054 31.8556 6.4728 31.9652 6.89083C32.0085 7.05397 32.0085 7.21965 31.9652 7.38534C31.9205 7.55229 31.8275 7.70141 31.6848 7.83396C31.542 7.96651 31.3445 8.06592 31.0934 8.12964Z" fill="#814827"/>
<path d="M34.499 7.35607C34.3894 7.36626 34.3334 7.34969 34.3308 7.30509C34.327 7.2643 34.392 7.22607 34.5245 7.18783C34.6571 7.15087 34.7514 7.09989 34.81 7.03489C34.8674 6.96735 34.889 6.86921 34.8763 6.73921L34.6469 4.24629C34.6329 4.11757 34.5972 4.02708 34.5398 3.9761C34.4812 3.92257 34.3869 3.88689 34.2543 3.86904C34.1218 3.86267 34.053 3.83208 34.0453 3.77728C34.0428 3.7365 34.0937 3.71101 34.1983 3.70081L35.1822 3.62944L36.4159 3.49689C36.4771 3.49052 36.5102 3.50454 36.5178 3.53767C36.602 3.83336 36.6478 4.01434 36.6555 4.07806C36.6619 4.14688 36.6376 4.18384 36.5841 4.19022C36.5561 4.19404 36.5344 4.17875 36.5178 4.14433C36.4694 4.02963 36.4261 3.94042 36.3853 3.87924C36.3445 3.81806 36.2935 3.77728 36.2324 3.75689C36.1737 3.73395 36.0909 3.7263 35.9826 3.7365L35.2586 3.80277C35.2204 3.80659 35.1783 3.82826 35.1312 3.86904C35.0866 3.90728 35.0675 3.95061 35.0751 4.00159L35.1822 5.17413C35.1847 5.20854 35.1975 5.23785 35.2179 5.26079C35.2408 5.28119 35.265 5.29011 35.2892 5.28628L35.8194 5.2353C35.9851 5.22256 36.0947 5.14099 36.1457 4.9906C36.1482 4.97403 36.161 4.95364 36.1814 4.92942C36.2043 4.90266 36.2247 4.88737 36.2426 4.88354C36.2527 4.88354 36.2655 4.89246 36.2833 4.90903C36.3037 4.92305 36.3139 4.94344 36.3139 4.97021L36.3241 5.27609L36.3751 5.64824C36.3815 5.71324 36.3675 5.74765 36.3343 5.7502C36.2757 5.75785 36.2285 5.71706 36.1916 5.62785C36.1202 5.47236 36.0259 5.39844 35.9112 5.40864L35.4014 5.45452C35.33 5.46216 35.2803 5.47491 35.2535 5.4953C35.2293 5.51569 35.2191 5.55648 35.223 5.61765L35.3249 6.68313C35.3351 6.8195 35.3708 6.91254 35.432 6.96352C35.4931 7.0145 35.59 7.03362 35.7226 7.0196L36.2935 6.96862C36.4286 6.95588 36.5331 6.93166 36.6045 6.89725C36.6759 6.86411 36.7332 6.81313 36.7778 6.74431C36.825 6.67294 36.8696 6.57862 36.9104 6.45882C36.9308 6.41804 36.9575 6.39637 36.992 6.39255C37.0353 6.39 37.0595 6.40784 37.0633 6.44863C37.0697 6.52 37.0697 6.60539 37.0633 6.70352C37.0557 6.79911 37.0429 6.90744 37.0225 7.0298C37.0085 7.09097 36.9843 7.12411 36.9512 7.12666L35.1363 7.2643L34.499 7.35607Z" fill="#814827"/>
<path d="M42.3967 7.40731C42.2948 7.38692 42.2489 7.35378 42.2591 7.31045C42.2655 7.26967 42.3368 7.2531 42.4732 7.25947C42.6121 7.26329 42.7204 7.24163 42.7995 7.1932C42.881 7.14222 42.9333 7.05555 42.9575 6.9332L43.4571 4.47597C43.4839 4.34725 43.4775 4.24656 43.4367 4.17519C43.3959 4.10127 43.3118 4.04519 43.1869 4.00695C43.0607 3.97382 43.0047 3.92411 43.0187 3.85911C43.0251 3.81833 43.0811 3.80813 43.1869 3.82852L43.7528 3.94578L44.3645 4.04264C44.7788 4.12803 45.0706 4.25421 45.2414 4.41989C45.4147 4.58685 45.4708 4.81626 45.4096 5.10812C45.379 5.25851 45.3255 5.37704 45.2516 5.46498C45.1802 5.55419 45.0948 5.62047 44.9967 5.6638C44.9011 5.70458 44.8043 5.73517 44.7061 5.75556C44.6883 5.75556 44.6781 5.76321 44.6755 5.77596C44.6717 5.7938 44.6781 5.80527 44.6959 5.81164C45.049 6.00282 45.2516 6.21948 45.3026 6.46418C45.323 6.58016 45.3179 6.71271 45.2873 6.86183C45.2287 7.14731 45.1203 7.34741 44.961 7.46339C44.8718 7.51692 44.8043 7.55515 44.7571 7.57555C44.427 7.71447 44.0497 7.73996 43.6253 7.65202L43.1155 7.52966C43.1155 7.52966 43.0556 7.51947 42.9371 7.49908C42.8173 7.48123 42.6376 7.45065 42.3967 7.40731ZM43.9414 5.58223C44.1657 5.63066 44.3773 5.62047 44.5787 5.55164C44.6424 5.53125 44.7087 5.48282 44.7775 5.4038C44.8489 5.32606 44.9011 5.20371 44.9355 5.03675C44.9585 4.92459 44.9572 4.81499 44.9304 4.70538C44.9062 4.59322 44.8463 4.49381 44.752 4.4046C44.6564 4.31666 44.5149 4.25166 44.3289 4.21087C44.1887 4.18411 44.0905 4.18411 44.0332 4.21087C43.9746 4.23891 43.9376 4.29627 43.921 4.38421L43.7273 5.33243C43.6993 5.46498 43.7706 5.5491 43.9414 5.58223ZM43.7528 7.4481C43.8955 7.47868 44.0383 7.46976 44.181 7.42261C44.3263 7.37418 44.4525 7.29516 44.5583 7.183C44.6666 7.07084 44.7367 6.9383 44.7673 6.78536C44.8106 6.57124 44.7941 6.39536 44.7163 6.25517C44.6411 6.11242 44.5341 6.00027 44.3951 5.9187C44.2549 5.83713 44.1147 5.7836 43.972 5.75556C43.8662 5.73262 43.7834 5.73517 43.7222 5.76576C43.661 5.79635 43.6253 5.83586 43.6151 5.88301L43.3908 6.96889C43.3628 7.11545 43.3781 7.22633 43.4367 7.30025C43.4979 7.37163 43.6024 7.42006 43.7528 7.4481Z" fill="#814827"/>
<path d="M48.9753 9.3609C48.7433 9.26149 48.542 9.12384 48.3686 8.94796C48.1978 8.77463 48.0653 8.57581 47.971 8.3515C47.8754 8.12464 47.8257 7.88758 47.8231 7.64288C47.8193 7.39818 47.869 7.15602 47.971 6.91387C48.1035 6.59779 48.2896 6.33652 48.5318 6.12878C48.7765 5.92231 49.0696 5.79231 49.4137 5.74133C49.7604 5.69035 50.1185 5.74388 50.4894 5.89937C50.7201 5.99878 50.9189 6.1326 51.0859 6.30211C51.2554 6.46907 51.3841 6.66152 51.4733 6.87818C51.5612 7.09612 51.6071 7.3268 51.6109 7.57151C51.6135 7.81366 51.5625 8.05836 51.458 8.30562C51.2541 8.78738 50.9304 9.13786 50.4894 9.3558C50.2778 9.46413 50.0408 9.52021 49.7757 9.52404C49.5106 9.53041 49.2429 9.47561 48.9753 9.3609ZM49.1333 9.19267C49.5029 9.35198 49.8419 9.34561 50.1478 9.17228C50.4537 9.00149 50.7086 8.67904 50.9125 8.20366C51.0451 7.88758 51.1113 7.58935 51.1113 7.30641C51.1139 7.02092 51.0527 6.77367 50.9278 6.56211C50.8016 6.35181 50.6117 6.18995 50.3568 6.0778C50.1045 5.97329 49.8598 5.94525 49.6227 5.99623C49.3844 6.04721 49.169 6.16319 48.9753 6.34289C48.7841 6.52387 48.6299 6.75073 48.5114 7.02602C48.4222 7.23377 48.3699 7.44788 48.3533 7.66837C48.3355 7.89013 48.3533 8.1017 48.4043 8.30562C48.4578 8.50571 48.5471 8.68414 48.6694 8.84091C48.7918 8.99639 48.946 9.11365 49.1333 9.19267Z" fill="#814827"/>
<path d="M52.7536 11.2292C52.6721 11.1706 52.644 11.1235 52.6721 11.0865C52.6924 11.0559 52.7434 11.0559 52.825 11.0865C52.9639 11.14 53.0812 11.1643 53.1768 11.1579C53.2711 11.1502 53.3514 11.098 53.4164 10.9998L54.8846 8.87398C54.956 8.76565 54.984 8.68535 54.9712 8.63437C54.9572 8.58084 54.905 8.50438 54.8132 8.40496C54.7112 8.3132 54.6756 8.24438 54.7062 8.19595C54.7291 8.16281 54.7877 8.17555 54.8795 8.23673L55.3791 8.60888L55.9705 8.98614C56.0584 9.05113 56.0903 9.10084 56.0673 9.13398C56.0367 9.18241 55.9756 9.18241 55.8838 9.13398C55.7844 9.09319 55.713 9.06515 55.6697 9.04731C55.6251 9.02692 55.5741 9.01035 55.5167 8.99633C55.4148 8.97594 55.3345 9.00908 55.2771 9.09319L53.7885 11.2547C53.7197 11.3567 53.6929 11.4446 53.7069 11.5198C53.7235 11.5938 53.8051 11.683 53.9516 11.7849L54.6195 12.2437C54.6322 12.2539 54.6807 12.2667 54.7622 12.2845C54.9623 12.3215 55.1815 12.2718 55.4199 12.1367C55.5142 12.0653 55.5805 12.0424 55.6187 12.0704C55.6518 12.0934 55.6506 12.1341 55.6136 12.1928C55.6059 12.1889 55.6008 12.1902 55.5983 12.1979L55.5932 12.2081C55.3447 12.4184 55.1701 12.5853 55.0681 12.7077C55.0273 12.751 54.9891 12.7612 54.956 12.7383L53.3909 11.6371L52.7536 11.2292Z" fill="#814827"/>
<path d="M57.9945 15.5613C57.8212 15.3778 57.6899 15.1714 57.602 14.9445C57.5128 14.7202 57.4694 14.4857 57.4694 14.241C57.4694 13.9963 57.5153 13.7605 57.6071 13.5323C57.6988 13.3017 57.839 13.0965 58.0302 12.9155C58.2749 12.6784 58.5476 12.5115 58.851 12.4159C59.1569 12.3216 59.4793 12.3178 59.8196 12.4057C60.1522 12.4873 60.4594 12.6733 60.7423 12.9614C60.9157 13.1449 61.0457 13.3475 61.1349 13.568C61.2266 13.7898 61.27 14.0167 61.2674 14.2512C61.2636 14.4857 61.2164 14.7151 61.1247 14.9394C61.0329 15.1637 60.8902 15.3689 60.6964 15.5563C60.3192 15.9195 59.8833 16.117 59.3914 16.1476C59.1569 16.168 58.9147 16.1272 58.6674 16.0253C58.4227 15.9233 58.1984 15.7678 57.9945 15.5613ZM58.2035 15.4645C58.4852 15.7563 58.8013 15.8838 59.1518 15.8468C59.501 15.8086 59.8617 15.6098 60.2325 15.2504C60.4798 15.012 60.6582 14.7622 60.7678 14.501C60.88 14.2422 60.9182 13.9912 60.8851 13.7465C60.8545 13.5018 60.7423 13.28 60.5486 13.0786C60.3613 12.8849 60.1471 12.7651 59.9063 12.7167C59.6641 12.6695 59.422 12.6899 59.1772 12.7778C58.9325 12.8671 58.7006 13.0149 58.4839 13.2214C58.3208 13.382 58.1882 13.5617 58.0863 13.7618C57.9843 13.9593 57.918 14.1607 57.8875 14.3684C57.8569 14.5749 57.8671 14.7737 57.918 14.9649C57.969 15.1548 58.0633 15.3217 58.2035 15.4645Z" fill="#814827"/>
<path d="M61.1758 19.5433C61.005 19.2846 60.9068 19.0514 60.8801 18.8449C60.8622 18.7837 60.866 18.734 60.8903 18.6971C60.9744 18.5645 61.1362 18.4205 61.3746 18.2637C61.4013 18.2472 61.437 18.2382 61.4816 18.2382C61.525 18.2357 61.5581 18.2484 61.5785 18.279C61.5951 18.3032 61.5224 18.4154 61.3593 18.6155C61.1477 18.8806 61.1515 19.1776 61.3695 19.5076C61.4714 19.667 61.6002 19.76 61.7569 19.788C61.9124 19.8186 62.0743 19.7791 62.2412 19.6708C62.5025 19.5 62.6363 19.0756 62.644 18.3963C62.6465 18.1286 62.6797 17.8992 62.7408 17.7081C62.8046 17.5182 62.932 17.3614 63.1232 17.239C63.2519 17.1549 63.3985 17.1154 63.5616 17.1218C63.7273 17.1294 63.8943 17.1804 64.0612 17.2747C64.2269 17.3703 64.3684 17.508 64.4843 17.6877C64.5889 17.8483 64.659 17.9872 64.6934 18.1057C64.724 18.2217 64.7418 18.288 64.7494 18.3045C64.7698 18.3351 64.7558 18.3797 64.7087 18.4371C64.6602 18.4919 64.6016 18.5467 64.5302 18.6053C64.4614 18.6627 64.399 18.7098 64.3416 18.748C64.26 18.8016 64.2116 18.8169 64.1989 18.7939C64.1377 18.7022 64.1441 18.618 64.2193 18.5441C64.3378 18.4396 64.4041 18.3134 64.4181 18.1669C64.4308 18.0216 64.3926 17.8788 64.3008 17.7386C64.2052 17.5959 64.0765 17.5029 63.9134 17.4583C63.7528 17.4149 63.5986 17.4417 63.4495 17.5398C63.3539 17.601 63.2863 17.6953 63.2455 17.8202C63.2073 17.9426 63.1856 18.0751 63.1793 18.2179C63.1716 18.3606 63.1665 18.4919 63.164 18.6104C63.1665 19.2859 62.9881 19.7422 62.6287 19.9767C62.4859 20.071 62.3279 20.1245 62.1546 20.1347C61.9838 20.1449 61.8143 20.1016 61.6448 20.0072C61.474 19.9155 61.3185 19.76 61.1758 19.5433Z" fill="#814827"/>
<path d="M15.3366 54.897C15.176 54.7059 15.0626 54.4956 14.995 54.2649C14.93 54.0329 14.9109 53.7984 14.9389 53.5614C14.9657 53.3268 15.0371 53.1 15.153 52.8782C15.2677 52.6577 15.4245 52.464 15.6221 52.2971C15.8183 52.1275 16.0401 52.0116 16.2848 51.9504C16.5295 51.8867 16.7768 51.8688 17.0291 51.8994C17.284 51.93 17.5249 52.009 17.753 52.1339C17.9837 52.2563 18.1876 52.4232 18.3648 52.6335C18.5343 52.8349 18.6452 52.998 18.6961 53.1229C18.7497 53.2555 18.8159 53.3855 18.895 53.5155C18.9154 53.5384 18.9013 53.5792 18.8542 53.6378C18.8096 53.699 18.7522 53.7627 18.6809 53.8315C18.6095 53.9029 18.5432 53.9641 18.482 54.0151L18.4107 54.0763C18.3864 54.0966 18.3661 54.1132 18.3495 54.1272C18.3316 54.14 18.3163 54.1527 18.3036 54.1629C18.2756 54.1693 18.2552 54.1604 18.2424 54.1374C18.2016 54.0763 18.2233 53.996 18.3087 53.8978C18.4209 53.7755 18.482 53.6378 18.4922 53.4849C18.5126 53.2198 18.4017 52.9432 18.1609 52.6539C18.0347 52.5112 17.8856 52.4041 17.7122 52.3327C17.5415 52.2614 17.3617 52.2282 17.1718 52.2308C16.9807 52.2308 16.7908 52.2665 16.6009 52.3378C16.4097 52.4067 16.2338 52.5099 16.0707 52.6488C15.8387 52.8464 15.6526 53.077 15.5099 53.3421C15.3672 53.6072 15.2983 53.8838 15.306 54.1731C15.306 54.4548 15.3952 54.7046 15.5762 54.9225C15.8782 55.2756 16.2746 55.3915 16.764 55.2692C16.7971 55.2692 16.8328 55.2756 16.8711 55.2896C16.9017 55.3023 16.9246 55.3112 16.9424 55.3151C16.9424 55.3151 16.9437 55.3151 16.9475 55.3151C16.9641 55.3355 16.945 55.3673 16.8915 55.4119C16.6595 55.5674 16.4594 55.6541 16.2899 55.6719C16.2555 55.6783 16.1535 55.626 15.984 55.5139C15.8005 55.3915 15.5838 55.1851 15.3366 54.897Z" fill="#814827"/>
<path d="M19.3327 58.7398C19.1352 58.583 18.9771 58.3982 18.8586 58.1841C18.7426 57.97 18.67 57.7406 18.6394 57.4959C18.6088 57.255 18.6241 57.0154 18.6853 56.777C18.749 56.54 18.8637 56.3182 19.0268 56.1143C19.2409 55.8467 19.492 55.6453 19.7813 55.5127C20.0732 55.3776 20.3905 55.333 20.7347 55.3802C21.0813 55.4184 21.4101 55.5624 21.7237 55.8135C21.9199 55.9741 22.0767 56.1589 22.1927 56.3692C22.3112 56.5769 22.3826 56.7962 22.4068 57.0268C22.4336 57.2588 22.4144 57.4908 22.3507 57.7253C22.2895 57.9623 22.1748 58.1854 22.0091 58.3931C21.6829 58.8035 21.2763 59.0533 20.7907 59.1425C20.5562 59.1935 20.3115 59.1846 20.0566 59.117C19.8017 59.0482 19.5596 58.9233 19.3327 58.7398ZM19.5264 58.6225C19.8425 58.8736 20.17 58.959 20.5103 58.8774C20.8532 58.7984 21.1858 58.5575 21.5095 58.1535C21.7237 57.8846 21.869 57.6144 21.948 57.3429C22.0257 57.0715 22.0321 56.8166 21.9684 56.5782C21.9072 56.3373 21.767 56.1296 21.5503 55.9563C21.3362 55.7868 21.1068 55.6937 20.8621 55.6759C20.6199 55.6593 20.3829 55.7116 20.1484 55.8339C19.9164 55.9537 19.7074 56.1296 19.5213 56.3641C19.3786 56.5413 19.2677 56.735 19.19 56.9453C19.1148 57.153 19.0753 57.3595 19.0727 57.5672C19.0689 57.7737 19.1046 57.97 19.1798 58.1535C19.2537 58.3396 19.3697 58.4963 19.5264 58.6225Z" fill="#814827"/>
<path d="M25.7762 62.7508C25.7418 62.7329 25.6972 62.6743 25.6437 62.5724C25.5927 62.4729 25.557 62.3506 25.5366 62.2053C25.5188 62.1263 25.4551 61.8331 25.3429 61.3233C25.2333 60.8174 25.0778 60.0935 24.8739 59.1516C24.8561 59.0777 24.8344 59.0331 24.8076 59.0191C24.777 59.0025 24.7439 59.0293 24.7108 59.1006C24.4966 59.5085 24.308 59.8679 24.1449 60.1763C23.9817 60.4822 23.8467 60.7409 23.7421 60.9512C23.6262 61.1781 23.6631 61.3667 23.8543 61.5171C23.9524 61.5884 23.9932 61.642 23.9767 61.6802C23.9563 61.7172 23.8976 61.7108 23.8033 61.6598L23.3445 61.4049L22.8857 61.1959C22.7863 61.1449 22.748 61.1003 22.7684 61.0634C22.785 61.0264 22.8462 61.0264 22.952 61.0634C23.0259 61.0761 23.096 61.0697 23.161 61.043C23.2247 61.02 23.2859 60.9818 23.3445 60.9308C23.4019 60.8798 23.4439 60.8378 23.472 60.8034C23.7804 60.3343 24.1462 59.6856 24.568 58.8559C24.6521 58.6928 24.6751 58.5539 24.6343 58.4379C24.5961 58.3194 24.5221 58.2021 24.41 58.0861C24.2978 57.9714 24.2519 57.8924 24.2723 57.8516C24.2953 57.8045 24.345 57.7994 24.4202 57.8363L25.1798 58.2544C25.2129 58.2722 25.2371 58.3206 25.2511 58.4022C25.2537 58.42 25.2677 58.4914 25.2919 58.6163C25.3149 58.7425 25.3455 58.9005 25.3837 59.0904C25.4245 59.2816 25.4665 59.4881 25.5111 59.7124C25.5583 59.9341 25.6042 60.1585 25.6488 60.3853C25.6959 60.6096 25.738 60.8186 25.7762 61.0124C25.817 61.2061 25.8502 61.3667 25.8782 61.4967C25.905 61.6254 25.9215 61.7031 25.9292 61.7312C25.9559 61.8331 25.9853 61.8905 26.0158 61.9045C26.0388 61.9173 26.0694 61.8918 26.1076 61.828C26.165 61.7184 26.2618 61.5336 26.3982 61.2724C26.5333 61.0111 26.7092 60.6695 26.9233 60.2477L27.1425 59.8143C27.1693 59.7506 27.1654 59.6742 27.1323 59.5849C27.1017 59.4932 27.0469 59.4205 26.9692 59.3657C26.8876 59.302 26.857 59.2485 26.8774 59.2077C26.8978 59.1707 26.9564 59.1771 27.0558 59.2281L27.3362 59.3708L27.9174 59.6461C28.0155 59.6971 28.055 59.7404 28.0347 59.7736C28.0104 59.8245 27.934 59.8284 27.8052 59.7838C27.6791 59.7506 27.5873 59.7417 27.5299 59.7583C27.4713 59.7723 27.4089 59.8373 27.3413 59.952C27.3069 60.017 27.1731 60.2757 26.9386 60.7269C26.7066 61.1755 26.3753 61.8242 25.9445 62.6743C25.8999 62.7584 25.8438 62.7839 25.7762 62.7508Z" fill="#814827"/>
<path d="M28.5525 63.7474C28.4531 63.7168 28.4098 63.6786 28.42 63.6352C28.4327 63.5983 28.5066 63.5881 28.6392 63.6047C28.7679 63.6149 28.866 63.5996 28.9349 63.5588C29.0062 63.5154 29.0598 63.4301 29.098 63.3039L29.7709 61.0455C29.8219 60.876 29.8372 60.7447 29.8168 60.6529C29.799 60.5586 29.7327 60.4796 29.618 60.4184C29.4918 60.3611 29.437 60.3063 29.4549 60.2553C29.4651 60.2183 29.5224 60.2145 29.6282 60.2451L30.5407 60.5357L31.4635 60.7957L31.6725 60.8568L31.749 60.8772C31.8101 60.8951 31.8382 60.9206 31.8356 60.9537C31.8254 61.0047 31.8076 61.0761 31.7846 61.1678C31.7643 61.2596 31.7362 61.3692 31.7031 61.4941C31.6789 61.5693 31.6495 61.6011 31.6164 61.591C31.5756 61.5782 31.5565 61.5489 31.5603 61.5043C31.5565 61.3654 31.5323 61.2519 31.489 61.1627C31.4482 61.071 31.3513 61.0034 31.1984 60.9588L30.5203 60.7549C30.4655 60.7383 30.4209 60.7421 30.3878 60.7651C30.3534 60.7855 30.3279 60.811 30.3113 60.8415C30.3011 60.8696 30.282 60.918 30.2552 60.9894C30.2374 61.0238 30.217 61.0812 30.1941 61.1627C30.1699 61.2417 30.1393 61.3437 30.1023 61.4686C30.0679 61.591 30.0373 61.6955 30.0105 61.7796C29.9863 61.8611 29.971 61.9223 29.9647 61.9631C29.9404 62.0447 29.9455 62.0893 29.98 62.0957L30.607 62.269C30.7663 62.3174 30.895 62.2792 30.9945 62.1568C31.0047 62.1441 31.0225 62.1301 31.0505 62.116C31.0811 62.0995 31.1041 62.0944 31.1219 62.1008C31.1321 62.1046 31.1436 62.1148 31.1576 62.1313C31.164 62.1492 31.1601 62.181 31.1474 62.2282C31.1334 62.2728 31.1181 62.3174 31.1015 62.3607C31.0875 62.4015 31.0722 62.4474 31.0556 62.4984C31.0314 62.5774 31.0021 62.6959 30.969 62.8553C30.9486 62.9164 30.9205 62.9445 30.8874 62.9368C30.8364 62.9203 30.8084 62.8654 30.8058 62.7737C30.802 62.6207 30.737 62.5277 30.6121 62.4933C30.6121 62.4933 30.5892 62.4869 30.5458 62.4729C30.5012 62.4602 30.435 62.4359 30.347 62.4015C30.3088 62.3913 30.2603 62.3799 30.1992 62.3658C30.1405 62.3493 30.073 62.3327 29.9953 62.3149C29.9099 62.2945 29.8551 62.3276 29.8321 62.4117C29.6996 62.854 29.6027 63.1943 29.5415 63.4313C29.5135 63.5537 29.516 63.6531 29.5466 63.7321C29.5798 63.8137 29.6537 63.885 29.7658 63.9462C29.8844 63.9998 29.9366 64.0456 29.9239 64.0839C29.9137 64.1272 29.8551 64.1348 29.7505 64.1043C29.7021 64.0902 29.6537 64.0737 29.6027 64.0533C29.5517 64.0354 29.5058 64.0176 29.4651 63.9972C29.3797 63.959 29.3045 63.9322 29.2407 63.9156L28.5525 63.7474Z" fill="#814827"/>
<path d="M33.1146 64.902C33.005 64.8879 32.954 64.8586 32.9617 64.8153C32.9681 64.7745 33.0356 64.7516 33.1656 64.7439C33.3045 64.7376 33.4103 64.7082 33.4817 64.6573C33.5556 64.6063 33.6015 64.5171 33.6193 64.3871L33.9405 61.8992C33.9571 61.7705 33.9418 61.6749 33.8946 61.6138C33.85 61.55 33.7646 61.4952 33.6397 61.4506C33.5097 61.4137 33.4511 61.3678 33.4613 61.313C33.4638 61.2722 33.5174 61.2595 33.6193 61.2722L34.6032 61.42L35.8319 61.5628C35.893 61.5704 35.9236 61.5908 35.9236 61.624C35.9402 61.9298 35.9453 62.1159 35.9389 62.1796C35.9287 62.251 35.8956 62.2841 35.842 62.2765C35.814 62.274 35.7974 62.2536 35.7911 62.2153C35.7669 62.0904 35.7414 61.9948 35.7146 61.9298C35.6904 61.8623 35.6509 61.8113 35.5973 61.7769C35.5425 61.7399 35.4622 61.7144 35.3577 61.7004L34.6338 61.6087C34.5956 61.6023 34.5497 61.6125 34.4962 61.6393C34.4452 61.6673 34.4172 61.7055 34.4146 61.7565L34.2617 62.9239C34.254 62.9584 34.2591 62.9889 34.277 63.0157C34.2974 63.0399 34.319 63.0539 34.3432 63.0565L34.8734 63.1279C35.0391 63.1483 35.1602 63.0922 35.2354 62.9596C35.2456 62.9469 35.2634 62.929 35.2915 62.9087C35.3182 62.8857 35.3399 62.8755 35.3577 62.8781C35.3679 62.8781 35.3794 62.8883 35.3934 62.9087C35.4062 62.929 35.4113 62.9533 35.4087 62.98L35.3475 63.2757L35.317 63.653C35.3068 63.718 35.2838 63.7473 35.2507 63.7396C35.1921 63.7333 35.1564 63.6861 35.1436 63.5969C35.1092 63.4235 35.034 63.3292 34.9193 63.3114L34.4095 63.2451C34.3381 63.2387 34.2872 63.2438 34.2566 63.2604C34.2285 63.2744 34.2107 63.3114 34.2005 63.3726L34.0629 64.4329C34.045 64.5693 34.0603 64.6675 34.1087 64.7286C34.1597 64.7898 34.2489 64.8293 34.3789 64.8459L34.955 64.9224C35.0875 64.9389 35.1908 64.9376 35.266 64.9173C35.3437 64.8994 35.4113 64.8637 35.4699 64.8102C35.5311 64.7528 35.5935 64.6675 35.6585 64.5553C35.6891 64.5222 35.721 64.5069 35.7554 64.5094C35.7987 64.5171 35.8178 64.54 35.8115 64.5808C35.8013 64.656 35.7809 64.7388 35.7503 64.8306C35.7222 64.9224 35.6866 65.0256 35.6432 65.1416C35.6152 65.1989 35.5846 65.2257 35.5515 65.2231L33.7519 64.958L33.1146 64.902Z" fill="#814827"/>
<path d="M37.9342 65.3152C37.8284 65.3178 37.7761 65.2974 37.7761 65.254C37.7761 65.2132 37.8437 65.1801 37.98 65.1521C38.1151 65.1291 38.2171 65.0858 38.2859 65.0246C38.3535 64.9609 38.3853 64.8653 38.3828 64.7391L38.3471 62.2207C38.3471 62.092 38.3178 62.0002 38.2604 61.9454C38.2056 61.8881 38.1139 61.8473 37.9851 61.8231C37.8526 61.8065 37.7863 61.7708 37.7863 61.716C37.7863 61.6752 37.8386 61.6536 37.9444 61.6497L38.5969 61.6599L39.2087 61.6345C39.3132 61.6319 39.3667 61.6497 39.3667 61.6905C39.3667 61.7453 39.3004 61.7848 39.1679 61.8078C39.0353 61.8358 38.9397 61.8792 38.8824 61.9403C38.8238 61.999 38.7957 62.0907 38.7957 62.2156L38.8314 64.734C38.834 64.8602 38.8722 64.9532 38.9436 65.0144C39.0175 65.073 39.1245 65.1138 39.2647 65.1368C39.3973 65.1572 39.4636 65.1878 39.4636 65.2285C39.4636 65.2731 39.4088 65.2948 39.3004 65.2948L38.6479 65.2795L37.9342 65.3152Z" fill="#814827"/>
<path d="M42.6342 64.9866C42.5246 65.007 42.4673 64.9956 42.4609 64.9509C42.4532 64.9102 42.5144 64.8681 42.6444 64.8235C42.9095 64.7254 43.0217 64.561 42.9809 64.329L42.5526 61.8259C42.5323 61.7074 42.4966 61.6398 42.4456 61.622C42.3972 61.6054 42.313 61.6067 42.1907 61.6271L42.0021 61.6576L41.7472 61.7035C41.6478 61.7214 41.5598 61.7545 41.4821 61.8055C41.4081 61.8539 41.3584 61.9075 41.3342 61.9686C41.3177 62.0336 41.2909 62.0935 41.2527 62.1471C41.2119 62.2019 41.1736 62.2324 41.1354 62.2388C41.115 62.2426 41.1023 62.2235 41.0946 62.1827C41.0883 62.1496 41.0883 62.1088 41.0946 62.0604C41.1494 61.8845 41.1736 61.6717 41.166 61.4231C41.1596 61.3352 41.1813 61.2855 41.2323 61.2753C41.2629 61.2728 41.3189 61.3212 41.4005 61.4231C41.454 61.492 41.5891 61.5085 41.8032 61.4741L43.8985 61.1122C44.0374 61.0892 44.1381 61.0446 44.1993 60.9796C44.2299 60.9592 44.2605 60.9286 44.2911 60.8879C44.3242 60.8445 44.3522 60.8101 44.3726 60.7859C44.3956 60.7591 44.4198 60.7438 44.444 60.74C44.4669 60.7375 44.4861 60.7782 44.5001 60.8624L44.5052 60.9082C44.5014 61.0344 44.5001 61.1428 44.5001 61.2345C44.5001 61.3263 44.5052 61.4053 44.5154 61.469L44.5256 61.5353C44.5319 61.5735 44.5307 61.6118 44.5205 61.6526C44.5103 61.6933 44.4912 61.7176 44.4644 61.7239C44.4236 61.7316 44.3777 61.6615 44.3267 61.5149C44.2681 61.3556 44.0718 61.3046 43.7354 61.362C43.5646 61.39 43.4219 61.4155 43.3071 61.4384C43.1912 61.4627 43.1007 61.483 43.037 61.4996C42.9783 61.5098 42.963 61.5939 42.9911 61.7494L43.4193 64.2525C43.4601 64.4909 43.6296 64.6081 43.9291 64.6043C44.0515 64.6043 44.1152 64.6247 44.1228 64.6655C44.1292 64.7101 44.082 64.7407 43.9801 64.7572L43.3326 64.8439L42.6342 64.9866Z" fill="#814827"/>
<path d="M47.1188 64.0075C47.0169 64.0483 46.9582 64.0458 46.9404 64.0024C46.9238 63.9553 46.9659 63.8928 47.0678 63.8138C47.2514 63.6711 47.3508 63.4824 47.3686 63.2479C47.412 62.3647 47.4298 61.4229 47.4196 60.4237C47.4222 60.2988 47.4158 60.2121 47.3992 60.1637C47.3814 60.1229 47.3763 60.1012 47.3839 60.0974C47.4859 60.0094 47.5432 59.9483 47.5573 59.9139C47.5675 59.8973 47.5725 59.882 47.5725 59.868C47.5751 59.8552 47.5776 59.845 47.5776 59.8374C47.5878 59.8004 47.5955 59.78 47.6031 59.7762C47.6197 59.7698 47.6452 59.7864 47.6796 59.8272C47.9574 60.1841 48.2621 60.5664 48.5921 60.9742C48.921 61.3795 49.2753 61.8103 49.6525 62.2691C49.7914 62.4361 49.9138 62.538 50.0196 62.575C50.1241 62.6132 50.2413 62.6183 50.3713 62.5903C50.4962 62.5699 50.5702 62.589 50.5906 62.6464C50.6033 62.6808 50.5612 62.7178 50.4631 62.7585L49.7239 62.9981L49.1784 63.2072C49.0765 63.2454 49.0166 63.2428 49 63.2021C48.9796 63.1485 49.0255 63.0937 49.1376 63.0389C49.3339 62.9268 49.4104 62.8095 49.367 62.6872C49.3288 62.589 49.1606 62.3392 48.8623 61.9378C48.8381 61.9046 48.7833 61.9021 48.6992 61.9327L47.7051 62.3048C47.6669 62.3227 47.649 62.366 47.649 62.4374C47.6592 62.8898 47.6796 63.1562 47.7102 63.2377C47.7408 63.3168 47.793 63.3703 47.8682 63.4009C47.9422 63.4289 48.0365 63.4353 48.1486 63.4213C48.2608 63.4085 48.3232 63.4213 48.3372 63.4621C48.35 63.5003 48.3067 63.5385 48.2047 63.5793L47.7357 63.7424L47.1188 64.0075ZM47.7714 62.0295L48.5819 61.7236C48.6291 61.7071 48.6495 61.6905 48.6431 61.6727L48.6125 61.6217L47.7408 60.5358C47.6898 60.4785 47.6605 60.4517 47.6541 60.4542C47.6439 60.4581 47.6401 60.4938 47.6439 60.5613V62.0346C47.6541 62.0588 47.6962 62.0576 47.7714 62.0295Z" fill="#814827"/>
<path d="M55.3335 60.1199C55.1831 60.2117 55.0276 60.2614 54.8645 60.2678C54.7039 60.2716 54.5458 60.255 54.3904 60.2168C54.2336 60.176 54.0896 60.1276 53.957 60.069C53.827 60.0116 53.7225 59.9645 53.6409 59.9262C53.5517 59.8893 53.4727 59.8536 53.4013 59.8192C53.33 59.7822 53.2688 59.7478 53.2178 59.7172C52.9999 59.6191 52.7399 59.6395 52.4378 59.7784L52.4276 59.7835C52.3868 59.8077 52.3843 59.8523 52.4225 59.916L52.9221 60.7368C53.0674 60.9713 53.2586 61.0427 53.4931 60.9509C53.6078 60.9038 53.6766 60.8974 53.697 60.9305C53.72 60.9688 53.6868 61.0159 53.5951 61.0733C53.5505 61.1013 53.5046 61.1281 53.4574 61.1548C53.4128 61.179 53.3682 61.1994 53.3249 61.216C53.2395 61.2542 53.1681 61.2912 53.1108 61.3282L52.5092 61.736C52.4174 61.7908 52.3588 61.7997 52.3359 61.7615C52.3155 61.7284 52.3563 61.6672 52.4582 61.578C52.5602 61.4862 52.6214 61.3983 52.6417 61.3129C52.6621 61.2288 52.6379 61.1293 52.5704 61.0172L51.3418 59.0086C51.25 58.8556 51.1633 58.7562 51.0818 58.7078C51.0002 58.6568 50.8982 58.6555 50.7759 58.7027C50.651 58.7575 50.5745 58.7613 50.5465 58.7129C50.5261 58.6798 50.5643 58.6339 50.6586 58.5753L51.1225 58.2949L51.6527 57.9329C52.3665 57.4983 52.8826 57.5404 53.2025 58.0604C53.409 58.4045 53.3861 58.7843 53.1312 59.2023C53.121 59.2201 53.1171 59.2316 53.121 59.238C53.1235 59.2418 53.1312 59.2469 53.1413 59.2533C53.1515 59.2571 53.1592 59.2609 53.1668 59.2635C53.3058 59.3285 53.4179 59.3807 53.5033 59.4215C53.5912 59.4623 53.669 59.498 53.7378 59.5286C53.8054 59.5566 53.8755 59.5834 53.9468 59.6101C54.0182 59.6382 54.11 59.6688 54.2221 59.7019C54.3343 59.7465 54.4426 59.7822 54.5484 59.809C54.6567 59.837 54.7651 59.8625 54.8747 59.8854C54.9894 59.9058 55.0939 59.9007 55.1856 59.8701C55.2774 59.8396 55.3857 59.786 55.5119 59.707C55.5629 59.6802 55.5986 59.6841 55.619 59.7172C55.6559 59.7758 55.6394 59.8434 55.568 59.9211C55.4992 60.0001 55.4214 60.0664 55.3335 60.1199ZM52.5347 59.5388C52.68 59.4508 52.787 59.3438 52.8559 59.2176C52.9234 59.0889 52.9527 58.9512 52.9425 58.8047C52.9349 58.6555 52.889 58.5128 52.8049 58.3764C52.6787 58.1725 52.5321 58.0349 52.3665 57.9635C52.2008 57.8921 51.993 57.9316 51.7445 58.0807C51.626 58.1559 51.5597 58.2273 51.5457 58.2949C51.5291 58.3599 51.5457 58.4363 51.5967 58.5243C51.6859 58.681 51.7789 58.8429 51.877 59.0086C51.9765 59.1755 52.0784 59.3476 52.1829 59.5235C52.2275 59.5987 52.2721 59.6344 52.3206 59.6305C52.3716 59.6242 52.4429 59.5936 52.5347 59.5388Z" fill="#814827"/>
<path d="M57.2223 58.5408C57.1407 58.6096 57.0859 58.6262 57.0592 58.5918C57.0311 58.5612 57.0604 58.4924 57.1458 58.3828C57.2376 58.2782 57.2898 58.1814 57.3039 58.0922C57.3166 58.0004 57.2835 57.9074 57.2019 57.8118L55.5655 55.8949C55.4813 55.7968 55.401 55.7445 55.3258 55.7369C55.2481 55.7305 55.15 55.7573 55.0302 55.8185C54.918 55.8898 54.8441 55.9051 54.8059 55.8644C54.7791 55.8338 54.8059 55.7828 54.8874 55.7114L55.3972 55.3036L55.8458 54.8906C55.9274 54.8231 55.9822 54.804 56.009 54.8346C56.0472 54.8753 56.0192 54.9493 55.9274 55.0538C55.8497 55.1596 55.8076 55.2551 55.8 55.3393C55.7898 55.4208 55.8255 55.51 55.907 55.6044L57.5435 57.5212C57.625 57.6168 57.7117 57.6639 57.8035 57.6639C57.8978 57.6614 58.0048 57.6232 58.1246 57.5518C58.2432 57.4842 58.3158 57.4651 58.3439 57.4957C58.3706 57.5301 58.3413 57.5824 58.2572 57.6537L57.7474 58.0565L57.2223 58.5408Z" fill="#814827"/>
<path d="M59.9507 56.0784C59.8818 56.1637 59.8309 56.1905 59.7926 56.1599C59.7595 56.1293 59.7659 56.0554 59.813 55.9356C59.9048 55.7253 59.8997 55.5112 59.7977 55.2933C59.4103 54.498 58.9719 53.667 58.4824 52.8003C58.4251 52.6882 58.3754 52.6155 58.3346 52.5811C58.3015 52.5544 58.2862 52.5378 58.2887 52.5302C58.3435 52.4014 58.3652 52.3199 58.355 52.2855C58.355 52.2651 58.3537 52.2498 58.3499 52.2396C58.3435 52.2268 58.3397 52.2166 58.3397 52.209C58.327 52.172 58.3219 52.1504 58.3244 52.1427C58.3346 52.13 58.3652 52.1325 58.4162 52.1529C58.8342 52.3262 59.2867 52.5123 59.7722 52.7086C60.2578 52.9061 60.7765 53.1139 61.3271 53.3305C61.5272 53.4096 61.684 53.4401 61.7961 53.4223C61.9083 53.4019 62.0128 53.3509 62.1122 53.2694C62.2142 53.1852 62.2881 53.1649 62.3365 53.2082C62.3633 53.2286 62.3416 53.2821 62.2703 53.3662L61.7401 53.9321L61.3679 54.3858C61.2965 54.4648 61.243 54.4903 61.2099 54.4623C61.1653 54.4253 61.1793 54.3552 61.2507 54.2533C61.3692 54.0596 61.3794 53.9206 61.2812 53.8352C61.1997 53.7677 60.9308 53.63 60.4758 53.4223C60.4375 53.4057 60.3904 53.4325 60.333 53.5039L59.6448 54.3094C59.618 54.3399 59.6218 54.3884 59.655 54.4521C59.8818 54.8395 60.0297 55.0626 60.0985 55.1199C60.1597 55.1709 60.2311 55.1913 60.3126 55.1811C60.3942 55.1709 60.4809 55.1327 60.5726 55.0639C60.6669 55.0027 60.7307 54.9861 60.7612 55.0129C60.7918 55.0409 60.7714 55.0944 60.7001 55.176L60.3636 55.5533L59.9507 56.0784ZM59.5632 54.029L60.124 53.3713C60.1571 53.3344 60.1673 53.3101 60.1546 53.3L60.1036 53.2694L58.8138 52.7392C58.7424 52.7124 58.7055 52.7022 58.7017 52.7086C58.6953 52.7162 58.7093 52.7494 58.7424 52.8105L59.4358 54.0596L59.4613 54.1003C59.4791 54.1144 59.5122 54.0901 59.5632 54.029Z" fill="#814827"/>
<path d="M22.3339 26.1141C21.4392 28.0488 20.9931 29.777 20.9931 31.2988C20.9931 34.4391 22.0714 36.3636 24.2304 37.0697C24.8587 37.2366 25.5023 37.3195 26.1625 37.3195C26.8252 37.3195 27.4892 37.2366 28.1558 37.0697C29.494 36.7166 30.6921 36.1865 31.7499 35.4791C32.8103 34.773 33.4794 34.095 33.7585 33.445C34.5028 31.7193 35.3006 30.8552 36.1545 30.8552C36.5828 30.8552 36.8708 31.0974 37.0212 31.5791C37.0951 31.7627 37.1142 31.9666 37.0773 32.1909C36.8899 33.6387 36.4885 35.0751 35.8742 36.4987C35.2624 37.9198 34.3983 39.5486 33.2844 41.3877C35.5135 41.4081 37.5488 41.6489 39.3918 42.1116C39.7792 42.2059 39.9729 42.3372 39.9729 42.5041C39.9729 42.7081 39.704 42.745 39.1675 42.6163C37.8853 42.2798 36.0373 42.1116 33.6208 42.1116C33.3965 42.1116 33.1544 42.1116 32.8969 42.1116C31.7614 43.7455 30.2511 45.1908 28.3648 46.4449C26.4786 47.699 24.6446 48.558 22.8641 49.0245C21.8776 49.2857 21.0403 49.417 20.3508 49.417C19.6638 49.417 19.089 49.3316 18.6277 49.1621C17.2716 48.6625 16.5936 48.0023 16.5936 47.1841C16.5936 46.9419 16.6586 46.6819 16.7873 46.4041C17.2869 45.2889 18.6047 44.2578 20.7433 43.3096C22.3607 42.5857 24.0647 42.0925 25.8566 41.8312C27.6511 41.5725 29.6623 41.4246 31.8926 41.3877C33.2691 39.0655 34.2071 36.7816 34.7067 34.5309L34.8189 34.0568C33.928 34.9132 32.9199 35.6716 31.7958 36.3305C30.6704 36.9907 29.6903 37.4508 28.8542 37.712C27.5147 38.1377 26.4136 38.3493 25.5507 38.3493C24.6866 38.3493 23.9308 38.2295 23.2821 37.9873C22.0917 37.5795 21.1257 36.7625 20.3814 35.5352C19.5823 34.2339 19.1833 32.6829 19.1833 30.8807C19.1833 29.0799 19.6575 27.1477 20.6057 25.0843C19.3783 23.82 18.7653 22.478 18.7653 21.0569C18.7653 19.6371 19.3414 18.2861 20.4935 17.004C20.7178 16.7593 20.881 16.6714 20.9829 16.7389C21.0849 16.8039 21.0416 16.9658 20.8555 17.2232C20.0194 18.3384 19.6014 19.4638 19.6014 20.5981C19.6014 21.8968 20.0831 23.1139 21.0492 24.2482C21.1614 24.0074 21.3666 23.6454 21.6661 23.1624C23.1139 20.7842 25.083 18.9616 27.5746 17.6973C29.5246 16.6956 31.4096 16.1934 33.2283 16.1934C33.7305 16.1934 34.2339 16.2317 34.7373 16.3056C37.1334 16.6765 38.7494 17.6604 39.5855 19.2573C39.9181 19.8895 40.0851 20.5726 40.0851 21.3067C40.0851 22.0408 39.8531 22.8259 39.3918 23.662C38.348 25.4641 36.5267 26.7284 33.9267 27.4549C32.5503 27.8423 31.1483 28.036 29.7209 28.036C26.7092 28.036 24.2469 27.3962 22.3339 26.1141ZM33.8706 17.055C32.2724 17.055 30.5824 17.5954 28.7981 18.6761C26.1778 20.2361 24.1437 22.4741 22.6959 25.3902C23.5689 26.0606 24.577 26.5347 25.719 26.8125C26.8609 27.0916 27.776 27.2306 28.4668 27.2306C32.3846 27.2306 35.3465 26.1804 37.3526 24.08C38.3582 23.0031 38.8616 21.9261 38.8616 20.8479C38.8616 19.1388 37.9044 17.9866 35.9914 17.3914C35.2841 17.1671 34.5767 17.055 33.8706 17.055ZM18.0108 47.3829C18.0108 47.9029 18.4569 48.2547 19.3516 48.4382C19.6473 48.5121 19.971 48.5504 20.3253 48.5504C21.6431 48.5504 23.3153 48.0762 25.3417 47.128C27.9073 45.958 29.9414 44.2961 31.444 42.1422C29.4927 42.1957 27.7849 42.3436 26.3205 42.5857C24.1998 42.9018 22.1822 43.6729 20.2692 44.9002C18.7628 45.865 18.0108 46.6921 18.0108 47.3829Z" fill="#814827"/>
<path d="M64.0496 41.2856C64.0496 42.3434 63.6698 43.3248 62.9128 44.2322C61.8384 45.5271 60.4046 46.4626 58.6101 47.0361C57.2744 47.4605 55.977 47.6734 54.7203 47.6734C54.2577 47.6734 53.8039 47.6453 53.3591 47.5918C50.4533 47.2209 47.9922 46.5824 45.9772 45.675C44.142 47.0234 42.206 47.6989 40.1706 47.6989C37.7644 47.6989 36.2758 47.0323 35.7048 45.7005C35.5723 45.3882 35.506 45.0199 35.506 44.5942C35.506 44.166 35.7201 43.7123 36.1483 43.233C36.8136 42.4926 37.7389 42.1217 38.9216 42.1217C39.6991 42.1217 40.4026 42.2326 41.0322 42.453C41.6605 42.6748 42.4367 43.0368 43.362 43.5389C44.2898 44.0385 44.9755 44.3992 45.4216 44.6197C46.2334 43.8244 47.0746 42.7181 47.9451 41.3009C48.8143 39.8837 49.5777 38.4957 50.2341 37.1358C50.893 35.7772 51.7303 34.2644 52.7474 32.5986C53.767 30.9341 54.8031 29.5182 55.8571 28.352L57.4426 26.5473C55.9808 26.2861 54.3698 26.1548 52.6097 26.1548C50.8522 26.1548 48.9188 26.3867 46.8082 26.8481C43.9189 27.4599 41.6975 28.7012 40.1452 30.5696C39.1995 31.6988 38.7279 32.772 38.7279 33.7916C38.7279 35.1451 39.3856 36.0232 40.7008 36.4272C41.1622 36.5572 41.5688 36.6209 41.9192 36.6209C42.2723 36.6209 42.6801 36.5572 43.1428 36.4272C43.6041 36.2985 44.0528 36.027 44.4886 35.6115C44.9232 35.1935 45.238 34.7908 45.4318 34.4033C45.628 34.0133 45.7274 33.7202 45.7274 33.5265C45.7274 33.3327 45.8192 33.2359 46.0027 33.2359C46.1888 33.2537 46.2908 33.3825 46.3086 33.6233V33.6539C46.1047 35.0036 45.3821 36.0296 44.142 36.7331C43.3836 37.1409 42.6253 37.3449 41.8683 37.3449L40.4204 37.0951C38.459 36.4119 37.4789 35.1349 37.4789 33.2614C37.4789 31.9869 38.0422 30.7302 39.1714 29.4889C40.9863 27.4535 43.6526 26.1854 47.1702 25.6858C48.8729 25.4449 50.6445 25.3238 52.4874 25.3238C54.329 25.3238 56.2038 25.5277 58.1105 25.9356C58.6266 25.4908 59.0791 25.1951 59.4665 25.0485C59.8565 24.8994 60.0847 24.8242 60.1497 24.8242C60.2134 24.8242 60.2542 24.8331 60.272 24.8497C60.3842 24.8497 60.4071 24.9109 60.3434 25.0332C60.2784 25.153 60.0745 25.3238 59.7316 25.5481C59.3875 25.7699 59.181 25.9713 59.1097 26.1548C61.6242 26.8048 63.4379 27.7301 64.5492 28.9332C65.1406 29.5997 65.4363 30.2791 65.4363 30.9724C65.4363 31.6657 65.2323 32.3641 64.8245 33.0677C64.2905 33.9955 63.4226 34.6965 62.2194 35.168C61.0163 35.637 59.803 35.9009 58.5795 35.9582C59.7648 36.3291 60.8659 36.8478 61.883 37.5131C63.327 38.455 64.0496 39.7129 64.0496 41.2856ZM54.3328 46.8934C56.4052 46.8934 58.164 46.302 59.6093 45.1193C61.1794 43.8626 61.9645 42.5015 61.9645 41.0358C61.9645 39.5204 61.1603 38.3734 59.5532 37.5947C58.958 37.3168 58.2303 37.0428 57.3713 36.7739C56.511 36.5062 55.8176 36.2794 55.2913 36.0959C54.7636 35.9123 54.4628 35.7364 54.3889 35.5657C54.3889 35.2165 54.6566 35.0329 55.1944 35.0151C55.5436 35.0151 56.0789 35.0431 56.8003 35.0967C57.5242 35.1515 58.1436 35.1757 58.661 35.168C59.181 35.1578 59.8055 34.973 60.5371 34.6123C61.2674 34.2491 61.8932 33.7814 62.4132 33.2104C63.2454 32.2826 63.6622 31.4134 63.6622 30.6002C63.6622 28.8605 62.0321 27.6103 58.7732 26.8481C57.7944 28.2016 56.0356 31.0578 53.4968 35.4178C50.9605 39.7753 49.008 42.6952 47.6392 44.1762L46.5839 45.1754C48.6766 46.0459 50.9274 46.6015 53.3336 46.8424C53.6829 46.8756 54.0168 46.8934 54.3328 46.8934ZM44.8098 45.1448C42.6444 44.1086 41.2744 43.4905 40.7008 43.2891C40.126 43.0852 39.5563 42.9832 38.993 42.9832C38.4284 42.9832 37.9798 43.1821 37.6471 43.5797C37.3132 43.9773 37.1475 44.338 37.1475 44.6605C37.1475 44.9842 37.2202 45.2926 37.3667 45.5883C37.7746 46.4244 38.6259 46.8424 39.9208 46.8424C41.6809 46.8424 43.311 46.2765 44.8098 45.1448Z" fill="#814827"/>
</svg>
