<svg width="29" height="28" viewBox="0 0 29 28" fill="none" xmlns="http://www.w3.org/2000/svg">
<path d="M0 1.21423H1.7348V1.7925H0M2.31307 1.21423H4.04825V1.7925H2.31307M4.62651 1.21423H6.36131V1.7925H4.62651M6.93958 1.21423H8.67438V1.7925H6.93958M9.25265 1.21423H10.9878V1.7925H9.25265M11.5661 1.21423H13.3009V1.7925H11.5661M13.8792 1.21423H15.614V1.7925H13.8792M16.1922 1.21423H17.9274V1.7925H16.1922M18.5057 1.21423H20.2405V1.7925H18.5057M20.8187 1.21423H22.5535V1.7925H20.8187M23.1318 1.21423H24.867V1.7925H23.1318M25.4453 1.21423H27.1801V1.7925H25.4453M27.7583 1.21423H28.9149V1.7925H27.7583" fill="#FA7F7F"/>
<mask id="mask0_20_2582" style="mask-type:luminance" maskUnits="userSpaceOnUse" x="28" y="0" width="1" height="4">
<path d="M28.1919 0H28.9147V3.00669H28.1919V0Z" fill="white"/>
</mask>
<g mask="url(#mask0_20_2582)">
<path d="M28.1919 0H28.9147V3.00744H28.1919V0Z" fill="#FA7F7F"/>
</g>
<mask id="mask1_20_2582" style="mask-type:luminance" maskUnits="userSpaceOnUse" x="0" y="0" width="1" height="4">
<path d="M0 0H0.722834V3.00669H0V0Z" fill="white"/>
</mask>
<g mask="url(#mask1_20_2582)">
<path d="M0 0H0.722834V3.00744H0V0Z" fill="#FA7F7F"/>
</g>
<mask id="mask2_20_2582" style="mask-type:luminance" maskUnits="userSpaceOnUse" x="0" y="3" width="29" height="25">
<path d="M0.154663 3.54712H28.8223V27.2572H0.154663V3.54712Z" fill="white"/>
</mask>
<g mask="url(#mask2_20_2582)">
<path d="M14.9325 4.34679V4.01758C14.9325 3.9865 14.9295 3.95616 14.9235 3.92583C14.9171 3.89549 14.9085 3.8659 14.8966 3.83744C14.8849 3.80897 14.8703 3.78201 14.8531 3.75617C14.8359 3.73032 14.8164 3.70673 14.7947 3.68501C14.7726 3.66291 14.749 3.64343 14.7231 3.62621C14.6977 3.60935 14.6703 3.59474 14.6419 3.58276C14.6134 3.57115 14.5842 3.56216 14.5539 3.55617C14.5235 3.55018 14.4928 3.54718 14.4621 3.54718C14.431 3.54718 14.4003 3.55018 14.3703 3.55617C14.34 3.56216 14.3104 3.57115 14.282 3.58276C14.2535 3.59474 14.2262 3.60935 14.2007 3.62621C14.1748 3.64343 14.1512 3.66291 14.1291 3.68501C14.1074 3.70673 14.088 3.73032 14.0707 3.75617C14.0535 3.78201 14.0393 3.80897 14.0273 3.83744C14.0157 3.8659 14.0067 3.89549 14.0007 3.92583C13.9947 3.95616 13.9913 3.9865 13.9913 4.01758V4.34679C7.20792 4.40784 0.179199 5.81456 0.179199 8.37856V12.1654C0.183319 12.2811 0.199049 12.395 0.226015 12.5073C0.253355 12.6193 0.291182 12.7279 0.340245 12.8328C0.388933 12.9373 0.447734 13.0362 0.516647 13.129C0.585559 13.2215 0.662712 13.3066 0.748478 13.3841V23.3667C0.748478 25.9213 7.64986 27.2573 14.4621 27.2573C21.274 27.2573 28.1705 25.9213 28.1705 23.3667V13.3841C28.257 13.3069 28.3349 13.2223 28.4046 13.1298C28.4738 13.0369 28.533 12.9384 28.5825 12.8335C28.6319 12.7287 28.6701 12.6204 28.6974 12.5077C28.7248 12.3953 28.7405 12.2811 28.7446 12.1654V8.40215C28.7446 5.81456 21.7163 4.40784 14.9325 4.34679ZM14.4621 26.3165C6.54913 26.3165 1.69415 24.5993 1.69415 23.3667V21.7296C3.80648 23.3056 9.15994 24.1053 14.4621 24.1053C19.7639 24.1053 25.1129 23.3056 27.2297 21.7296V23.3667C27.2297 24.5993 22.3702 26.3165 14.4621 26.3165ZM14.9325 5.4288V5.2876C22.9297 5.35352 27.799 7.11304 27.799 8.37856C27.799 8.67481 27.4933 9.02761 26.9428 9.36656C26.7829 9.46056 26.5993 9.55944 26.4016 9.65344C26.3076 9.70026 26.2042 9.74745 26.096 9.78977C25.9642 9.84632 25.8185 9.90288 25.6724 9.95456L25.4657 10.0298L25.1597 10.1332C24.7645 10.265 24.3271 10.3871 23.8473 10.5047L23.7342 10.5332L23.4237 10.6085L23.1088 10.6744L22.9676 10.7074C20.3983 11.1965 17.8062 11.4489 15.1913 11.4646H13.7423C11.127 11.4508 8.53486 11.1999 5.96562 10.7119L5.8248 10.6789L5.19409 10.5283L5.08623 10.5002C4.61545 10.3826 4.14505 10.2557 3.74056 10.119L3.4724 10.0392L3.26079 9.95906C3.11473 9.90737 2.97391 9.85082 2.84208 9.79464L2.53159 9.66281C2.32935 9.5688 2.15033 9.46993 1.9904 9.37592C1.42599 9.02761 1.12038 8.67481 1.12038 8.37856C1.12038 7.11304 6.00344 5.35352 13.9913 5.2876V5.4288C13.9913 5.45988 13.9947 5.49022 14.0007 5.52055C14.0067 5.55089 14.0157 5.58048 14.0273 5.60894C14.0393 5.63741 14.0535 5.66437 14.0707 5.69021C14.088 5.71606 14.1074 5.73965 14.1291 5.76137C14.1512 5.78347 14.1748 5.80295 14.2007 5.82017C14.2262 5.83703 14.2535 5.85164 14.282 5.86362C14.3104 5.87523 14.34 5.88422 14.3703 5.89021C14.4003 5.8962 14.431 5.8992 14.4621 5.8992C14.4928 5.8992 14.5235 5.8962 14.5539 5.89021C14.5842 5.88422 14.6134 5.87523 14.6419 5.86362C14.6703 5.85164 14.6977 5.83703 14.7231 5.82017C14.749 5.80295 14.7726 5.78347 14.7947 5.76137C14.8164 5.73965 14.8359 5.71606 14.8531 5.69021C14.8703 5.66437 14.8849 5.63741 14.8966 5.60894C14.9085 5.58048 14.9171 5.55089 14.9235 5.52055C14.9295 5.49022 14.9325 5.45988 14.9325 5.4288ZM27.1214 15.6751L27.2203 15.5811V20.224C27.2203 21.4521 22.3605 23.1693 14.4524 23.1693C6.54426 23.1693 1.69415 21.4237 1.69415 20.2147V15.5811L1.79752 15.6751L1.87767 15.7455L1.98591 15.8301L2.07542 15.896L2.19302 15.9668L2.28216 16.023L2.41399 16.0889L2.508 16.1312L2.64433 16.1833L2.7432 16.2207L2.88927 16.2582L2.98777 16.2818C3.04432 16.2818 3.10087 16.2818 3.15743 16.3103H3.50049C3.75255 16.3099 3.99861 16.2724 4.23943 16.1975C4.47987 16.123 4.70422 16.0148 4.91208 15.8724C4.95702 15.9511 5.00646 16.0271 5.05964 16.1005C5.11282 16.1739 5.17013 16.244 5.2308 16.3114C5.29147 16.3784 5.35589 16.4421 5.4233 16.5028C5.49109 16.5631 5.56188 16.6196 5.63529 16.6724C5.70907 16.7249 5.78547 16.7735 5.8645 16.8185C5.94315 16.8631 6.02442 16.9031 6.10756 16.9391C6.19071 16.975 6.27572 17.0065 6.36224 17.0335C6.44876 17.0601 6.53639 17.0822 6.62553 17.0998C6.71429 17.1174 6.8038 17.1297 6.89444 17.1376C6.9847 17.1454 7.07496 17.1484 7.1656 17.1469C7.25623 17.1451 7.34649 17.1383 7.43638 17.1267C7.52626 17.1155 7.6154 17.099 7.70342 17.078C7.7918 17.0571 7.87832 17.0316 7.96409 17.0013C8.04948 16.9709 8.133 16.9361 8.21464 16.8968C8.29629 16.8574 8.37569 16.814 8.45284 16.7664C8.52962 16.7185 8.60415 16.6668 8.67568 16.6114C8.72737 16.6915 8.78355 16.7683 8.84422 16.8421C8.90452 16.9159 8.96931 16.9859 9.03785 17.0526C9.10639 17.1189 9.1783 17.1814 9.25395 17.2398C9.32923 17.2979 9.40788 17.3518 9.48953 17.4013C9.57117 17.4507 9.65544 17.4953 9.74196 17.5353C9.82885 17.5754 9.91761 17.6102 10.0082 17.6398C10.0989 17.6698 10.1906 17.6945 10.2843 17.714C10.3775 17.7335 10.4719 17.7477 10.567 17.7563C10.6622 17.7653 10.7573 17.7687 10.8528 17.7668C10.9479 17.7645 11.0431 17.7574 11.1378 17.7447C11.2322 17.732 11.3258 17.714 11.4183 17.6908C11.5108 17.6672 11.6019 17.6387 11.6914 17.6054C11.7805 17.5717 11.8678 17.5331 11.9528 17.4896C12.0378 17.4462 12.1202 17.3983 12.1996 17.3454C12.279 17.2926 12.3554 17.2353 12.4284 17.1743C12.5015 17.1129 12.5711 17.0473 12.6367 16.978C12.6955 17.0402 12.7573 17.0994 12.8224 17.1552C12.8872 17.2114 12.9546 17.2638 13.025 17.3129C13.0951 17.3616 13.1677 17.4072 13.2423 17.4488C13.3172 17.4904 13.394 17.5282 13.4726 17.5619C13.5513 17.596 13.6314 17.6256 13.7131 17.6514C13.7947 17.6769 13.8775 17.6986 13.9614 17.7159C14.0453 17.7331 14.1299 17.7462 14.2153 17.7548C14.3003 17.7634 14.3857 17.7679 14.4715 17.7679C14.5569 17.7679 14.6422 17.7634 14.7276 17.7548C14.8127 17.7462 14.8973 17.7331 14.9812 17.7159C15.0651 17.6986 15.1479 17.6769 15.2295 17.6514C15.3112 17.6256 15.3913 17.596 15.4699 17.5619C15.5486 17.5282 15.6254 17.4904 15.7003 17.4488C15.7752 17.4072 15.8475 17.3616 15.9179 17.3129C15.9879 17.2638 16.0557 17.2114 16.1205 17.1552C16.1853 17.0994 16.2471 17.0402 16.3059 16.978C16.4239 17.1031 16.5531 17.2147 16.6939 17.3136C16.8347 17.4121 16.9838 17.4953 17.1418 17.563C17.2995 17.6312 17.4624 17.6825 17.6306 17.717C17.7991 17.7514 17.9692 17.7687 18.1407 17.7687C18.3519 17.7675 18.5602 17.7409 18.7647 17.6885C18.9695 17.6361 19.1646 17.5593 19.35 17.4582C19.5358 17.3574 19.7062 17.235 19.8613 17.0919C20.0167 16.9484 20.1519 16.7882 20.2672 16.6114C20.3388 16.6672 20.4129 16.7189 20.4897 16.7668C20.5669 16.8147 20.6463 16.8586 20.7279 16.8979C20.8096 16.9372 20.8931 16.972 20.9785 17.0028C21.0639 17.0331 21.1508 17.0589 21.2391 17.0799C21.3272 17.1013 21.4163 17.1174 21.5062 17.129C21.5961 17.1406 21.6867 17.1473 21.7773 17.1492C21.868 17.1511 21.9582 17.1481 22.0489 17.1402C22.1391 17.1323 22.2286 17.1196 22.3178 17.1024C22.4069 17.0848 22.4945 17.0627 22.5811 17.0357C22.668 17.0087 22.7526 16.9773 22.8361 16.9413C22.9193 16.9054 23.0002 16.8649 23.0792 16.8204C23.1582 16.7754 23.2346 16.7267 23.308 16.6739C23.3818 16.6211 23.4526 16.5642 23.52 16.5039C23.5878 16.4436 23.6518 16.3795 23.7125 16.3121C23.7732 16.2447 23.8301 16.1743 23.8833 16.1009C23.9365 16.0275 23.9855 15.9515 24.0309 15.8724C24.2387 16.0144 24.4631 16.1222 24.7035 16.1968C24.9443 16.2713 25.1904 16.3091 25.4421 16.3103H25.79C25.8466 16.3103 25.9031 16.3103 25.9597 16.2818L26.0537 16.2488L26.1994 16.2114L26.2982 16.1736L26.4346 16.1219L26.5289 16.0796L26.6559 16.0136C26.6881 15.9968 26.7196 15.9777 26.7499 15.9575L26.8675 15.8867L26.957 15.8208L27.0649 15.7361L27.1214 15.6751ZM27.399 12.8193L27.2297 12.9511L27.178 12.9935C27.1218 13.0328 27.0769 13.0822 27.042 13.1414C27.0076 13.2006 26.987 13.2642 26.9802 13.3324C26.9739 13.3777 26.9739 13.423 26.9802 13.4687C27.0008 13.5729 27.0121 13.6777 27.0132 13.7837C27.0132 13.8361 27.0106 13.8886 27.0053 13.9406C26.9997 13.9931 26.9922 14.0448 26.9817 14.0961C26.9713 14.1477 26.9585 14.1983 26.9432 14.2485C26.9278 14.2987 26.9102 14.3477 26.89 14.3964C26.8698 14.4447 26.8473 14.4919 26.8222 14.5384C26.7975 14.5844 26.7705 14.6294 26.7413 14.6728C26.7121 14.7163 26.681 14.7586 26.6477 14.799C26.6143 14.8395 26.5787 14.8781 26.5417 14.9152C26.5046 14.9522 26.4656 14.9874 26.4252 15.0204C26.3847 15.0537 26.3424 15.0848 26.299 15.114C26.2552 15.1432 26.2102 15.1698 26.1641 15.1945C26.1177 15.2193 26.0705 15.2417 26.0218 15.2616C25.9735 15.2818 25.9241 15.2994 25.8739 15.3144C25.8237 15.3298 25.7728 15.3425 25.7215 15.3526C25.6701 15.3627 25.6181 15.3706 25.566 15.3758C25.514 15.3807 25.4615 15.3833 25.4091 15.3833C25.2908 15.3837 25.1735 15.3709 25.0578 15.3451C24.9421 15.3193 24.8308 15.2807 24.7237 15.2298C24.6166 15.1788 24.5166 15.117 24.4234 15.0436C24.3301 14.9702 24.2466 14.8874 24.1717 14.7953C24.1215 14.7361 24.0604 14.6923 23.9885 14.6635C23.9301 14.6369 23.8691 14.623 23.805 14.6211C23.7706 14.6167 23.7357 14.6167 23.7013 14.6211C23.6586 14.6309 23.6181 14.6462 23.5799 14.6672C23.5413 14.6886 23.5065 14.7144 23.4754 14.7451C23.4443 14.7758 23.4178 14.8103 23.3964 14.8485C23.3747 14.8863 23.359 14.9268 23.3485 14.9695C23.332 15.044 23.3099 15.1166 23.2825 15.1882C23.2552 15.2593 23.223 15.3286 23.1859 15.3953C23.1485 15.462 23.1069 15.5256 23.0605 15.5863C23.014 15.647 22.9635 15.7039 22.9091 15.7571C22.8545 15.8106 22.7964 15.8597 22.7346 15.9046C22.6728 15.95 22.6084 15.99 22.541 16.026C22.4732 16.0616 22.4035 16.0923 22.3316 16.1181C22.2597 16.1436 22.1863 16.1642 22.1114 16.1792C22.0369 16.1942 21.9612 16.2039 21.8848 16.208C21.8088 16.2121 21.7324 16.211 21.6564 16.2043C21.5803 16.1975 21.5051 16.1852 21.4309 16.1676C21.3567 16.15 21.2841 16.1275 21.2129 16.0994C21.1418 16.0713 21.0732 16.0384 21.0069 16.0002C20.9406 15.9623 20.8777 15.9196 20.8174 15.8728C20.7571 15.8256 20.7009 15.7747 20.6481 15.7193C20.5953 15.6642 20.5466 15.6054 20.5024 15.5432C20.4579 15.4811 20.4017 15.4324 20.3335 15.3975C20.2654 15.3627 20.1931 15.3455 20.1167 15.3459H20.0365C19.9931 15.3533 19.9515 15.3668 19.9118 15.3859C19.8721 15.4054 19.8358 15.4297 19.8028 15.4593C19.7699 15.4889 19.7418 15.5223 19.7186 15.5597C19.695 15.5972 19.6774 15.6372 19.665 15.6796C19.6414 15.7627 19.6111 15.8432 19.5744 15.9211C19.5377 15.9994 19.495 16.0739 19.4463 16.1455C19.398 16.2166 19.3437 16.2833 19.2845 16.3458C19.2249 16.4084 19.1609 16.4657 19.0924 16.5181C19.0234 16.5702 18.9512 16.6166 18.8751 16.6574C18.7987 16.6979 18.7201 16.732 18.6384 16.7601C18.5568 16.7878 18.4733 16.8091 18.3883 16.8237C18.3032 16.838 18.2175 16.8458 18.1313 16.8466C17.9849 16.8458 17.8411 16.8252 17.7002 16.7848C17.5594 16.7447 17.4265 16.6855 17.3021 16.6084C17.1774 16.5312 17.0658 16.4383 16.9669 16.3305C16.8681 16.2222 16.7857 16.1024 16.7201 15.9713C16.7003 15.9327 16.6759 15.8979 16.6463 15.8661C16.6167 15.8342 16.5838 15.8073 16.5467 15.7844C16.5096 15.762 16.4703 15.7447 16.4287 15.7331C16.3872 15.7215 16.3448 15.7155 16.3014 15.7155C16.2579 15.7155 16.2156 15.7215 16.1741 15.7331C16.1321 15.7447 16.0928 15.762 16.0561 15.7844C16.019 15.8073 15.986 15.8342 15.9565 15.8661C15.9269 15.8979 15.9025 15.9327 15.8827 15.9713C15.816 16.1013 15.7332 16.22 15.634 16.3267C15.5347 16.4339 15.4231 16.5256 15.2984 16.6016C15.1741 16.6777 15.0415 16.7357 14.901 16.7754C14.7606 16.8147 14.6172 16.8346 14.4715 16.8346C14.3254 16.8346 14.1823 16.8147 14.0415 16.7754C13.9011 16.7357 13.7689 16.6777 13.6441 16.6016C13.5198 16.5256 13.4078 16.4339 13.3086 16.3267C13.2093 16.22 13.1265 16.1013 13.0599 15.9713C13.0404 15.9324 13.0161 15.8964 12.9865 15.8642C12.9573 15.832 12.9239 15.8043 12.8865 15.7811C12.8494 15.7582 12.8097 15.7406 12.7677 15.7286C12.7258 15.7166 12.6827 15.7106 12.6389 15.7106C12.5951 15.7106 12.5524 15.7166 12.5104 15.7286C12.4681 15.7406 12.4284 15.7582 12.3913 15.7811C12.3543 15.8043 12.3209 15.832 12.2914 15.8642C12.2618 15.8964 12.2374 15.9324 12.2179 15.9713C12.1524 16.1028 12.0704 16.2222 11.9715 16.3309C11.8726 16.4391 11.761 16.532 11.6363 16.6091C11.512 16.6863 11.379 16.7451 11.2382 16.7855C11.097 16.826 10.9532 16.8462 10.8067 16.8466C10.7198 16.8466 10.6337 16.8402 10.5479 16.8264C10.4622 16.8129 10.3783 16.7923 10.2959 16.7649C10.2135 16.7376 10.1341 16.7039 10.0573 16.6634C9.98015 16.6234 9.90712 16.5773 9.83784 16.5252C9.76855 16.4732 9.70376 16.4159 9.64346 16.353C9.58353 16.2904 9.52885 16.2234 9.47979 16.1522C9.43035 16.0807 9.38728 16.0058 9.3502 15.9271C9.31313 15.8488 9.28279 15.7679 9.25882 15.6844C9.24683 15.6421 9.22886 15.602 9.20564 15.5646C9.18204 15.5271 9.15395 15.4934 9.12099 15.4642C9.08804 15.4346 9.05171 15.4099 9.01201 15.3908C8.97231 15.3713 8.93073 15.3578 8.88729 15.3503H8.80714C8.73074 15.35 8.65845 15.3672 8.59029 15.402C8.52213 15.4369 8.46595 15.4856 8.42138 15.5481C8.3476 15.6522 8.26258 15.7462 8.16595 15.8301C8.0697 15.914 7.96521 15.9852 7.85173 16.044C7.73862 16.1031 7.6199 16.1477 7.49593 16.1784C7.37196 16.2091 7.24612 16.2249 7.11841 16.2256C7.02889 16.2256 6.93976 16.2181 6.85174 16.2031C6.76336 16.1885 6.67684 16.1661 6.5922 16.1365C6.50793 16.1073 6.42628 16.0706 6.34801 16.0275C6.26973 15.984 6.1952 15.9346 6.12516 15.8788C6.05513 15.823 5.99034 15.7616 5.93079 15.6949C5.87124 15.6282 5.81731 15.5571 5.76974 15.4811C5.72218 15.4054 5.68135 15.326 5.6469 15.2432C5.61281 15.1605 5.58585 15.0754 5.566 14.9882C5.55551 14.9455 5.53978 14.9054 5.51806 14.8672C5.49671 14.829 5.47012 14.7946 5.43903 14.7638C5.40795 14.7331 5.37312 14.7073 5.33454 14.6863C5.29634 14.6653 5.25589 14.6496 5.2132 14.6402C5.17687 14.6354 5.14091 14.6354 5.10496 14.6402C5.03492 14.6388 4.96901 14.6545 4.90721 14.6871C4.84092 14.7148 4.78624 14.7571 4.74279 14.814C4.69073 14.8766 4.63455 14.935 4.57388 14.9889C4.51321 15.0429 4.44879 15.0919 4.38025 15.1357C4.31209 15.1799 4.24093 15.2185 4.16677 15.2518C4.09262 15.2852 4.01659 15.3125 3.93831 15.3339C3.86004 15.3556 3.78064 15.3709 3.69974 15.3807C3.61922 15.39 3.53832 15.393 3.45705 15.3904C3.37577 15.3874 3.29525 15.3781 3.21548 15.3631C3.1357 15.3477 3.0578 15.3268 2.98102 15.2994C2.90462 15.2721 2.83046 15.2395 2.75893 15.2009C2.6874 15.1623 2.61923 15.1189 2.55444 15.0698C2.48965 15.0208 2.42897 14.9676 2.37242 14.9092C2.31549 14.8511 2.26381 14.7889 2.21662 14.7226C2.16943 14.6567 2.12748 14.5874 2.09078 14.5148C2.05445 14.4425 2.02336 14.3676 1.99827 14.2901C1.97318 14.2129 1.95408 14.1343 1.94097 14.0541C1.92786 13.974 1.92074 13.8934 1.91999 13.8122C1.91962 13.7043 1.93048 13.5976 1.95295 13.4923C1.96007 13.4481 1.96007 13.4043 1.95295 13.3605C1.94696 13.2927 1.92673 13.2294 1.89303 13.1702C1.85969 13.1111 1.81513 13.0616 1.76007 13.0219L1.69902 12.956L1.62374 12.8946L1.55783 12.8478H1.52936C1.41663 12.7676 1.32487 12.668 1.25371 12.5493C1.18218 12.4309 1.13798 12.3028 1.12038 12.1654V9.9216C1.23311 10.0062 1.35558 10.086 1.49191 10.171C1.69303 10.2928 1.90014 10.4044 2.11287 10.5047L2.46568 10.6602C2.85743 10.828 3.25742 10.9736 3.66528 11.0976C3.80648 11.1448 3.95704 11.1871 4.1076 11.2294C7.07159 11.9792 10.0824 12.3699 13.14 12.4006H15.7793C18.8366 12.3706 21.8474 11.98 24.8117 11.2294L25.2821 11.0976C25.6896 10.9729 26.0896 10.8272 26.4817 10.6602L26.8297 10.5047C27.0439 10.4044 27.2525 10.2928 27.4555 10.171C27.5873 10.086 27.7094 10.0062 27.8225 9.9216V12.1654C27.8008 12.2995 27.7529 12.4231 27.6795 12.5369C27.6057 12.6508 27.5124 12.7448 27.399 12.8193Z" fill="#FA7F7F"/>
</g>
<path d="M13.9915 7.62123V9.50285C13.9915 9.53356 13.9948 9.56427 14.0008 9.5946C14.0068 9.62494 14.0158 9.65415 14.0274 9.68299C14.0394 9.71146 14.0536 9.73842 14.0709 9.76426C14.0881 9.78973 14.1076 9.8137 14.1293 9.83542C14.1514 9.85715 14.175 9.877 14.2008 9.89385C14.2263 9.91108 14.2536 9.92569 14.2821 9.9373C14.3106 9.94928 14.3401 9.95827 14.3705 9.96426C14.4004 9.97025 14.4311 9.97325 14.4622 9.97325C14.4929 9.97325 14.5237 9.97025 14.554 9.96426C14.5843 9.95827 14.6135 9.94928 14.642 9.9373C14.6705 9.92569 14.6978 9.91108 14.7233 9.89385C14.7491 9.877 14.7727 9.85715 14.7948 9.83542C14.8165 9.8137 14.836 9.78973 14.8532 9.76426C14.8705 9.73842 14.8851 9.71146 14.8967 9.68299C14.9087 9.65415 14.9173 9.62494 14.9236 9.5946C14.9296 9.56427 14.9326 9.53356 14.9326 9.50285V7.62123C14.9326 7.59014 14.9296 7.55943 14.9236 7.5291C14.9173 7.49913 14.9087 7.46955 14.8967 7.44108C14.8851 7.41262 14.8705 7.38528 14.8532 7.35981C14.836 7.33397 14.8165 7.31037 14.7948 7.28828C14.7727 7.26655 14.7491 7.24708 14.7233 7.22985C14.6978 7.21262 14.6705 7.19839 14.642 7.18641C14.6135 7.17442 14.5843 7.16581 14.554 7.15981C14.5237 7.15345 14.4929 7.15045 14.4622 7.15045C14.4311 7.15045 14.4004 7.15345 14.3705 7.15981C14.3401 7.16581 14.3106 7.17442 14.2821 7.18641C14.2536 7.19839 14.2263 7.21262 14.2008 7.22985C14.175 7.24708 14.1514 7.26655 14.1293 7.28828C14.1076 7.31037 14.0881 7.33397 14.0709 7.35981C14.0536 7.38528 14.0394 7.41262 14.0274 7.44108C14.0158 7.46955 14.0068 7.49913 14.0008 7.5291C13.9948 7.55943 13.9915 7.59014 13.9915 7.62123Z" fill="#FA7F7F"/>
<path d="M9.00019 6.586C8.96948 6.586 8.93877 6.58899 8.90843 6.59499C8.87809 6.60098 8.84888 6.60997 8.82042 6.62195C8.79158 6.63356 8.76461 6.64817 8.73877 6.6654C8.7133 6.68263 8.68933 6.7021 8.66761 6.72382C8.64589 6.74555 8.62641 6.76952 8.60918 6.79498C8.59196 6.82083 8.57735 6.84779 8.56574 6.87663C8.55375 6.90509 8.54477 6.93431 8.53877 6.96464C8.53278 6.99498 8.52979 7.02569 8.52979 7.0564V8.1856C8.52979 8.21631 8.53278 8.24702 8.53877 8.27736C8.54477 8.30769 8.55375 8.3369 8.56574 8.36574C8.57735 8.39421 8.59196 8.42117 8.60918 8.44702C8.62641 8.47248 8.64589 8.49645 8.66761 8.51818C8.68933 8.5399 8.7133 8.55937 8.73877 8.5766C8.76461 8.59383 8.79158 8.60844 8.82042 8.62005C8.84888 8.63203 8.87809 8.64102 8.90843 8.64701C8.93877 8.653 8.96948 8.656 9.00019 8.656C9.03127 8.656 9.06161 8.653 9.09195 8.64701C9.12228 8.64102 9.15187 8.63203 9.18034 8.62005C9.2088 8.60844 9.23614 8.59383 9.26161 8.5766C9.28745 8.55937 9.31105 8.5399 9.33277 8.51818C9.35486 8.49645 9.37434 8.47248 9.39157 8.44702C9.4088 8.42117 9.42303 8.39421 9.43501 8.36574C9.44662 8.3369 9.45561 8.30769 9.4616 8.27736C9.4676 8.24702 9.47059 8.21631 9.47059 8.1856V7.0564C9.47059 7.02569 9.4676 6.99498 9.4616 6.96464C9.45561 6.93431 9.44662 6.90509 9.43501 6.87663C9.42303 6.84779 9.4088 6.82083 9.39157 6.79498C9.37434 6.76952 9.35486 6.74555 9.33277 6.72382C9.31105 6.7021 9.28745 6.68263 9.26161 6.6654C9.23614 6.64817 9.2088 6.63356 9.18034 6.62195C9.15187 6.60997 9.12228 6.60098 9.09195 6.59499C9.06161 6.58899 9.03127 6.586 9.00019 6.586Z" fill="#FA7F7F"/>
<path d="M19.9383 8.656C19.969 8.656 19.9997 8.653 20.0301 8.64701C20.0604 8.64102 20.0896 8.63203 20.1181 8.62005C20.1465 8.60844 20.1739 8.59383 20.1994 8.5766C20.2252 8.55937 20.2488 8.5399 20.2709 8.51818C20.2926 8.49645 20.3121 8.47248 20.3293 8.44702C20.3465 8.42117 20.3608 8.39421 20.3728 8.36574C20.3847 8.3369 20.3934 8.30769 20.3997 8.27736C20.4057 8.24702 20.4087 8.21631 20.4087 8.1856V7.0564C20.4087 7.02569 20.4057 6.99498 20.3997 6.96464C20.3934 6.93431 20.3847 6.90509 20.3728 6.87663C20.3608 6.84779 20.3465 6.82083 20.3293 6.79498C20.3121 6.76952 20.2926 6.74555 20.2709 6.72382C20.2488 6.7021 20.2252 6.68263 20.1994 6.6654C20.1739 6.64817 20.1465 6.63356 20.1181 6.62195C20.0896 6.60997 20.0604 6.60098 20.0301 6.59499C19.9997 6.58899 19.969 6.586 19.9383 6.586C19.9072 6.586 19.8765 6.58899 19.8465 6.59499C19.8162 6.60098 19.7866 6.60997 19.7582 6.62195C19.7297 6.63356 19.7024 6.64817 19.6769 6.6654C19.651 6.68263 19.6275 6.7021 19.6054 6.72382C19.5836 6.74555 19.5642 6.76952 19.5469 6.79498C19.5297 6.82083 19.5155 6.84779 19.5035 6.87663C19.4919 6.90509 19.4829 6.93431 19.4769 6.96464C19.4709 6.99498 19.4675 7.02569 19.4675 7.0564V8.1856C19.4675 8.21631 19.4709 8.24702 19.4769 8.27736C19.4829 8.30769 19.4919 8.3369 19.5035 8.36574C19.5155 8.39421 19.5297 8.42117 19.5469 8.44702C19.5642 8.47248 19.5836 8.49645 19.6054 8.51818C19.6275 8.5399 19.651 8.55937 19.6769 8.5766C19.7024 8.59383 19.7297 8.60844 19.7582 8.62005C19.7866 8.63203 19.8162 8.64102 19.8465 8.64701C19.8765 8.653 19.9072 8.656 19.9383 8.656Z" fill="#FA7F7F"/>
</svg>
