<svg width="29" height="22" viewBox="0 0 29 22" fill="none" xmlns="http://www.w3.org/2000/svg">
<mask id="mask0_20_2593" style="mask-type:luminance" maskUnits="userSpaceOnUse" x="2" y="0" width="8" height="8">
<path d="M2.07922 0H9.22162V7.06541H2.07922V0Z" fill="white"/>
</mask>
<g mask="url(#mask0_20_2593)">
<path d="M5.63833 7.01914C7.57296 7.01914 9.14666 5.44474 9.14666 3.50939C9.14666 1.57441 7.57296 0 5.63833 0C3.70369 0 2.12964 1.57441 2.12964 3.50939C2.12964 5.44474 3.70369 7.01914 5.63833 7.01914ZM5.63833 1.12801C6.95104 1.12801 8.01936 2.19633 8.01936 3.50939C8.01936 4.82281 6.95104 5.89114 5.63833 5.89114C4.32526 5.89114 3.25729 4.82281 3.25729 3.50939C3.25729 2.19633 4.32526 1.12801 5.63833 1.12801Z" fill="#FA7F7F"/>
</g>
<mask id="mask1_20_2593" style="mask-type:luminance" maskUnits="userSpaceOnUse" x="19" y="0" width="8" height="8">
<path d="M19.7092 0H26.7612V7.06541H19.7092V0Z" fill="white"/>
</mask>
<g mask="url(#mask1_20_2593)">
<path d="M23.2298 7.01914C25.1644 7.01914 26.7385 5.44474 26.7385 3.50939C26.7385 1.57441 25.1644 0 23.2298 0C21.2951 0 19.7214 1.57441 19.7214 3.50939C19.7214 5.44474 21.2951 7.01914 23.2298 7.01914ZM23.2298 1.12801C24.5428 1.12801 25.6108 2.19633 25.6108 3.50939C25.6108 4.82281 24.5428 5.89114 23.2298 5.89114C21.9171 5.89114 20.8487 4.82281 20.8487 3.50939C20.8487 2.19633 21.9171 1.12801 23.2298 1.12801Z" fill="#FA7F7F"/>
</g>
<mask id="mask2_20_2593" style="mask-type:luminance" maskUnits="userSpaceOnUse" x="0" y="7" width="29" height="15">
<path d="M0 7.69824H28.8408V21.9018H0V7.69824Z" fill="white"/>
</mask>
<g mask="url(#mask2_20_2593)">
<path d="M28.7437 13.3728L28.5636 12.2886C28.1274 9.66921 25.8841 7.76813 23.2294 7.76813C20.9306 7.76813 18.9144 9.22387 18.1495 11.3301C17.0458 10.6228 15.7554 10.2406 14.4338 10.2406C13.1119 10.2406 11.8215 10.6228 10.7178 11.3301C9.95288 9.22387 7.93631 7.76813 5.63791 7.76813C2.98318 7.76813 0.739877 9.66921 0.303719 12.2886L0.123605 13.3728C-0.0257833 14.2699 0.22567 15.1825 0.813335 15.8764C1.40135 16.5704 2.2599 16.9681 3.16929 16.9681H7.48108L7.40762 17.4102C7.22115 18.5312 7.53511 19.6708 8.26934 20.5378C9.00392 21.4049 10.0765 21.9018 11.2123 21.9018H17.655C18.7908 21.9018 19.8634 21.4049 20.598 20.5378C21.3322 19.6708 21.6461 18.5312 21.4597 17.4102L21.3862 16.9681H25.698C26.6074 16.9681 27.4659 16.5704 28.054 15.8764C28.6416 15.1825 28.8931 14.2699 28.7437 13.3728ZM1.67364 15.1471C1.30035 14.7067 1.14072 14.1276 1.23572 13.5579L1.41619 12.474C1.76123 10.4006 3.53659 8.89613 5.63791 8.89613C7.58138 8.89613 9.26986 10.2106 9.76817 12.0633C8.68431 13.0631 7.94655 14.3896 7.67073 15.8404H3.16929C2.59187 15.8404 2.04694 15.5879 1.67364 15.1471ZM19.7376 19.8089C19.2178 20.4224 18.4588 20.7741 17.655 20.7741H11.2123C10.4085 20.7741 9.64951 20.4224 9.12965 19.8089C8.61015 19.1955 8.38765 18.3885 8.51974 17.5956L8.7553 16.1809C8.97885 14.8378 9.67388 13.6134 10.7122 12.7333C11.7508 11.8532 13.0724 11.3683 14.4338 11.3683C15.7949 11.3683 17.1165 11.8532 18.1551 12.7333C19.1934 13.6134 19.8885 14.8378 20.112 16.1809L20.3476 17.5956C20.4796 18.3885 20.2572 19.1955 19.7376 19.8089ZM27.1937 15.1471C26.8204 15.5879 26.2754 15.8404 25.698 15.8404H21.1966C20.9207 14.3896 20.183 13.0631 19.0991 12.0633C19.5974 10.2106 21.2863 8.89613 23.2294 8.89613C25.3307 8.89613 27.1061 10.4006 27.4511 12.474L27.6316 13.5579C27.7266 14.1276 27.5669 14.7067 27.1937 15.1471Z" fill="#FA7F7F"/>
</g>
<path d="M14.4343 9.12045C16.8637 9.12045 18.8407 7.14308 18.8407 4.71261C18.8407 2.28248 16.8637 0.305115 14.4343 0.305115C12.0045 0.305115 10.0278 2.28248 10.0278 4.71261C10.0278 7.14308 12.0045 9.12045 14.4343 9.12045ZM14.4343 1.43312C16.2421 1.43312 17.713 2.9044 17.713 4.71261C17.713 6.52116 16.2421 7.99244 14.4343 7.99244C12.6261 7.99244 11.1551 6.52116 11.1551 4.71261C11.1551 2.9044 12.6261 1.43312 14.4343 1.43312Z" fill="#FA7F7F"/>
</svg>
